<svg width="500" height="488" viewBox="0 0 500 488" fill="none" xmlns="http://www.w3.org/2000/svg">
<path d="M26.9203 16.952V15.808L34.0703 5.6H35.8523L28.7023 15.808L27.8883 15.544H39.5923V16.952H26.9203ZM34.9283 21V16.952L34.9943 15.544V12.046H36.4683V21H34.9283ZM43.3366 21.11C43.014 21.11 42.7353 20.9927 42.5006 20.758C42.2806 20.5233 42.1706 20.2373 42.1706 19.9C42.1706 19.548 42.2806 19.262 42.5006 19.042C42.7353 18.822 43.014 18.712 43.3366 18.712C43.6593 18.712 43.9306 18.822 44.1506 19.042C44.3853 19.262 44.5026 19.548 44.5026 19.9C44.5026 20.2373 44.3853 20.5233 44.1506 20.758C43.9306 20.9927 43.6593 21.11 43.3366 21.11ZM55.508 21V5.6H61.778C63.4207 5.6 64.858 5.93 66.09 6.59C67.3367 7.23533 68.3047 8.13733 68.994 9.296C69.6833 10.4547 70.028 11.7893 70.028 13.3C70.028 14.8107 69.6833 16.1453 68.994 17.304C68.3047 18.4627 67.3367 19.372 66.09 20.032C64.858 20.6773 63.4207 21 61.778 21H55.508ZM57.136 19.592H61.69C63.054 19.592 64.2347 19.328 65.232 18.8C66.244 18.2573 67.0287 17.5167 67.586 16.578C68.1433 15.6247 68.422 14.532 68.422 13.3C68.422 12.0533 68.1433 10.9607 67.586 10.022C67.0287 9.08333 66.244 8.35 65.232 7.822C64.2347 7.27933 63.054 7.008 61.69 7.008H57.136V19.592ZM78.0618 21.11C76.9471 21.11 75.9424 20.8607 75.0478 20.362C74.1678 19.8487 73.4711 19.152 72.9578 18.272C72.4444 17.3773 72.1878 16.358 72.1878 15.214C72.1878 14.0553 72.4444 13.036 72.9578 12.156C73.4711 11.276 74.1678 10.5867 75.0478 10.088C75.9278 9.58933 76.9324 9.34 78.0618 9.34C79.2058 9.34 80.2178 9.58933 81.0978 10.088C81.9924 10.5867 82.6891 11.276 83.1878 12.156C83.7011 13.036 83.9578 14.0553 83.9578 15.214C83.9578 16.358 83.7011 17.3773 83.1878 18.272C82.6891 19.152 81.9924 19.8487 81.0978 20.362C80.2031 20.8607 79.1911 21.11 78.0618 21.11ZM78.0618 19.724C78.8978 19.724 79.6384 19.5407 80.2838 19.174C80.9291 18.7927 81.4351 18.2647 81.8018 17.59C82.1831 16.9007 82.3738 16.1087 82.3738 15.214C82.3738 14.3047 82.1831 13.5127 81.8018 12.838C81.4351 12.1633 80.9291 11.6427 80.2838 11.276C79.6384 10.8947 78.9051 10.704 78.0838 10.704C77.2624 10.704 76.5291 10.8947 75.8838 11.276C75.2384 11.6427 74.7251 12.1633 74.3438 12.838C73.9624 13.5127 73.7718 14.3047 73.7718 15.214C73.7718 16.1087 73.9624 16.9007 74.3438 17.59C74.7251 18.2647 75.2384 18.7927 75.8838 19.174C76.5291 19.5407 77.2551 19.724 78.0618 19.724ZM92.9926 25.378C92.4499 25.378 91.9292 25.29 91.4306 25.114C90.9466 24.938 90.5286 24.674 90.1766 24.322L90.9026 23.156C91.1959 23.4347 91.5112 23.6473 91.8486 23.794C92.2006 23.9553 92.5892 24.036 93.0146 24.036C93.5279 24.036 93.9679 23.8893 94.3346 23.596C94.7159 23.3173 95.0752 22.8187 95.4126 22.1L96.1606 20.406L96.3366 20.164L101.089 9.45H102.629L96.8426 22.386C96.5199 23.134 96.1606 23.728 95.7646 24.168C95.3832 24.608 94.9652 24.916 94.5106 25.092C94.0559 25.2827 93.5499 25.378 92.9926 25.378ZM96.0726 21.33L90.7486 9.45H92.3766L97.0846 20.054L96.0726 21.33ZM109.214 21.11C108.099 21.11 107.095 20.8607 106.2 20.362C105.32 19.8487 104.623 19.152 104.11 18.272C103.597 17.3773 103.34 16.358 103.34 15.214C103.34 14.0553 103.597 13.036 104.11 12.156C104.623 11.276 105.32 10.5867 106.2 10.088C107.08 9.58933 108.085 9.34 109.214 9.34C110.358 9.34 111.37 9.58933 112.25 10.088C113.145 10.5867 113.841 11.276 114.34 12.156C114.853 13.036 115.11 14.0553 115.11 15.214C115.11 16.358 114.853 17.3773 114.34 18.272C113.841 19.152 113.145 19.8487 112.25 20.362C111.355 20.8607 110.343 21.11 109.214 21.11ZM109.214 19.724C110.05 19.724 110.791 19.5407 111.436 19.174C112.081 18.7927 112.587 18.2647 112.954 17.59C113.335 16.9007 113.526 16.1087 113.526 15.214C113.526 14.3047 113.335 13.5127 112.954 12.838C112.587 12.1633 112.081 11.6427 111.436 11.276C110.791 10.8947 110.057 10.704 109.236 10.704C108.415 10.704 107.681 10.8947 107.036 11.276C106.391 11.6427 105.877 12.1633 105.496 12.838C105.115 13.5127 104.924 14.3047 104.924 15.214C104.924 16.1087 105.115 16.9007 105.496 17.59C105.877 18.2647 106.391 18.7927 107.036 19.174C107.681 19.5407 108.407 19.724 109.214 19.724ZM123.073 21.11C122.09 21.11 121.232 20.9267 120.499 20.56C119.766 20.1933 119.194 19.6433 118.783 18.91C118.387 18.1767 118.189 17.26 118.189 16.16V9.45H119.751V15.984C119.751 17.216 120.052 18.1473 120.653 18.778C121.269 19.394 122.127 19.702 123.227 19.702C124.034 19.702 124.73 19.5407 125.317 19.218C125.918 18.8807 126.373 18.3967 126.681 17.766C127.004 17.1353 127.165 16.38 127.165 15.5V9.45H128.727V21H127.231V17.832L127.473 18.404C127.106 19.2547 126.534 19.922 125.757 20.406C124.994 20.8753 124.1 21.11 123.073 21.11ZM144.8 21.11C143.803 21.11 142.901 20.8827 142.094 20.428C141.287 19.9587 140.642 19.2913 140.158 18.426C139.689 17.546 139.454 16.4753 139.454 15.214C139.454 13.9527 139.689 12.8893 140.158 12.024C140.627 11.144 141.265 10.4767 142.072 10.022C142.879 9.56733 143.788 9.34 144.8 9.34C145.9 9.34 146.883 9.58933 147.748 10.088C148.628 10.572 149.317 11.2613 149.816 12.156C150.315 13.036 150.564 14.0553 150.564 15.214C150.564 16.3873 150.315 17.414 149.816 18.294C149.317 19.174 148.628 19.8633 147.748 20.362C146.883 20.8607 145.9 21.11 144.8 21.11ZM138.838 25.268V9.45H140.334V12.926L140.18 15.236L140.4 17.568V25.268H138.838ZM144.69 19.724C145.511 19.724 146.245 19.5407 146.89 19.174C147.535 18.7927 148.049 18.2647 148.43 17.59C148.811 16.9007 149.002 16.1087 149.002 15.214C149.002 14.3193 148.811 13.5347 148.43 12.86C148.049 12.1853 147.535 11.6573 146.89 11.276C146.245 10.8947 145.511 10.704 144.69 10.704C143.869 10.704 143.128 10.8947 142.468 11.276C141.823 11.6573 141.309 12.1853 140.928 12.86C140.561 13.5347 140.378 14.3193 140.378 15.214C140.378 16.1087 140.561 16.9007 140.928 17.59C141.309 18.2647 141.823 18.7927 142.468 19.174C143.128 19.5407 143.869 19.724 144.69 19.724ZM160.922 21V18.448L160.856 18.03V13.762C160.856 12.7793 160.577 12.024 160.02 11.496C159.477 10.968 158.663 10.704 157.578 10.704C156.83 10.704 156.119 10.8287 155.444 11.078C154.769 11.3273 154.197 11.6573 153.728 12.068L153.024 10.902C153.611 10.4033 154.315 10.022 155.136 9.758C155.957 9.47933 156.823 9.34 157.732 9.34C159.228 9.34 160.379 9.714 161.186 10.462C162.007 11.1953 162.418 12.3173 162.418 13.828V21H160.922ZM156.94 21.11C156.075 21.11 155.319 20.9707 154.674 20.692C154.043 20.3987 153.559 20.0027 153.222 19.504C152.885 18.9907 152.716 18.404 152.716 17.744C152.716 17.1427 152.855 16.6 153.134 16.116C153.427 15.6173 153.897 15.2213 154.542 14.928C155.202 14.62 156.082 14.466 157.182 14.466H161.164V15.632H157.226C156.111 15.632 155.334 15.83 154.894 16.226C154.469 16.622 154.256 17.1133 154.256 17.7C154.256 18.36 154.513 18.888 155.026 19.284C155.539 19.68 156.258 19.878 157.182 19.878C158.062 19.878 158.817 19.68 159.448 19.284C160.093 18.8733 160.563 18.2867 160.856 17.524L161.208 18.602C160.915 19.3647 160.401 19.9733 159.668 20.428C158.949 20.8827 158.04 21.11 156.94 21.11ZM166.534 25.378C165.991 25.378 165.47 25.29 164.972 25.114C164.488 24.938 164.07 24.674 163.718 24.322L164.444 23.156C164.737 23.4347 165.052 23.6473 165.39 23.794C165.742 23.9553 166.13 24.036 166.556 24.036C167.069 24.036 167.509 23.8893 167.876 23.596C168.257 23.3173 168.616 22.8187 168.954 22.1L169.702 20.406L169.878 20.164L174.63 9.45H176.17L170.384 22.386C170.061 23.134 169.702 23.728 169.306 24.168C168.924 24.608 168.506 24.916 168.052 25.092C167.597 25.2827 167.091 25.378 166.534 25.378ZM169.614 21.33L164.29 9.45H165.918L170.626 20.054L169.614 21.33ZM184.391 21V7.998C184.391 6.97133 184.692 6.14267 185.293 5.512C185.895 4.88133 186.76 4.566 187.889 4.566C188.329 4.566 188.755 4.62467 189.165 4.742C189.576 4.85933 189.921 5.04267 190.199 5.292L189.671 6.458C189.451 6.26733 189.195 6.128 188.901 6.04C188.608 5.93733 188.293 5.886 187.955 5.886C187.295 5.886 186.789 6.06933 186.437 6.436C186.085 6.80267 185.909 7.34533 185.909 8.064V9.824L185.953 10.55V21H184.391ZM182.323 10.748V9.45H189.473V10.748H182.323ZM196.097 21.11C194.982 21.11 193.978 20.8607 193.083 20.362C192.203 19.8487 191.506 19.152 190.993 18.272C190.48 17.3773 190.223 16.358 190.223 15.214C190.223 14.0553 190.48 13.036 190.993 12.156C191.506 11.276 192.203 10.5867 193.083 10.088C193.963 9.58933 194.968 9.34 196.097 9.34C197.241 9.34 198.253 9.58933 199.133 10.088C200.028 10.5867 200.724 11.276 201.223 12.156C201.736 13.036 201.993 14.0553 201.993 15.214C201.993 16.358 201.736 17.3773 201.223 18.272C200.724 19.152 200.028 19.8487 199.133 20.362C198.238 20.8607 197.226 21.11 196.097 21.11ZM196.097 19.724C196.933 19.724 197.674 19.5407 198.319 19.174C198.964 18.7927 199.47 18.2647 199.837 17.59C200.218 16.9007 200.409 16.1087 200.409 15.214C200.409 14.3047 200.218 13.5127 199.837 12.838C199.47 12.1633 198.964 11.6427 198.319 11.276C197.674 10.8947 196.94 10.704 196.119 10.704C195.298 10.704 194.564 10.8947 193.919 11.276C193.274 11.6427 192.76 12.1633 192.379 12.838C191.998 13.5127 191.807 14.3047 191.807 15.214C191.807 16.1087 191.998 16.9007 192.379 17.59C192.76 18.2647 193.274 18.7927 193.919 19.174C194.564 19.5407 195.29 19.724 196.097 19.724ZM205.182 21V9.45H206.678V12.596L206.524 12.046C206.847 11.166 207.389 10.4987 208.152 10.044C208.915 9.57467 209.861 9.34 210.99 9.34V10.858C210.931 10.858 210.873 10.858 210.814 10.858C210.755 10.8433 210.697 10.836 210.638 10.836C209.421 10.836 208.467 11.21 207.778 11.958C207.089 12.6913 206.744 13.74 206.744 15.104V21H205.182ZM227.008 21V18.448L226.942 18.03V13.762C226.942 12.7793 226.663 12.024 226.106 11.496C225.563 10.968 224.749 10.704 223.664 10.704C222.916 10.704 222.204 10.8287 221.53 11.078C220.855 11.3273 220.283 11.6573 219.814 12.068L219.11 10.902C219.696 10.4033 220.4 10.022 221.222 9.758C222.043 9.47933 222.908 9.34 223.818 9.34C225.314 9.34 226.465 9.714 227.272 10.462C228.093 11.1953 228.504 12.3173 228.504 13.828V21H227.008ZM223.026 21.11C222.16 21.11 221.405 20.9707 220.76 20.692C220.129 20.3987 219.645 20.0027 219.308 19.504C218.97 18.9907 218.802 18.404 218.802 17.744C218.802 17.1427 218.941 16.6 219.22 16.116C219.513 15.6173 219.982 15.2213 220.628 14.928C221.288 14.62 222.168 14.466 223.268 14.466H227.25V15.632H223.312C222.197 15.632 221.42 15.83 220.98 16.226C220.554 16.622 220.342 17.1133 220.342 17.7C220.342 18.36 220.598 18.888 221.112 19.284C221.625 19.68 222.344 19.878 223.268 19.878C224.148 19.878 224.903 19.68 225.534 19.284C226.179 18.8733 226.648 18.2867 226.942 17.524L227.294 18.602C227 19.3647 226.487 19.9733 225.754 20.428C225.035 20.8827 224.126 21.11 223.026 21.11ZM241.606 21.11C240.653 21.11 239.751 20.978 238.9 20.714C238.05 20.4353 237.382 20.0907 236.898 19.68L237.602 18.448C238.072 18.8 238.673 19.108 239.406 19.372C240.14 19.6213 240.91 19.746 241.716 19.746C242.816 19.746 243.608 19.5773 244.092 19.24C244.576 18.888 244.818 18.426 244.818 17.854C244.818 17.4287 244.679 17.0987 244.4 16.864C244.136 16.6147 243.784 16.4313 243.344 16.314C242.904 16.182 242.413 16.072 241.87 15.984C241.328 15.896 240.785 15.7933 240.242 15.676C239.714 15.5587 239.23 15.39 238.79 15.17C238.35 14.9353 237.991 14.62 237.712 14.224C237.448 13.828 237.316 13.3 237.316 12.64C237.316 12.0093 237.492 11.4447 237.844 10.946C238.196 10.4473 238.71 10.0587 239.384 9.78C240.074 9.48667 240.91 9.34 241.892 9.34C242.64 9.34 243.388 9.44267 244.136 9.648C244.884 9.83867 245.5 10.0953 245.984 10.418L245.302 11.672C244.789 11.32 244.239 11.0707 243.652 10.924C243.066 10.7627 242.479 10.682 241.892 10.682C240.851 10.682 240.081 10.8653 239.582 11.232C239.098 11.584 238.856 12.0387 238.856 12.596C238.856 13.036 238.988 13.3807 239.252 13.63C239.531 13.8793 239.89 14.0773 240.33 14.224C240.785 14.356 241.276 14.466 241.804 14.554C242.347 14.642 242.882 14.752 243.41 14.884C243.953 15.0013 244.444 15.17 244.884 15.39C245.339 15.5953 245.698 15.896 245.962 16.292C246.241 16.6733 246.38 17.1793 246.38 17.81C246.38 18.4847 246.19 19.0713 245.808 19.57C245.442 20.054 244.899 20.4353 244.18 20.714C243.476 20.978 242.618 21.11 241.606 21.11ZM254.02 21.11C253.038 21.11 252.18 20.9267 251.446 20.56C250.713 20.1933 250.141 19.6433 249.73 18.91C249.334 18.1767 249.136 17.26 249.136 16.16V9.45H250.698V15.984C250.698 17.216 250.999 18.1473 251.6 18.778C252.216 19.394 253.074 19.702 254.174 19.702C254.981 19.702 255.678 19.5407 256.264 19.218C256.866 18.8807 257.32 18.3967 257.628 17.766C257.951 17.1353 258.112 16.38 258.112 15.5V9.45H259.674V21H258.178V17.832L258.42 18.404C258.054 19.2547 257.482 19.922 256.704 20.406C255.942 20.8753 255.047 21.11 254.02 21.11ZM269.99 21.11C268.978 21.11 268.068 20.8827 267.262 20.428C266.455 19.9587 265.817 19.284 265.348 18.404C264.878 17.524 264.644 16.4607 264.644 15.214C264.644 13.9527 264.878 12.8893 265.348 12.024C265.832 11.144 266.477 10.4767 267.284 10.022C268.09 9.56733 268.992 9.34 269.99 9.34C271.09 9.34 272.072 9.58933 272.938 10.088C273.818 10.572 274.507 11.254 275.006 12.134C275.504 13.014 275.754 14.0407 275.754 15.214C275.754 16.3727 275.504 17.3993 275.006 18.294C274.507 19.174 273.818 19.8633 272.938 20.362C272.072 20.8607 271.09 21.11 269.99 21.11ZM264.028 21V4.676H265.59V12.86L265.37 15.192L265.524 17.524V21H264.028ZM269.88 19.724C270.701 19.724 271.434 19.5407 272.08 19.174C272.725 18.7927 273.238 18.2647 273.62 17.59C274.001 16.9007 274.192 16.1087 274.192 15.214C274.192 14.3047 274.001 13.5127 273.62 12.838C273.238 12.1633 272.725 11.6427 272.08 11.276C271.434 10.8947 270.701 10.704 269.88 10.704C269.058 10.704 268.318 10.8947 267.658 11.276C267.012 11.6427 266.499 12.1633 266.118 12.838C265.751 13.5127 265.568 14.3047 265.568 15.214C265.568 16.1087 265.751 16.9007 266.118 17.59C266.499 18.2647 267.012 18.7927 267.658 19.174C268.318 19.5407 269.058 19.724 269.88 19.724ZM282.04 21.11C281.086 21.11 280.184 20.978 279.334 20.714C278.483 20.4353 277.816 20.0907 277.332 19.68L278.036 18.448C278.505 18.8 279.106 19.108 279.84 19.372C280.573 19.6213 281.343 19.746 282.15 19.746C283.25 19.746 284.042 19.5773 284.526 19.24C285.01 18.888 285.252 18.426 285.252 17.854C285.252 17.4287 285.112 17.0987 284.834 16.864C284.57 16.6147 284.218 16.4313 283.778 16.314C283.338 16.182 282.846 16.072 282.304 15.984C281.761 15.896 281.218 15.7933 280.676 15.676C280.148 15.5587 279.664 15.39 279.224 15.17C278.784 14.9353 278.424 14.62 278.146 14.224C277.882 13.828 277.75 13.3 277.75 12.64C277.75 12.0093 277.926 11.4447 278.278 10.946C278.63 10.4473 279.143 10.0587 279.818 9.78C280.507 9.48667 281.343 9.34 282.326 9.34C283.074 9.34 283.822 9.44267 284.57 9.648C285.318 9.83867 285.934 10.0953 286.418 10.418L285.736 11.672C285.222 11.32 284.672 11.0707 284.086 10.924C283.499 10.7627 282.912 10.682 282.326 10.682C281.284 10.682 280.514 10.8653 280.016 11.232C279.532 11.584 279.29 12.0387 279.29 12.596C279.29 13.036 279.422 13.3807 279.686 13.63C279.964 13.8793 280.324 14.0773 280.764 14.224C281.218 14.356 281.71 14.466 282.238 14.554C282.78 14.642 283.316 14.752 283.844 14.884C284.386 15.0013 284.878 15.17 285.318 15.39C285.772 15.5953 286.132 15.896 286.396 16.292C286.674 16.6733 286.814 17.1793 286.814 17.81C286.814 18.4847 286.623 19.0713 286.242 19.57C285.875 20.054 285.332 20.4353 284.614 20.714C283.91 20.978 283.052 21.11 282.04 21.11ZM294.476 21.11C293.332 21.11 292.305 20.8607 291.396 20.362C290.501 19.8487 289.797 19.152 289.284 18.272C288.771 17.3773 288.514 16.358 288.514 15.214C288.514 14.0553 288.771 13.036 289.284 12.156C289.797 11.276 290.501 10.5867 291.396 10.088C292.305 9.58933 293.332 9.34 294.476 9.34C295.459 9.34 296.346 9.53067 297.138 9.912C297.93 10.2933 298.553 10.8653 299.008 11.628L297.842 12.42C297.446 11.8333 296.955 11.4007 296.368 11.122C295.781 10.8433 295.143 10.704 294.454 10.704C293.633 10.704 292.892 10.8947 292.232 11.276C291.572 11.6427 291.051 12.1633 290.67 12.838C290.289 13.5127 290.098 14.3047 290.098 15.214C290.098 16.1233 290.289 16.9153 290.67 17.59C291.051 18.2647 291.572 18.7927 292.232 19.174C292.892 19.5407 293.633 19.724 294.454 19.724C295.143 19.724 295.781 19.5847 296.368 19.306C296.955 19.0273 297.446 18.602 297.842 18.03L299.008 18.822C298.553 19.57 297.93 20.142 297.138 20.538C296.346 20.9193 295.459 21.11 294.476 21.11ZM302.076 21V9.45H303.572V12.596L303.418 12.046C303.741 11.166 304.284 10.4987 305.046 10.044C305.809 9.57467 306.755 9.34 307.884 9.34V10.858C307.826 10.858 307.767 10.858 307.708 10.858C307.65 10.8433 307.591 10.836 307.532 10.836C306.315 10.836 305.362 11.21 304.672 11.958C303.983 12.6913 303.638 13.74 303.638 15.104V21H302.076ZM310.735 21V9.45H312.297V21H310.735ZM311.527 6.898C311.204 6.898 310.933 6.788 310.713 6.568C310.493 6.348 310.383 6.084 310.383 5.776C310.383 5.468 310.493 5.21133 310.713 5.006C310.933 4.786 311.204 4.676 311.527 4.676C311.849 4.676 312.121 4.77867 312.341 4.984C312.561 5.18933 312.671 5.446 312.671 5.754C312.671 6.07667 312.561 6.348 312.341 6.568C312.135 6.788 311.864 6.898 311.527 6.898ZM322.605 21.11C321.608 21.11 320.706 20.8827 319.899 20.428C319.092 19.9587 318.447 19.2913 317.963 18.426C317.494 17.546 317.259 16.4753 317.259 15.214C317.259 13.9527 317.494 12.8893 317.963 12.024C318.432 11.144 319.07 10.4767 319.877 10.022C320.684 9.56733 321.593 9.34 322.605 9.34C323.705 9.34 324.688 9.58933 325.553 10.088C326.433 10.572 327.122 11.2613 327.621 12.156C328.12 13.036 328.369 14.0553 328.369 15.214C328.369 16.3873 328.12 17.414 327.621 18.294C327.122 19.174 326.433 19.8633 325.553 20.362C324.688 20.8607 323.705 21.11 322.605 21.11ZM316.643 25.268V9.45H318.139V12.926L317.985 15.236L318.205 17.568V25.268H316.643ZM322.495 19.724C323.316 19.724 324.05 19.5407 324.695 19.174C325.34 18.7927 325.854 18.2647 326.235 17.59C326.616 16.9007 326.807 16.1087 326.807 15.214C326.807 14.3193 326.616 13.5347 326.235 12.86C325.854 12.1853 325.34 11.6573 324.695 11.276C324.05 10.8947 323.316 10.704 322.495 10.704C321.674 10.704 320.933 10.8947 320.273 11.276C319.628 11.6573 319.114 12.1853 318.733 12.86C318.366 13.5347 318.183 14.3193 318.183 15.214C318.183 16.1087 318.366 16.9007 318.733 17.59C319.114 18.2647 319.628 18.7927 320.273 19.174C320.933 19.5407 321.674 19.724 322.495 19.724ZM335.205 21.11C334.12 21.11 333.284 20.8167 332.697 20.23C332.11 19.6433 331.817 18.8147 331.817 17.744V6.898H333.379V17.656C333.379 18.3307 333.548 18.8513 333.885 19.218C334.237 19.5847 334.736 19.768 335.381 19.768C336.07 19.768 336.642 19.57 337.097 19.174L337.647 20.296C337.339 20.5747 336.965 20.78 336.525 20.912C336.1 21.044 335.66 21.11 335.205 21.11ZM329.749 10.748V9.45H336.899V10.748H329.749ZM340.491 21V9.45H342.053V21H340.491ZM341.283 6.898C340.96 6.898 340.689 6.788 340.469 6.568C340.249 6.348 340.139 6.084 340.139 5.776C340.139 5.468 340.249 5.21133 340.469 5.006C340.689 4.786 340.96 4.676 341.283 4.676C341.605 4.676 341.877 4.77867 342.097 4.984C342.317 5.18933 342.427 5.446 342.427 5.754C342.427 6.07667 342.317 6.348 342.097 6.568C341.891 6.788 341.62 6.898 341.283 6.898ZM351.107 21.11C349.992 21.11 348.987 20.8607 348.093 20.362C347.213 19.8487 346.516 19.152 346.003 18.272C345.489 17.3773 345.233 16.358 345.233 15.214C345.233 14.0553 345.489 13.036 346.003 12.156C346.516 11.276 347.213 10.5867 348.093 10.088C348.973 9.58933 349.977 9.34 351.107 9.34C352.251 9.34 353.263 9.58933 354.143 10.088C355.037 10.5867 355.734 11.276 356.233 12.156C356.746 13.036 357.003 14.0553 357.003 15.214C357.003 16.358 356.746 17.3773 356.233 18.272C355.734 19.152 355.037 19.8487 354.143 20.362C353.248 20.8607 352.236 21.11 351.107 21.11ZM351.107 19.724C351.943 19.724 352.683 19.5407 353.329 19.174C353.974 18.7927 354.48 18.2647 354.847 17.59C355.228 16.9007 355.419 16.1087 355.419 15.214C355.419 14.3047 355.228 13.5127 354.847 12.838C354.48 12.1633 353.974 11.6427 353.329 11.276C352.683 10.8947 351.95 10.704 351.129 10.704C350.307 10.704 349.574 10.8947 348.929 11.276C348.283 11.6427 347.77 12.1633 347.389 12.838C347.007 13.5127 346.817 14.3047 346.817 15.214C346.817 16.1087 347.007 16.9007 347.389 17.59C347.77 18.2647 348.283 18.7927 348.929 19.174C349.574 19.5407 350.3 19.724 351.107 19.724ZM366.088 9.34C367.026 9.34 367.848 9.52333 368.552 9.89C369.27 10.242 369.828 10.7847 370.224 11.518C370.634 12.2513 370.84 13.1753 370.84 14.29V21H369.278V14.444C369.278 13.2267 368.97 12.31 368.354 11.694C367.752 11.0633 366.902 10.748 365.802 10.748C364.98 10.748 364.262 10.9167 363.646 11.254C363.044 11.5767 362.575 12.0533 362.238 12.684C361.915 13.3 361.754 14.048 361.754 14.928V21H360.192V9.45H361.688V12.618L361.446 12.024C361.812 11.188 362.399 10.5353 363.206 10.066C364.012 9.582 364.973 9.34 366.088 9.34ZM384.469 21.11C383.383 21.11 382.547 20.8167 381.961 20.23C381.374 19.6433 381.081 18.8147 381.081 17.744V6.898H382.643V17.656C382.643 18.3307 382.811 18.8513 383.149 19.218C383.501 19.5847 383.999 19.768 384.645 19.768C385.334 19.768 385.906 19.57 386.361 19.174L386.911 20.296C386.603 20.5747 386.229 20.78 385.789 20.912C385.363 21.044 384.923 21.11 384.469 21.11ZM379.013 10.748V9.45H386.163V10.748H379.013ZM395.65 9.34C396.589 9.34 397.41 9.52333 398.114 9.89C398.833 10.242 399.39 10.7847 399.786 11.518C400.197 12.2513 400.402 13.1753 400.402 14.29V21H398.84V14.444C398.84 13.2267 398.532 12.31 397.916 11.694C397.315 11.0633 396.464 10.748 395.364 10.748C394.543 10.748 393.824 10.9167 393.208 11.254C392.607 11.5767 392.138 12.0533 391.8 12.684C391.478 13.3 391.316 14.048 391.316 14.928V21H389.754V4.676H391.316V12.618L391.008 12.024C391.375 11.188 391.962 10.5353 392.768 10.066C393.575 9.582 394.536 9.34 395.65 9.34ZM411.859 21V18.448L411.793 18.03V13.762C411.793 12.7793 411.515 12.024 410.957 11.496C410.415 10.968 409.601 10.704 408.515 10.704C407.767 10.704 407.056 10.8287 406.381 11.078C405.707 11.3273 405.135 11.6573 404.665 12.068L403.961 10.902C404.548 10.4033 405.252 10.022 406.073 9.758C406.895 9.47933 407.76 9.34 408.669 9.34C410.165 9.34 411.317 9.714 412.123 10.462C412.945 11.1953 413.355 12.3173 413.355 13.828V21H411.859ZM407.877 21.11C407.012 21.11 406.257 20.9707 405.611 20.692C404.981 20.3987 404.497 20.0027 404.159 19.504C403.822 18.9907 403.653 18.404 403.653 17.744C403.653 17.1427 403.793 16.6 404.071 16.116C404.365 15.6173 404.834 15.2213 405.479 14.928C406.139 14.62 407.019 14.466 408.119 14.466H412.101V15.632H408.163C407.049 15.632 406.271 15.83 405.831 16.226C405.406 16.622 405.193 17.1133 405.193 17.7C405.193 18.36 405.45 18.888 405.963 19.284C406.477 19.68 407.195 19.878 408.119 19.878C408.999 19.878 409.755 19.68 410.385 19.284C411.031 18.8733 411.5 18.2867 411.793 17.524L412.145 18.602C411.852 19.3647 411.339 19.9733 410.605 20.428C409.887 20.8827 408.977 21.11 407.877 21.11ZM421.25 21.11C420.165 21.11 419.329 20.8167 418.742 20.23C418.155 19.6433 417.862 18.8147 417.862 17.744V6.898H419.424V17.656C419.424 18.3307 419.593 18.8513 419.93 19.218C420.282 19.5847 420.781 19.768 421.426 19.768C422.115 19.768 422.687 19.57 423.142 19.174L423.692 20.296C423.384 20.5747 423.01 20.78 422.57 20.912C422.145 21.044 421.705 21.11 421.25 21.11ZM415.794 10.748V9.45H422.944V10.748H415.794ZM432.293 21V9.45H433.855V21H432.293ZM433.085 6.898C432.763 6.898 432.491 6.788 432.271 6.568C432.051 6.348 431.941 6.084 431.941 5.776C431.941 5.468 432.051 5.21133 432.271 5.006C432.491 4.786 432.763 4.676 433.085 4.676C433.408 4.676 433.679 4.77867 433.899 4.984C434.119 5.18933 434.229 5.446 434.229 5.754C434.229 6.07667 434.119 6.348 433.899 6.568C433.694 6.788 433.423 6.898 433.085 6.898ZM441.303 21.11C440.35 21.11 439.448 20.978 438.597 20.714C437.747 20.4353 437.079 20.0907 436.595 19.68L437.299 18.448C437.769 18.8 438.37 19.108 439.103 19.372C439.837 19.6213 440.607 19.746 441.413 19.746C442.513 19.746 443.305 19.5773 443.789 19.24C444.273 18.888 444.515 18.426 444.515 17.854C444.515 17.4287 444.376 17.0987 444.097 16.864C443.833 16.6147 443.481 16.4313 443.041 16.314C442.601 16.182 442.11 16.072 441.567 15.984C441.025 15.896 440.482 15.7933 439.939 15.676C439.411 15.5587 438.927 15.39 438.487 15.17C438.047 14.9353 437.688 14.62 437.409 14.224C437.145 13.828 437.013 13.3 437.013 12.64C437.013 12.0093 437.189 11.4447 437.541 10.946C437.893 10.4473 438.407 10.0587 439.081 9.78C439.771 9.48667 440.607 9.34 441.589 9.34C442.337 9.34 443.085 9.44267 443.833 9.648C444.581 9.83867 445.197 10.0953 445.681 10.418L444.999 11.672C444.486 11.32 443.936 11.0707 443.349 10.924C442.763 10.7627 442.176 10.682 441.589 10.682C440.548 10.682 439.778 10.8653 439.279 11.232C438.795 11.584 438.553 12.0387 438.553 12.596C438.553 13.036 438.685 13.3807 438.949 13.63C439.228 13.8793 439.587 14.0773 440.027 14.224C440.482 14.356 440.973 14.466 441.501 14.554C442.044 14.642 442.579 14.752 443.107 14.884C443.65 15.0013 444.141 15.17 444.581 15.39C445.036 15.5953 445.395 15.896 445.659 16.292C445.938 16.6733 446.077 17.1793 446.077 17.81C446.077 18.4847 445.887 19.0713 445.505 19.57C445.139 20.054 444.596 20.4353 443.877 20.714C443.173 20.978 442.315 21.11 441.303 21.11ZM454.84 9.34C455.778 9.34 456.6 9.52333 457.304 9.89C458.022 10.242 458.58 10.7847 458.976 11.518C459.386 12.2513 459.592 13.1753 459.592 14.29V21H458.03V14.444C458.03 13.2267 457.722 12.31 457.106 11.694C456.504 11.0633 455.654 10.748 454.554 10.748C453.732 10.748 453.014 10.9167 452.398 11.254C451.796 11.5767 451.327 12.0533 450.99 12.684C450.667 13.3 450.506 14.048 450.506 14.928V21H448.944V9.45H450.44V12.618L450.198 12.024C450.564 11.188 451.151 10.5353 451.958 10.066C452.764 9.582 453.725 9.34 454.84 9.34ZM462.693 10.044L463.661 5.996L463.837 6.92C463.5 6.92 463.214 6.81733 462.979 6.612C462.759 6.392 462.649 6.106 462.649 5.754C462.649 5.402 462.759 5.116 462.979 4.896C463.214 4.676 463.492 4.566 463.815 4.566C464.152 4.566 464.424 4.68333 464.629 4.918C464.849 5.138 464.959 5.41667 464.959 5.754C464.959 5.87133 464.952 5.98867 464.937 6.106C464.922 6.22333 464.893 6.35533 464.849 6.502C464.82 6.634 464.768 6.80267 464.695 7.008L463.749 10.044H462.693ZM471.953 21.11C470.868 21.11 470.032 20.8167 469.445 20.23C468.858 19.6433 468.565 18.8147 468.565 17.744V6.898H470.127V17.656C470.127 18.3307 470.296 18.8513 470.633 19.218C470.985 19.5847 471.484 19.768 472.129 19.768C472.818 19.768 473.39 19.57 473.845 19.174L474.395 20.296C474.087 20.5747 473.713 20.78 473.273 20.912C472.848 21.044 472.408 21.11 471.953 21.11ZM466.497 10.748V9.45H473.647V10.748H466.497ZM55.442 48V34.998C55.442 33.9713 55.7427 33.1427 56.344 32.512C56.9453 31.8813 57.8107 31.566 58.94 31.566C59.38 31.566 59.8053 31.6247 60.216 31.742C60.6267 31.8593 60.9713 32.0427 61.25 32.292L60.722 33.458C60.502 33.2673 60.2453 33.128 59.952 33.04C59.6587 32.9373 59.3433 32.886 59.006 32.886C58.346 32.886 57.84 33.0693 57.488 33.436C57.136 33.8027 56.96 34.3453 56.96 35.064V36.824L57.004 37.55V48H55.442ZM53.374 37.748V36.45H60.524V37.748H53.374ZM67.1477 48.11C66.0331 48.11 65.0284 47.8607 64.1337 47.362C63.2537 46.8487 62.5571 46.152 62.0437 45.272C61.5304 44.3773 61.2737 43.358 61.2737 42.214C61.2737 41.0553 61.5304 40.036 62.0437 39.156C62.5571 38.276 63.2537 37.5867 64.1337 37.088C65.0137 36.5893 66.0184 36.34 67.1477 36.34C68.2917 36.34 69.3037 36.5893 70.1837 37.088C71.0784 37.5867 71.7751 38.276 72.2737 39.156C72.7871 40.036 73.0437 41.0553 73.0437 42.214C73.0437 43.358 72.7871 44.3773 72.2737 45.272C71.7751 46.152 71.0784 46.8487 70.1837 47.362C69.2891 47.8607 68.2771 48.11 67.1477 48.11ZM67.1477 46.724C67.9837 46.724 68.7244 46.5407 69.3697 46.174C70.0151 45.7927 70.5211 45.2647 70.8877 44.59C71.2691 43.9007 71.4597 43.1087 71.4597 42.214C71.4597 41.3047 71.2691 40.5127 70.8877 39.838C70.5211 39.1633 70.0151 38.6427 69.3697 38.276C68.7244 37.8947 67.9911 37.704 67.1697 37.704C66.3484 37.704 65.6151 37.8947 64.9697 38.276C64.3244 38.6427 63.8111 39.1633 63.4297 39.838C63.0484 40.5127 62.8577 41.3047 62.8577 42.214C62.8577 43.1087 63.0484 43.9007 63.4297 44.59C63.8111 45.2647 64.3244 45.7927 64.9697 46.174C65.6151 46.5407 66.3411 46.724 67.1477 46.724ZM76.2327 48V36.45H77.7287V39.596L77.5747 39.046C77.8974 38.166 78.44 37.4987 79.2027 37.044C79.9654 36.5747 80.9114 36.34 82.0407 36.34V37.858C81.982 37.858 81.9234 37.858 81.8647 37.858C81.806 37.8433 81.7474 37.836 81.6887 37.836C80.4714 37.836 79.518 38.21 78.8287 38.958C78.1394 39.6913 77.7947 40.74 77.7947 42.104V48H76.2327ZM94.4726 48.11C93.3872 48.11 92.5512 47.8167 91.9646 47.23C91.3779 46.6433 91.0846 45.8147 91.0846 44.744V33.898H92.6466V44.656C92.6466 45.3307 92.8152 45.8513 93.1526 46.218C93.5046 46.5847 94.0032 46.768 94.6486 46.768C95.3379 46.768 95.9099 46.57 96.3646 46.174L96.9146 47.296C96.6066 47.5747 96.2326 47.78 95.7926 47.912C95.3672 48.044 94.9272 48.11 94.4726 48.11ZM89.0166 37.748V36.45H96.1666V37.748H89.0166ZM102.513 48L97.3872 36.45H99.0152L103.723 47.164H102.953L107.727 36.45H109.267L104.119 48H102.513ZM120.327 48.11C119.374 48.11 118.472 47.978 117.621 47.714C116.77 47.4353 116.103 47.0907 115.619 46.68L116.323 45.448C116.792 45.8 117.394 46.108 118.127 46.372C118.86 46.6213 119.63 46.746 120.437 46.746C121.537 46.746 122.329 46.5773 122.813 46.24C123.297 45.888 123.539 45.426 123.539 44.854C123.539 44.4287 123.4 44.0987 123.121 43.864C122.857 43.6147 122.505 43.4313 122.065 43.314C121.625 43.182 121.134 43.072 120.591 42.984C120.048 42.896 119.506 42.7933 118.963 42.676C118.435 42.5587 117.951 42.39 117.511 42.17C117.071 41.9353 116.712 41.62 116.433 41.224C116.169 40.828 116.037 40.3 116.037 39.64C116.037 39.0093 116.213 38.4447 116.565 37.946C116.917 37.4473 117.43 37.0587 118.105 36.78C118.794 36.4867 119.63 36.34 120.613 36.34C121.361 36.34 122.109 36.4427 122.857 36.648C123.605 36.8387 124.221 37.0953 124.705 37.418L124.023 38.672C123.51 38.32 122.96 38.0707 122.373 37.924C121.786 37.7627 121.2 37.682 120.613 37.682C119.572 37.682 118.802 37.8653 118.303 38.232C117.819 38.584 117.577 39.0387 117.577 39.596C117.577 40.036 117.709 40.3807 117.973 40.63C118.252 40.8793 118.611 41.0773 119.051 41.224C119.506 41.356 119.997 41.466 120.525 41.554C121.068 41.642 121.603 41.752 122.131 41.884C122.674 42.0013 123.165 42.17 123.605 42.39C124.06 42.5953 124.419 42.896 124.683 43.292C124.962 43.6733 125.101 44.1793 125.101 44.81C125.101 45.4847 124.91 46.0713 124.529 46.57C124.162 47.054 123.62 47.4353 122.901 47.714C122.197 47.978 121.339 48.11 120.327 48.11ZM131.619 48.11C130.534 48.11 129.698 47.8167 129.111 47.23C128.524 46.6433 128.231 45.8147 128.231 44.744V33.898H129.793V44.656C129.793 45.3307 129.962 45.8513 130.299 46.218C130.651 46.5847 131.15 46.768 131.795 46.768C132.484 46.768 133.056 46.57 133.511 46.174L134.061 47.296C133.753 47.5747 133.379 47.78 132.939 47.912C132.514 48.044 132.074 48.11 131.619 48.11ZM126.163 37.748V36.45H133.313V37.748H126.163ZM136.905 48V36.45H138.401V39.596L138.247 39.046C138.569 38.166 139.112 37.4987 139.875 37.044C140.637 36.5747 141.583 36.34 142.713 36.34V37.858C142.654 37.858 142.595 37.858 142.537 37.858C142.478 37.8433 142.419 37.836 142.361 37.836C141.143 37.836 140.19 38.21 139.501 38.958C138.811 39.6913 138.467 40.74 138.467 42.104V48H136.905ZM150.361 48.11C149.159 48.11 148.103 47.8607 147.193 47.362C146.284 46.8487 145.573 46.152 145.059 45.272C144.546 44.3773 144.289 43.358 144.289 42.214C144.289 41.07 144.531 40.058 145.015 39.178C145.514 38.298 146.189 37.6087 147.039 37.11C147.905 36.5967 148.873 36.34 149.943 36.34C151.029 36.34 151.989 36.5893 152.825 37.088C153.676 37.572 154.343 38.2613 154.827 39.156C155.311 40.036 155.553 41.0553 155.553 42.214C155.553 42.2873 155.546 42.368 155.531 42.456C155.531 42.5293 155.531 42.61 155.531 42.698H145.477V41.532H154.695L154.079 41.994C154.079 41.158 153.896 40.4173 153.529 39.772C153.177 39.112 152.693 38.5987 152.077 38.232C151.461 37.8653 150.75 37.682 149.943 37.682C149.151 37.682 148.44 37.8653 147.809 38.232C147.179 38.5987 146.687 39.112 146.335 39.772C145.983 40.432 145.807 41.1873 145.807 42.038V42.28C145.807 43.16 145.998 43.9373 146.379 44.612C146.775 45.272 147.318 45.7927 148.007 46.174C148.711 46.5407 149.511 46.724 150.405 46.724C151.109 46.724 151.762 46.5993 152.363 46.35C152.979 46.1007 153.507 45.7193 153.947 45.206L154.827 46.218C154.314 46.834 153.669 47.3033 152.891 47.626C152.129 47.9487 151.285 48.11 150.361 48.11ZM165.648 48V45.448L165.582 45.03V40.762C165.582 39.7793 165.304 39.024 164.746 38.496C164.204 37.968 163.39 37.704 162.304 37.704C161.556 37.704 160.845 37.8287 160.17 38.078C159.496 38.3273 158.924 38.6573 158.454 39.068L157.75 37.902C158.337 37.4033 159.041 37.022 159.862 36.758C160.684 36.4793 161.549 36.34 162.458 36.34C163.954 36.34 165.106 36.714 165.912 37.462C166.734 38.1953 167.144 39.3173 167.144 40.828V48H165.648ZM161.666 48.11C160.801 48.11 160.046 47.9707 159.4 47.692C158.77 47.3987 158.286 47.0027 157.948 46.504C157.611 45.9907 157.442 45.404 157.442 44.744C157.442 44.1427 157.582 43.6 157.86 43.116C158.154 42.6173 158.623 42.2213 159.268 41.928C159.928 41.62 160.808 41.466 161.908 41.466H165.89V42.632H161.952C160.838 42.632 160.06 42.83 159.62 43.226C159.195 43.622 158.982 44.1133 158.982 44.7C158.982 45.36 159.239 45.888 159.752 46.284C160.266 46.68 160.984 46.878 161.908 46.878C162.788 46.878 163.544 46.68 164.174 46.284C164.82 45.8733 165.289 45.2867 165.582 44.524L165.934 45.602C165.641 46.3647 165.128 46.9733 164.394 47.428C163.676 47.8827 162.766 48.11 161.666 48.11ZM185.819 36.34C186.758 36.34 187.572 36.5233 188.261 36.89C188.965 37.242 189.508 37.7847 189.889 38.518C190.285 39.2513 190.483 40.1753 190.483 41.29V48H188.921V41.444C188.921 40.2267 188.628 39.31 188.041 38.694C187.469 38.0633 186.655 37.748 185.599 37.748C184.807 37.748 184.118 37.9167 183.531 38.254C182.959 38.5767 182.512 39.0533 182.189 39.684C181.881 40.3 181.727 41.048 181.727 41.928V48H180.165V41.444C180.165 40.2267 179.872 39.31 179.285 38.694C178.698 38.0633 177.877 37.748 176.821 37.748C176.044 37.748 175.362 37.9167 174.775 38.254C174.188 38.5767 173.734 39.0533 173.411 39.684C173.103 40.3 172.949 41.048 172.949 41.928V48H171.387V36.45H172.883V39.574L172.641 39.024C172.993 38.188 173.558 37.5353 174.335 37.066C175.127 36.582 176.058 36.34 177.129 36.34C178.258 36.34 179.219 36.626 180.011 37.198C180.803 37.7553 181.316 38.5987 181.551 39.728L180.935 39.486C181.272 38.5473 181.866 37.792 182.717 37.22C183.582 36.6333 184.616 36.34 185.819 36.34ZM194.719 48V36.45H196.281V48H194.719ZM195.511 33.898C195.188 33.898 194.917 33.788 194.697 33.568C194.477 33.348 194.367 33.084 194.367 32.776C194.367 32.468 194.477 32.2113 194.697 32.006C194.917 31.786 195.188 31.676 195.511 31.676C195.834 31.676 196.105 31.7787 196.325 31.984C196.545 32.1893 196.655 32.446 196.655 32.754C196.655 33.0767 196.545 33.348 196.325 33.568C196.12 33.788 195.848 33.898 195.511 33.898ZM206.523 36.34C207.462 36.34 208.283 36.5233 208.987 36.89C209.706 37.242 210.263 37.7847 210.659 38.518C211.07 39.2513 211.275 40.1753 211.275 41.29V48H209.713V41.444C209.713 40.2267 209.405 39.31 208.789 38.694C208.188 38.0633 207.337 37.748 206.237 37.748C205.416 37.748 204.697 37.9167 204.081 38.254C203.48 38.5767 203.011 39.0533 202.673 39.684C202.351 40.3 202.189 41.048 202.189 41.928V48H200.627V36.45H202.123V39.618L201.881 39.024C202.248 38.188 202.835 37.5353 203.641 37.066C204.448 36.582 205.409 36.34 206.523 36.34ZM220.422 52.378C219.366 52.378 218.354 52.224 217.386 51.916C216.418 51.608 215.634 51.168 215.032 50.596L215.824 49.408C216.367 49.892 217.034 50.2733 217.826 50.552C218.633 50.8453 219.484 50.992 220.378 50.992C221.845 50.992 222.923 50.6473 223.612 49.958C224.302 49.2833 224.646 48.2273 224.646 46.79V43.908L224.866 41.928L224.712 39.948V36.45H226.208V46.592C226.208 48.5867 225.717 50.046 224.734 50.97C223.766 51.9087 222.329 52.378 220.422 52.378ZM220.136 47.56C219.036 47.56 218.046 47.3253 217.166 46.856C216.286 46.372 215.59 45.7047 215.076 44.854C214.578 44.0033 214.328 43.028 214.328 41.928C214.328 40.828 214.578 39.86 215.076 39.024C215.59 38.1733 216.286 37.5133 217.166 37.044C218.046 36.5747 219.036 36.34 220.136 36.34C221.163 36.34 222.087 36.5527 222.908 36.978C223.73 37.4033 224.382 38.034 224.866 38.87C225.35 39.706 225.592 40.7253 225.592 41.928C225.592 43.1307 225.35 44.15 224.866 44.986C224.382 45.822 223.73 46.46 222.908 46.9C222.087 47.34 221.163 47.56 220.136 47.56ZM220.29 46.174C221.141 46.174 221.896 45.998 222.556 45.646C223.216 45.2793 223.737 44.7807 224.118 44.15C224.5 43.5047 224.69 42.764 224.69 41.928C224.69 41.092 224.5 40.3587 224.118 39.728C223.737 39.0973 223.216 38.606 222.556 38.254C221.896 37.8873 221.141 37.704 220.29 37.704C219.454 37.704 218.699 37.8873 218.024 38.254C217.364 38.606 216.844 39.0973 216.462 39.728C216.096 40.3587 215.912 41.092 215.912 41.928C215.912 42.764 216.096 43.5047 216.462 44.15C216.844 44.7807 217.364 45.2793 218.024 45.646C218.699 45.998 219.454 46.174 220.29 46.174ZM229.609 51.212L230.577 47.142L230.753 48.088C230.416 48.088 230.13 47.978 229.895 47.758C229.675 47.538 229.565 47.252 229.565 46.9C229.565 46.548 229.675 46.262 229.895 46.042C230.13 45.822 230.408 45.712 230.731 45.712C231.068 45.712 231.34 45.8293 231.545 46.064C231.765 46.2987 231.875 46.5773 231.875 46.9C231.875 47.0173 231.868 47.1347 231.853 47.252C231.838 47.3693 231.809 47.5013 231.765 47.648C231.721 47.7947 231.662 47.9707 231.589 48.176L230.665 51.212H229.609ZM249.649 36.34C250.588 36.34 251.402 36.5233 252.091 36.89C252.795 37.242 253.338 37.7847 253.719 38.518C254.115 39.2513 254.313 40.1753 254.313 41.29V48H252.751V41.444C252.751 40.2267 252.458 39.31 251.871 38.694C251.299 38.0633 250.485 37.748 249.429 37.748C248.637 37.748 247.948 37.9167 247.361 38.254C246.789 38.5767 246.342 39.0533 246.019 39.684C245.711 40.3 245.557 41.048 245.557 41.928V48H243.995V41.444C243.995 40.2267 243.702 39.31 243.115 38.694C242.528 38.0633 241.707 37.748 240.651 37.748C239.874 37.748 239.192 37.9167 238.605 38.254C238.018 38.5767 237.564 39.0533 237.241 39.684C236.933 40.3 236.779 41.048 236.779 41.928V48H235.217V36.45H236.713V39.574L236.471 39.024C236.823 38.188 237.388 37.5353 238.165 37.066C238.957 36.582 239.888 36.34 240.959 36.34C242.088 36.34 243.049 36.626 243.841 37.198C244.633 37.7553 245.146 38.5987 245.381 39.728L244.765 39.486C245.102 38.5473 245.696 37.792 246.547 37.22C247.412 36.6333 248.446 36.34 249.649 36.34ZM263.323 48.11C262.34 48.11 261.482 47.9267 260.749 47.56C260.016 47.1933 259.444 46.6433 259.033 45.91C258.637 45.1767 258.439 44.26 258.439 43.16V36.45H260.001V42.984C260.001 44.216 260.302 45.1473 260.903 45.778C261.519 46.394 262.377 46.702 263.477 46.702C264.284 46.702 264.98 46.5407 265.567 46.218C266.168 45.8807 266.623 45.3967 266.931 44.766C267.254 44.1353 267.415 43.38 267.415 42.5V36.45H268.977V48H267.481V44.832L267.723 45.404C267.356 46.2547 266.784 46.922 266.007 47.406C265.244 47.8753 264.35 48.11 263.323 48.11ZM276.432 48.11C275.479 48.11 274.577 47.978 273.726 47.714C272.876 47.4353 272.208 47.0907 271.724 46.68L272.428 45.448C272.898 45.8 273.499 46.108 274.232 46.372C274.966 46.6213 275.736 46.746 276.542 46.746C277.642 46.746 278.434 46.5773 278.918 46.24C279.402 45.888 279.644 45.426 279.644 44.854C279.644 44.4287 279.505 44.0987 279.226 43.864C278.962 43.6147 278.61 43.4313 278.17 43.314C277.73 43.182 277.239 43.072 276.696 42.984C276.154 42.896 275.611 42.7933 275.068 42.676C274.54 42.5587 274.056 42.39 273.616 42.17C273.176 41.9353 272.817 41.62 272.538 41.224C272.274 40.828 272.142 40.3 272.142 39.64C272.142 39.0093 272.318 38.4447 272.67 37.946C273.022 37.4473 273.536 37.0587 274.21 36.78C274.9 36.4867 275.736 36.34 276.718 36.34C277.466 36.34 278.214 36.4427 278.962 36.648C279.71 36.8387 280.326 37.0953 280.81 37.418L280.128 38.672C279.615 38.32 279.065 38.0707 278.478 37.924C277.892 37.7627 277.305 37.682 276.718 37.682C275.677 37.682 274.907 37.8653 274.408 38.232C273.924 38.584 273.682 39.0387 273.682 39.596C273.682 40.036 273.814 40.3807 274.078 40.63C274.357 40.8793 274.716 41.0773 275.156 41.224C275.611 41.356 276.102 41.466 276.63 41.554C277.173 41.642 277.708 41.752 278.236 41.884C278.779 42.0013 279.27 42.17 279.71 42.39C280.165 42.5953 280.524 42.896 280.788 43.292C281.067 43.6733 281.206 44.1793 281.206 44.81C281.206 45.4847 281.016 46.0713 280.634 46.57C280.268 47.054 279.725 47.4353 279.006 47.714C278.302 47.978 277.444 48.11 276.432 48.11ZM284.073 48V36.45H285.635V48H284.073ZM284.865 33.898C284.542 33.898 284.271 33.788 284.051 33.568C283.831 33.348 283.721 33.084 283.721 32.776C283.721 32.468 283.831 32.2113 284.051 32.006C284.271 31.786 284.542 31.676 284.865 31.676C285.187 31.676 285.459 31.7787 285.679 31.984C285.899 32.1893 286.009 32.446 286.009 32.754C286.009 33.0767 285.899 33.348 285.679 33.568C285.473 33.788 285.202 33.898 284.865 33.898ZM294.777 48.11C293.633 48.11 292.606 47.8607 291.697 47.362C290.802 46.8487 290.098 46.152 289.585 45.272C289.071 44.3773 288.815 43.358 288.815 42.214C288.815 41.0553 289.071 40.036 289.585 39.156C290.098 38.276 290.802 37.5867 291.697 37.088C292.606 36.5893 293.633 36.34 294.777 36.34C295.759 36.34 296.647 36.5307 297.439 36.912C298.231 37.2933 298.854 37.8653 299.309 38.628L298.143 39.42C297.747 38.8333 297.255 38.4007 296.669 38.122C296.082 37.8433 295.444 37.704 294.755 37.704C293.933 37.704 293.193 37.8947 292.533 38.276C291.873 38.6427 291.352 39.1633 290.971 39.838C290.589 40.5127 290.399 41.3047 290.399 42.214C290.399 43.1233 290.589 43.9153 290.971 44.59C291.352 45.2647 291.873 45.7927 292.533 46.174C293.193 46.5407 293.933 46.724 294.755 46.724C295.444 46.724 296.082 46.5847 296.669 46.306C297.255 46.0273 297.747 45.602 298.143 45.03L299.309 45.822C298.854 46.57 298.231 47.142 297.439 47.538C296.647 47.9193 295.759 48.11 294.777 48.11ZM301.861 51.212L302.829 47.142L303.005 48.088C302.668 48.088 302.382 47.978 302.147 47.758C301.927 47.538 301.817 47.252 301.817 46.9C301.817 46.548 301.927 46.262 302.147 46.042C302.382 45.822 302.66 45.712 302.983 45.712C303.32 45.712 303.592 45.8293 303.797 46.064C304.017 46.2987 304.127 46.5773 304.127 46.9C304.127 47.0173 304.12 47.1347 304.105 47.252C304.09 47.3693 304.061 47.5013 304.017 47.648C303.973 47.7947 303.914 47.9707 303.841 48.176L302.917 51.212H301.861ZM317.935 48.11C316.82 48.11 315.815 47.8607 314.921 47.362C314.041 46.8487 313.344 46.152 312.831 45.272C312.317 44.3773 312.061 43.358 312.061 42.214C312.061 41.0553 312.317 40.036 312.831 39.156C313.344 38.276 314.041 37.5867 314.921 37.088C315.801 36.5893 316.805 36.34 317.935 36.34C319.079 36.34 320.091 36.5893 320.971 37.088C321.865 37.5867 322.562 38.276 323.061 39.156C323.574 40.036 323.831 41.0553 323.831 42.214C323.831 43.358 323.574 44.3773 323.061 45.272C322.562 46.152 321.865 46.8487 320.971 47.362C320.076 47.8607 319.064 48.11 317.935 48.11ZM317.935 46.724C318.771 46.724 319.511 46.5407 320.157 46.174C320.802 45.7927 321.308 45.2647 321.675 44.59C322.056 43.9007 322.247 43.1087 322.247 42.214C322.247 41.3047 322.056 40.5127 321.675 39.838C321.308 39.1633 320.802 38.6427 320.157 38.276C319.511 37.8947 318.778 37.704 317.957 37.704C317.135 37.704 316.402 37.8947 315.757 38.276C315.111 38.6427 314.598 39.1633 314.217 39.838C313.835 40.5127 313.645 41.3047 313.645 42.214C313.645 43.1087 313.835 43.9007 314.217 44.59C314.598 45.2647 315.111 45.7927 315.757 46.174C316.402 46.5407 317.128 46.724 317.935 46.724ZM327.02 48V36.45H328.516V39.596L328.362 39.046C328.684 38.166 329.227 37.4987 329.99 37.044C330.752 36.5747 331.698 36.34 332.828 36.34V37.858C332.769 37.858 332.71 37.858 332.652 37.858C332.593 37.8433 332.534 37.836 332.476 37.836C331.258 37.836 330.305 38.21 329.616 38.958C328.926 39.6913 328.582 40.74 328.582 42.104V48H327.02ZM346.206 48.11C345.106 48.11 344.116 47.8607 343.236 47.362C342.37 46.8633 341.688 46.174 341.19 45.294C340.691 44.3993 340.442 43.3727 340.442 42.214C340.442 41.0407 340.691 40.014 341.19 39.134C341.688 38.254 342.37 37.572 343.236 37.088C344.116 36.5893 345.106 36.34 346.206 36.34C347.218 36.34 348.12 36.5673 348.912 37.022C349.718 37.4767 350.356 38.144 350.826 39.024C351.31 39.8893 351.552 40.9527 351.552 42.214C351.552 43.4607 351.317 44.524 350.848 45.404C350.378 46.284 349.74 46.9587 348.934 47.428C348.142 47.8827 347.232 48.11 346.206 48.11ZM346.316 46.724C347.137 46.724 347.87 46.5407 348.516 46.174C349.176 45.7927 349.689 45.2647 350.056 44.59C350.437 43.9007 350.628 43.1087 350.628 42.214C350.628 41.3047 350.437 40.5127 350.056 39.838C349.689 39.1633 349.176 38.6427 348.516 38.276C347.87 37.8947 347.137 37.704 346.316 37.704C345.509 37.704 344.783 37.8947 344.138 38.276C343.492 38.6427 342.979 39.1633 342.598 39.838C342.216 40.5127 342.026 41.3047 342.026 42.214C342.026 43.1087 342.216 43.9007 342.598 44.59C342.979 45.2647 343.492 45.7927 344.138 46.174C344.783 46.5407 345.509 46.724 346.316 46.724ZM350.672 48V44.524L350.826 42.192L350.606 39.86V31.676H352.168V48H350.672ZM361.424 48.11C360.221 48.11 359.165 47.8607 358.256 47.362C357.347 46.8487 356.635 46.152 356.122 45.272C355.609 44.3773 355.352 43.358 355.352 42.214C355.352 41.07 355.594 40.058 356.078 39.178C356.577 38.298 357.251 37.6087 358.102 37.11C358.967 36.5967 359.935 36.34 361.006 36.34C362.091 36.34 363.052 36.5893 363.888 37.088C364.739 37.572 365.406 38.2613 365.89 39.156C366.374 40.036 366.616 41.0553 366.616 42.214C366.616 42.2873 366.609 42.368 366.594 42.456C366.594 42.5293 366.594 42.61 366.594 42.698H356.54V41.532H365.758L365.142 41.994C365.142 41.158 364.959 40.4173 364.592 39.772C364.24 39.112 363.756 38.5987 363.14 38.232C362.524 37.8653 361.813 37.682 361.006 37.682C360.214 37.682 359.503 37.8653 358.872 38.232C358.241 38.5987 357.75 39.112 357.398 39.772C357.046 40.432 356.87 41.1873 356.87 42.038V42.28C356.87 43.16 357.061 43.9373 357.442 44.612C357.838 45.272 358.381 45.7927 359.07 46.174C359.774 46.5407 360.573 46.724 361.468 46.724C362.172 46.724 362.825 46.5993 363.426 46.35C364.042 46.1007 364.57 45.7193 365.01 45.206L365.89 46.218C365.377 46.834 364.731 47.3033 363.954 47.626C363.191 47.9487 362.348 48.11 361.424 48.11ZM369.795 48V31.676H371.357V48H369.795ZM375.703 48V36.45H377.265V48H375.703ZM376.495 33.898C376.173 33.898 375.901 33.788 375.681 33.568C375.461 33.348 375.351 33.084 375.351 32.776C375.351 32.468 375.461 32.2113 375.681 32.006C375.901 31.786 376.173 31.676 376.495 31.676C376.818 31.676 377.089 31.7787 377.309 31.984C377.529 32.1893 377.639 32.446 377.639 32.754C377.639 33.0767 377.529 33.348 377.309 33.568C377.104 33.788 376.833 33.898 376.495 33.898ZM384.582 48L379.456 36.45H381.084L385.792 47.164H385.022L389.796 36.45H391.336L386.188 48H384.582ZM398.119 48.11C396.916 48.11 395.86 47.8607 394.951 47.362C394.042 46.8487 393.33 46.152 392.817 45.272C392.304 44.3773 392.047 43.358 392.047 42.214C392.047 41.07 392.289 40.058 392.773 39.178C393.272 38.298 393.946 37.6087 394.797 37.11C395.662 36.5967 396.63 36.34 397.701 36.34C398.786 36.34 399.747 36.5893 400.583 37.088C401.434 37.572 402.101 38.2613 402.585 39.156C403.069 40.036 403.311 41.0553 403.311 42.214C403.311 42.2873 403.304 42.368 403.289 42.456C403.289 42.5293 403.289 42.61 403.289 42.698H393.235V41.532H402.453L401.837 41.994C401.837 41.158 401.654 40.4173 401.287 39.772C400.935 39.112 400.451 38.5987 399.835 38.232C399.219 37.8653 398.508 37.682 397.701 37.682C396.909 37.682 396.198 37.8653 395.567 38.232C394.936 38.5987 394.445 39.112 394.093 39.772C393.741 40.432 393.565 41.1873 393.565 42.038V42.28C393.565 43.16 393.756 43.9373 394.137 44.612C394.533 45.272 395.076 45.7927 395.765 46.174C396.469 46.5407 397.268 46.724 398.163 46.724C398.867 46.724 399.52 46.5993 400.121 46.35C400.737 46.1007 401.265 45.7193 401.705 45.206L402.585 46.218C402.072 46.834 401.426 47.3033 400.649 47.626C399.886 47.9487 399.043 48.11 398.119 48.11ZM406.491 48V36.45H407.987V39.596L407.833 39.046C408.155 38.166 408.698 37.4987 409.461 37.044C410.223 36.5747 411.169 36.34 412.299 36.34V37.858C412.24 37.858 412.181 37.858 412.123 37.858C412.064 37.8433 412.005 37.836 411.947 37.836C410.729 37.836 409.776 38.21 409.087 38.958C408.397 39.6913 408.053 40.74 408.053 42.104V48H406.491ZM415.731 52.378C415.188 52.378 414.668 52.29 414.169 52.114C413.685 51.938 413.267 51.674 412.915 51.322L413.641 50.156C413.934 50.4347 414.25 50.6473 414.587 50.794C414.939 50.9553 415.328 51.036 415.753 51.036C416.266 51.036 416.706 50.8893 417.073 50.596C417.454 50.3173 417.814 49.8187 418.151 49.1L418.899 47.406L419.075 47.164L423.827 36.45H425.367L419.581 49.386C419.258 50.134 418.899 50.728 418.503 51.168C418.122 51.608 417.704 51.916 417.249 52.092C416.794 52.2827 416.288 52.378 415.731 52.378ZM418.811 48.33L413.487 36.45H415.115L419.823 47.054L418.811 48.33ZM431.268 43.38C431.268 42.764 431.363 42.236 431.554 41.796C431.759 41.356 432.008 40.9673 432.302 40.63C432.61 40.2927 432.932 39.9773 433.27 39.684C433.622 39.3907 433.952 39.0973 434.26 38.804C434.568 38.496 434.817 38.166 435.008 37.814C435.198 37.4473 435.294 37.022 435.294 36.538C435.294 35.746 434.986 35.1007 434.37 34.602C433.754 34.1033 432.881 33.854 431.752 33.854C430.813 33.854 429.999 34.008 429.31 34.316C428.62 34.6093 428.034 35.0493 427.55 35.636L426.384 34.756C426.97 34.0227 427.726 33.458 428.65 33.062C429.574 32.666 430.644 32.468 431.862 32.468C432.888 32.468 433.776 32.622 434.524 32.93C435.286 33.238 435.873 33.678 436.284 34.25C436.709 34.822 436.922 35.504 436.922 36.296C436.922 36.9267 436.819 37.4693 436.614 37.924C436.423 38.364 436.174 38.76 435.866 39.112C435.572 39.4493 435.25 39.772 434.898 40.08C434.56 40.3733 434.238 40.674 433.93 40.982C433.622 41.29 433.372 41.6347 433.182 42.016C432.991 42.3973 432.896 42.852 432.896 43.38H431.268ZM432.082 48.11C431.774 48.11 431.502 48 431.268 47.78C431.048 47.5453 430.938 47.274 430.938 46.966C430.938 46.6433 431.048 46.3793 431.268 46.174C431.502 45.954 431.774 45.844 432.082 45.844C432.419 45.844 432.698 45.954 432.918 46.174C433.138 46.3793 433.248 46.6433 433.248 46.966C433.248 47.274 433.138 47.5453 432.918 47.78C432.698 48 432.419 48.11 432.082 48.11Z" fill="black"/>
<path d="M249.969 111C273.274 110.995 296.259 116.421 317.102 126.846C337.945 137.271 356.071 152.409 370.045 171.06C384.018 189.711 393.454 211.361 397.603 234.293C401.752 257.225 400.501 280.809 393.949 303.174C387.397 325.538 375.724 346.068 359.855 363.136C343.987 380.204 324.36 393.339 302.531 401.501C280.703 409.662 257.273 412.625 234.099 410.155C210.926 407.684 188.647 399.849 169.029 387.269L250 261L249.969 111Z" fill="#1F78B4"/>
<path d="M168.903 387.188C141.654 369.676 120.806 343.813 109.476 313.468C98.1455 283.123 96.9427 249.925 106.047 218.84C115.151 187.754 134.073 160.451 159.983 141.013C185.894 121.574 217.4 111.045 249.792 111L250 261L168.903 387.188Z" fill="#FF7F00"/>
<path d="M164.477 433.305L167.516 427.578H168.945L165.141 434.57V439H163.812V434.633L160 427.578H161.453L164.477 433.305ZM173.265 430.281C173.994 430.281 174.619 430.443 175.14 430.766C175.661 431.089 176.059 431.542 176.335 432.125C176.612 432.703 176.75 433.38 176.75 434.156V434.961H170.835C170.851 435.966 171.101 436.732 171.585 437.258C172.07 437.784 172.752 438.047 173.632 438.047C174.174 438.047 174.653 437.997 175.07 437.898C175.487 437.799 175.919 437.654 176.367 437.461V438.602C175.934 438.794 175.505 438.935 175.078 439.023C174.656 439.112 174.156 439.156 173.578 439.156C172.755 439.156 172.036 438.99 171.421 438.656C170.812 438.318 170.338 437.823 170 437.172C169.661 436.521 169.492 435.724 169.492 434.781C169.492 433.859 169.645 433.062 169.953 432.391C170.265 431.714 170.703 431.193 171.265 430.828C171.833 430.464 172.5 430.281 173.265 430.281ZM173.25 431.344C172.557 431.344 172.005 431.57 171.593 432.023C171.182 432.477 170.937 433.109 170.859 433.922H175.39C175.385 433.411 175.304 432.964 175.148 432.578C174.997 432.188 174.765 431.885 174.453 431.672C174.14 431.453 173.739 431.344 173.25 431.344ZM184.14 436.656C184.14 437.203 184.002 437.664 183.726 438.039C183.455 438.409 183.064 438.688 182.554 438.875C182.049 439.062 181.444 439.156 180.741 439.156C180.142 439.156 179.624 439.109 179.187 439.016C178.749 438.922 178.366 438.789 178.038 438.617V437.422C178.387 437.594 178.804 437.75 179.288 437.891C179.773 438.031 180.267 438.102 180.773 438.102C181.512 438.102 182.049 437.982 182.382 437.742C182.715 437.503 182.882 437.177 182.882 436.766C182.882 436.531 182.814 436.326 182.679 436.148C182.549 435.966 182.327 435.792 182.015 435.625C181.702 435.453 181.27 435.266 180.718 435.062C180.171 434.854 179.697 434.648 179.296 434.445C178.9 434.237 178.593 433.984 178.374 433.688C178.161 433.391 178.054 433.005 178.054 432.531C178.054 431.807 178.345 431.253 178.929 430.867C179.517 430.477 180.288 430.281 181.241 430.281C181.757 430.281 182.239 430.333 182.687 430.438C183.14 430.536 183.562 430.672 183.952 430.844L183.515 431.883C183.161 431.732 182.783 431.604 182.382 431.5C181.981 431.396 181.572 431.344 181.155 431.344C180.556 431.344 180.095 431.443 179.773 431.641C179.455 431.839 179.296 432.109 179.296 432.453C179.296 432.719 179.369 432.938 179.515 433.109C179.666 433.281 179.905 433.443 180.233 433.594C180.562 433.745 180.994 433.922 181.53 434.125C182.067 434.323 182.53 434.529 182.921 434.742C183.312 434.951 183.611 435.206 183.819 435.508C184.033 435.805 184.14 436.188 184.14 436.656Z" fill="#1E1E1E"/>
<path d="M170.492 481H168.961L162.734 471.406H162.672C162.688 471.661 162.706 471.953 162.727 472.281C162.747 472.604 162.763 472.951 162.773 473.32C162.789 473.685 162.797 474.057 162.797 474.438V481H161.562V469.578H163.086L169.289 479.141H169.344C169.333 478.958 169.32 478.701 169.305 478.367C169.289 478.029 169.273 477.667 169.258 477.281C169.247 476.891 169.242 476.529 169.242 476.195V469.578H170.492V481ZM180.445 476.703C180.445 477.406 180.354 478.034 180.171 478.586C179.989 479.138 179.726 479.604 179.382 479.984C179.039 480.365 178.622 480.656 178.132 480.859C177.648 481.057 177.099 481.156 176.484 481.156C175.911 481.156 175.385 481.057 174.906 480.859C174.432 480.656 174.02 480.365 173.671 479.984C173.328 479.604 173.059 479.138 172.867 478.586C172.679 478.034 172.585 477.406 172.585 476.703C172.585 475.766 172.744 474.969 173.062 474.312C173.38 473.651 173.833 473.148 174.421 472.805C175.015 472.456 175.721 472.281 176.539 472.281C177.32 472.281 178.002 472.456 178.585 472.805C179.174 473.154 179.63 473.659 179.953 474.32C180.281 474.977 180.445 475.771 180.445 476.703ZM173.929 476.703C173.929 477.391 174.02 477.987 174.203 478.492C174.385 478.997 174.666 479.388 175.046 479.664C175.427 479.94 175.916 480.078 176.515 480.078C177.109 480.078 177.596 479.94 177.976 479.664C178.362 479.388 178.645 478.997 178.828 478.492C179.01 477.987 179.101 477.391 179.101 476.703C179.101 476.021 179.01 475.432 178.828 474.938C178.645 474.438 178.364 474.052 177.984 473.781C177.604 473.51 177.112 473.375 176.507 473.375C175.617 473.375 174.963 473.669 174.546 474.258C174.135 474.846 173.929 475.661 173.929 476.703Z" fill="#1E1E1E"/>
<rect x="125" y="421" width="24" height="24" fill="#1F78B4"/>
<rect x="125" y="463" width="24" height="24" fill="#FF7F00"/>
<path d="M181.656 229.168C181.656 230.184 181.582 231.18 181.434 232.156C181.293 233.133 181.043 234.047 180.684 234.898C180.332 235.75 179.844 236.504 179.219 237.16C178.602 237.809 177.82 238.316 176.875 238.684C175.93 239.051 174.789 239.234 173.453 239.234C173.117 239.234 172.727 239.215 172.281 239.176C171.844 239.145 171.484 239.098 171.203 239.035V236.738C171.5 236.824 171.832 236.895 172.199 236.949C172.574 236.996 172.945 237.02 173.312 237.02C174.758 237.02 175.883 236.75 176.688 236.211C177.5 235.672 178.074 234.93 178.41 233.984C178.754 233.039 178.949 231.965 178.996 230.762H178.855C178.629 231.137 178.344 231.48 178 231.793C177.656 232.098 177.23 232.344 176.723 232.531C176.215 232.711 175.598 232.801 174.871 232.801C173.887 232.801 173.027 232.594 172.293 232.18C171.566 231.766 171 231.164 170.594 230.375C170.195 229.578 169.996 228.621 169.996 227.504C169.996 226.293 170.227 225.25 170.688 224.375C171.148 223.5 171.801 222.828 172.645 222.359C173.488 221.883 174.48 221.645 175.621 221.645C176.48 221.645 177.273 221.801 178 222.113C178.734 222.418 179.375 222.887 179.922 223.52C180.469 224.145 180.895 224.93 181.199 225.875C181.504 226.812 181.656 227.91 181.656 229.168ZM175.656 223.918C174.789 223.918 174.082 224.211 173.535 224.797C172.988 225.375 172.715 226.266 172.715 227.469C172.715 228.445 172.949 229.219 173.418 229.789C173.887 230.359 174.605 230.645 175.574 230.645C176.246 230.645 176.824 230.508 177.309 230.234C177.801 229.953 178.18 229.598 178.445 229.168C178.719 228.738 178.855 228.301 178.855 227.855C178.855 227.395 178.789 226.934 178.656 226.473C178.531 226.012 178.336 225.59 178.07 225.207C177.805 224.824 177.469 224.516 177.062 224.281C176.664 224.039 176.195 223.918 175.656 223.918Z" fill="white"/>
<path d="M316.176 299H313.41V287.973C313.41 287.605 313.414 287.238 313.422 286.871C313.43 286.504 313.438 286.145 313.445 285.793C313.461 285.441 313.48 285.105 313.504 284.785C313.34 284.965 313.137 285.16 312.895 285.371C312.66 285.582 312.41 285.801 312.145 286.027L310.176 287.598L308.793 285.852L313.879 281.867H316.176V299ZM332.23 285.781C332.23 286.555 332.074 287.227 331.761 287.797C331.449 288.367 331.019 288.836 330.472 289.203C329.933 289.562 329.308 289.82 328.597 289.977V290.059C329.964 290.23 330.995 290.66 331.691 291.348C332.394 292.035 332.745 292.945 332.745 294.078C332.745 295.07 332.507 295.957 332.031 296.738C331.554 297.512 330.824 298.121 329.839 298.566C328.855 299.012 327.589 299.234 326.042 299.234C325.113 299.234 324.249 299.16 323.452 299.012C322.663 298.863 321.913 298.625 321.202 298.297V295.848C321.929 296.207 322.702 296.484 323.523 296.68C324.343 296.875 325.12 296.973 325.855 296.973C327.285 296.973 328.304 296.707 328.913 296.176C329.523 295.637 329.827 294.895 329.827 293.949C329.827 293.34 329.667 292.84 329.347 292.449C329.035 292.059 328.546 291.766 327.882 291.57C327.226 291.375 326.378 291.277 325.339 291.277H323.827V289.062H325.351C326.343 289.062 327.14 288.945 327.742 288.711C328.343 288.469 328.777 288.137 329.042 287.715C329.316 287.293 329.452 286.801 329.452 286.238C329.452 285.504 329.214 284.934 328.738 284.527C328.261 284.113 327.554 283.906 326.617 283.906C326.038 283.906 325.511 283.973 325.035 284.105C324.566 284.238 324.132 284.406 323.734 284.609C323.335 284.812 322.956 285.031 322.597 285.266L321.273 283.355C321.921 282.871 322.695 282.461 323.593 282.125C324.492 281.789 325.538 281.621 326.734 281.621C328.492 281.621 329.847 282 330.8 282.758C331.753 283.508 332.23 284.516 332.23 285.781Z" fill="white"/>
</svg>
