<svg width="500" height="499" viewBox="0 0 500 499" fill="none" xmlns="http://www.w3.org/2000/svg">
<path d="M249.97 111C275.088 110.995 299.805 117.298 321.854 129.33C343.903 141.362 362.577 158.739 376.164 179.866C389.75 200.993 397.813 225.193 399.614 250.247C401.415 275.3 396.895 300.405 386.47 323.258C376.044 346.11 360.047 365.979 339.945 381.041C319.844 396.103 296.282 405.876 271.421 409.463C246.56 413.05 221.197 410.336 197.657 401.571C174.118 392.806 153.156 378.27 136.696 359.296L250 261L249.97 111Z" fill="#FF7F00"/>
<path d="M136.598 359.183C117.791 337.461 105.618 310.794 101.528 282.353C97.4375 253.913 101.602 224.897 113.525 198.755C125.448 172.613 144.628 150.445 168.785 134.888C192.942 119.331 221.059 111.04 249.792 111L250 261L136.598 359.183Z" fill="#1F78B4"/>
<path d="M59.8603 21.132C58.6137 21.132 57.4843 20.956 56.4723 20.604C55.475 20.2373 54.683 19.7533 54.0963 19.152L54.9543 17.898C55.453 18.4113 56.113 18.8367 56.9343 19.174C57.7557 19.5113 58.731 19.68 59.8603 19.68C61.2243 19.68 62.2657 19.4013 62.9843 18.844C63.703 18.2867 64.0623 17.5387 64.0623 16.6C64.0623 15.6613 63.703 14.9133 62.9843 14.356C62.2803 13.7987 61.195 13.52 59.7283 13.52H58.5403V12.354L63.5343 6.392L63.7763 7.008H54.4043V5.6H65.0743V6.722L60.0803 12.684L59.3103 12.178H59.9923C61.855 12.178 63.2703 12.5887 64.2383 13.41C65.2063 14.2313 65.6903 15.2873 65.6903 16.578C65.6903 17.4433 65.4703 18.2207 65.0303 18.91C64.605 19.5993 63.9597 20.142 63.0943 20.538C62.229 20.934 61.151 21.132 59.8603 21.132ZM70.3366 21.11C70.014 21.11 69.7353 20.9927 69.5006 20.758C69.2806 20.5233 69.1706 20.2373 69.1706 19.9C69.1706 19.548 69.2806 19.262 69.5006 19.042C69.7353 18.822 70.014 18.712 70.3366 18.712C70.6593 18.712 70.9306 18.822 71.1506 19.042C71.3853 19.262 71.5026 19.548 71.5026 19.9C71.5026 20.2373 71.3853 20.5233 71.1506 20.758C70.9306 20.9927 70.6593 21.11 70.3366 21.11ZM93.772 5.6H95.378V21H93.772V5.6ZM84.136 21H82.508V5.6H84.136V21ZM93.926 13.894H83.96V12.464H93.926V13.894ZM107.312 21V18.448L107.246 18.03V13.762C107.246 12.7793 106.968 12.024 106.41 11.496C105.868 10.968 105.054 10.704 103.968 10.704C103.22 10.704 102.509 10.8287 101.834 11.078C101.16 11.3273 100.588 11.6573 100.118 12.068L99.4145 10.902C100.001 10.4033 100.705 10.022 101.526 9.758C102.348 9.47933 103.213 9.34 104.122 9.34C105.618 9.34 106.77 9.714 107.576 10.462C108.398 11.1953 108.808 12.3173 108.808 13.828V21H107.312ZM103.33 21.11C102.465 21.11 101.71 20.9707 101.064 20.692C100.434 20.3987 99.9498 20.0027 99.6125 19.504C99.2752 18.9907 99.1065 18.404 99.1065 17.744C99.1065 17.1427 99.2458 16.6 99.5245 16.116C99.8178 15.6173 100.287 15.2213 100.932 14.928C101.592 14.62 102.472 14.466 103.572 14.466H107.554V15.632H103.616C102.502 15.632 101.724 15.83 101.284 16.226C100.859 16.622 100.646 17.1133 100.646 17.7C100.646 18.36 100.903 18.888 101.416 19.284C101.93 19.68 102.648 19.878 103.572 19.878C104.452 19.878 105.208 19.68 105.838 19.284C106.484 18.8733 106.953 18.2867 107.246 17.524L107.598 18.602C107.305 19.3647 106.792 19.9733 106.058 20.428C105.34 20.8827 104.43 21.11 103.33 21.11ZM115.806 21L110.68 9.45H112.308L117.016 20.164H116.246L121.02 9.45H122.56L117.412 21H115.806ZM129.344 21.11C128.141 21.11 127.085 20.8607 126.176 20.362C125.266 19.8487 124.555 19.152 124.042 18.272C123.528 17.3773 123.272 16.358 123.272 15.214C123.272 14.07 123.514 13.058 123.998 12.178C124.496 11.298 125.171 10.6087 126.022 10.11C126.887 9.59667 127.855 9.34 128.926 9.34C130.011 9.34 130.972 9.58933 131.808 10.088C132.658 10.572 133.326 11.2613 133.81 12.156C134.294 13.036 134.536 14.0553 134.536 15.214C134.536 15.2873 134.528 15.368 134.514 15.456C134.514 15.5293 134.514 15.61 134.514 15.698H124.46V14.532H133.678L133.062 14.994C133.062 14.158 132.878 13.4173 132.512 12.772C132.16 12.112 131.676 11.5987 131.06 11.232C130.444 10.8653 129.732 10.682 128.926 10.682C128.134 10.682 127.422 10.8653 126.792 11.232C126.161 11.5987 125.67 12.112 125.318 12.772C124.966 13.432 124.79 14.1873 124.79 15.038V15.28C124.79 16.16 124.98 16.9373 125.362 17.612C125.758 18.272 126.3 18.7927 126.99 19.174C127.694 19.5407 128.493 19.724 129.388 19.724C130.092 19.724 130.744 19.5993 131.346 19.35C131.962 19.1007 132.49 18.7193 132.93 18.206L133.81 19.218C133.296 19.834 132.651 20.3033 131.874 20.626C131.111 20.9487 130.268 21.11 129.344 21.11ZM143.561 25.378C143.018 25.378 142.498 25.29 141.999 25.114C141.515 24.938 141.097 24.674 140.745 24.322L141.471 23.156C141.764 23.4347 142.08 23.6473 142.417 23.794C142.769 23.9553 143.158 24.036 143.583 24.036C144.096 24.036 144.536 23.8893 144.903 23.596C145.284 23.3173 145.644 22.8187 145.981 22.1L146.729 20.406L146.905 20.164L151.657 9.45H153.197L147.411 22.386C147.088 23.134 146.729 23.728 146.333 24.168C145.952 24.608 145.534 24.916 145.079 25.092C144.624 25.2827 144.118 25.378 143.561 25.378ZM146.641 21.33L141.317 9.45H142.945L147.653 20.054L146.641 21.33ZM159.782 21.11C158.668 21.11 157.663 20.8607 156.768 20.362C155.888 19.8487 155.192 19.152 154.678 18.272C154.165 17.3773 153.908 16.358 153.908 15.214C153.908 14.0553 154.165 13.036 154.678 12.156C155.192 11.276 155.888 10.5867 156.768 10.088C157.648 9.58933 158.653 9.34 159.782 9.34C160.926 9.34 161.938 9.58933 162.818 10.088C163.713 10.5867 164.41 11.276 164.908 12.156C165.422 13.036 165.678 14.0553 165.678 15.214C165.678 16.358 165.422 17.3773 164.908 18.272C164.41 19.152 163.713 19.8487 162.818 20.362C161.924 20.8607 160.912 21.11 159.782 21.11ZM159.782 19.724C160.618 19.724 161.359 19.5407 162.004 19.174C162.65 18.7927 163.156 18.2647 163.522 17.59C163.904 16.9007 164.094 16.1087 164.094 15.214C164.094 14.3047 163.904 13.5127 163.522 12.838C163.156 12.1633 162.65 11.6427 162.004 11.276C161.359 10.8947 160.626 10.704 159.804 10.704C158.983 10.704 158.25 10.8947 157.604 11.276C156.959 11.6427 156.446 12.1633 156.064 12.838C155.683 13.5127 155.492 14.3047 155.492 15.214C155.492 16.1087 155.683 16.9007 156.064 17.59C156.446 18.2647 156.959 18.7927 157.604 19.174C158.25 19.5407 158.976 19.724 159.782 19.724ZM173.641 21.11C172.659 21.11 171.801 20.9267 171.067 20.56C170.334 20.1933 169.762 19.6433 169.351 18.91C168.955 18.1767 168.757 17.26 168.757 16.16V9.45H170.319V15.984C170.319 17.216 170.62 18.1473 171.221 18.778C171.837 19.394 172.695 19.702 173.795 19.702C174.602 19.702 175.299 19.5407 175.885 19.218C176.487 18.8807 176.941 18.3967 177.249 17.766C177.572 17.1353 177.733 16.38 177.733 15.5V9.45H179.295V21H177.799V17.832L178.041 18.404C177.675 19.2547 177.103 19.922 176.325 20.406C175.563 20.8753 174.668 21.11 173.641 21.11ZM196.645 21V18.448L196.579 18.03V13.762C196.579 12.7793 196.3 12.024 195.743 11.496C195.2 10.968 194.386 10.704 193.301 10.704C192.553 10.704 191.841 10.8287 191.167 11.078C190.492 11.3273 189.92 11.6573 189.451 12.068L188.747 10.902C189.333 10.4033 190.037 10.022 190.859 9.758C191.68 9.47933 192.545 9.34 193.455 9.34C194.951 9.34 196.102 9.714 196.909 10.462C197.73 11.1953 198.141 12.3173 198.141 13.828V21H196.645ZM192.663 21.11C191.797 21.11 191.042 20.9707 190.397 20.692C189.766 20.3987 189.282 20.0027 188.945 19.504C188.607 18.9907 188.439 18.404 188.439 17.744C188.439 17.1427 188.578 16.6 188.857 16.116C189.15 15.6173 189.619 15.2213 190.265 14.928C190.925 14.62 191.805 14.466 192.905 14.466H196.887V15.632H192.949C191.834 15.632 191.057 15.83 190.617 16.226C190.191 16.622 189.979 17.1133 189.979 17.7C189.979 18.36 190.235 18.888 190.749 19.284C191.262 19.68 191.981 19.878 192.905 19.878C193.785 19.878 194.54 19.68 195.171 19.284C195.816 18.8733 196.285 18.2867 196.579 17.524L196.931 18.602C196.637 19.3647 196.124 19.9733 195.391 20.428C194.672 20.8827 193.763 21.11 192.663 21.11ZM206.981 21.11C205.881 21.11 204.891 20.8607 204.011 20.362C203.146 19.8633 202.464 19.174 201.965 18.294C201.466 17.3993 201.217 16.3727 201.217 15.214C201.217 14.0407 201.466 13.014 201.965 12.134C202.464 11.254 203.146 10.572 204.011 10.088C204.891 9.58933 205.881 9.34 206.981 9.34C207.993 9.34 208.895 9.56733 209.687 10.022C210.494 10.4767 211.132 11.144 211.601 12.024C212.085 12.8893 212.327 13.9527 212.327 15.214C212.327 16.4607 212.092 17.524 211.623 18.404C211.154 19.284 210.516 19.9587 209.709 20.428C208.917 20.8827 208.008 21.11 206.981 21.11ZM207.091 19.724C207.912 19.724 208.646 19.5407 209.291 19.174C209.951 18.7927 210.464 18.2647 210.831 17.59C211.212 16.9007 211.403 16.1087 211.403 15.214C211.403 14.3047 211.212 13.5127 210.831 12.838C210.464 12.1633 209.951 11.6427 209.291 11.276C208.646 10.8947 207.912 10.704 207.091 10.704C206.284 10.704 205.558 10.8947 204.913 11.276C204.268 11.6427 203.754 12.1633 203.373 12.838C202.992 13.5127 202.801 14.3047 202.801 15.214C202.801 16.1087 202.992 16.9007 203.373 17.59C203.754 18.2647 204.268 18.7927 204.913 19.174C205.558 19.5407 206.284 19.724 207.091 19.724ZM211.447 21V17.524L211.601 15.192L211.381 12.86V4.676H212.943V21H211.447ZM221.891 21.11C220.791 21.11 219.801 20.8607 218.921 20.362C218.056 19.8633 217.374 19.174 216.875 18.294C216.377 17.3993 216.127 16.3727 216.127 15.214C216.127 14.0407 216.377 13.014 216.875 12.134C217.374 11.254 218.056 10.572 218.921 10.088C219.801 9.58933 220.791 9.34 221.891 9.34C222.903 9.34 223.805 9.56733 224.597 10.022C225.404 10.4767 226.042 11.144 226.511 12.024C226.995 12.8893 227.237 13.9527 227.237 15.214C227.237 16.4607 227.003 17.524 226.533 18.404C226.064 19.284 225.426 19.9587 224.619 20.428C223.827 20.8827 222.918 21.11 221.891 21.11ZM222.001 19.724C222.823 19.724 223.556 19.5407 224.201 19.174C224.861 18.7927 225.375 18.2647 225.741 17.59C226.123 16.9007 226.313 16.1087 226.313 15.214C226.313 14.3047 226.123 13.5127 225.741 12.838C225.375 12.1633 224.861 11.6427 224.201 11.276C223.556 10.8947 222.823 10.704 222.001 10.704C221.195 10.704 220.469 10.8947 219.823 11.276C219.178 11.6427 218.665 12.1633 218.283 12.838C217.902 13.5127 217.711 14.3047 217.711 15.214C217.711 16.1087 217.902 16.9007 218.283 17.59C218.665 18.2647 219.178 18.7927 219.823 19.174C220.469 19.5407 221.195 19.724 222.001 19.724ZM226.357 21V17.524L226.511 15.192L226.291 12.86V4.676H227.853V21H226.357ZM237.109 21.11C235.907 21.11 234.851 20.8607 233.941 20.362C233.032 19.8487 232.321 19.152 231.807 18.272C231.294 17.3773 231.037 16.358 231.037 15.214C231.037 14.07 231.279 13.058 231.763 12.178C232.262 11.298 232.937 10.6087 233.787 10.11C234.653 9.59667 235.621 9.34 236.691 9.34C237.777 9.34 238.737 9.58933 239.573 10.088C240.424 10.572 241.091 11.2613 241.575 12.156C242.059 13.036 242.301 14.0553 242.301 15.214C242.301 15.2873 242.294 15.368 242.279 15.456C242.279 15.5293 242.279 15.61 242.279 15.698H232.225V14.532H241.443L240.827 14.994C240.827 14.158 240.644 13.4173 240.277 12.772C239.925 12.112 239.441 11.5987 238.825 11.232C238.209 10.8653 237.498 10.682 236.691 10.682C235.899 10.682 235.188 10.8653 234.557 11.232C233.927 11.5987 233.435 12.112 233.083 12.772C232.731 13.432 232.555 14.1873 232.555 15.038V15.28C232.555 16.16 232.746 16.9373 233.127 17.612C233.523 18.272 234.066 18.7927 234.755 19.174C235.459 19.5407 236.259 19.724 237.153 19.724C237.857 19.724 238.51 19.5993 239.111 19.35C239.727 19.1007 240.255 18.7193 240.695 18.206L241.575 19.218C241.062 19.834 240.417 20.3033 239.639 20.626C238.877 20.9487 238.033 21.11 237.109 21.11ZM250.079 21.11C248.979 21.11 247.989 20.8607 247.109 20.362C246.243 19.8633 245.561 19.174 245.063 18.294C244.564 17.3993 244.315 16.3727 244.315 15.214C244.315 14.0407 244.564 13.014 245.063 12.134C245.561 11.254 246.243 10.572 247.109 10.088C247.989 9.58933 248.979 9.34 250.079 9.34C251.091 9.34 251.993 9.56733 252.785 10.022C253.591 10.4767 254.229 11.144 254.699 12.024C255.183 12.8893 255.425 13.9527 255.425 15.214C255.425 16.4607 255.19 17.524 254.721 18.404C254.251 19.284 253.613 19.9587 252.807 20.428C252.015 20.8827 251.105 21.11 250.079 21.11ZM250.189 19.724C251.01 19.724 251.743 19.5407 252.389 19.174C253.049 18.7927 253.562 18.2647 253.929 17.59C254.31 16.9007 254.501 16.1087 254.501 15.214C254.501 14.3047 254.31 13.5127 253.929 12.838C253.562 12.1633 253.049 11.6427 252.389 11.276C251.743 10.8947 251.01 10.704 250.189 10.704C249.382 10.704 248.656 10.8947 248.011 11.276C247.365 11.6427 246.852 12.1633 246.471 12.838C246.089 13.5127 245.899 14.3047 245.899 15.214C245.899 16.1087 246.089 16.9007 246.471 17.59C246.852 18.2647 247.365 18.7927 248.011 19.174C248.656 19.5407 249.382 19.724 250.189 19.724ZM254.545 21V17.524L254.699 15.192L254.479 12.86V4.676H256.041V21H254.545ZM273.387 21V18.448L273.321 18.03V13.762C273.321 12.7793 273.042 12.024 272.485 11.496C271.942 10.968 271.128 10.704 270.043 10.704C269.295 10.704 268.583 10.8287 267.909 11.078C267.234 11.3273 266.662 11.6573 266.193 12.068L265.489 10.902C266.075 10.4033 266.779 10.022 267.601 9.758C268.422 9.47933 269.287 9.34 270.197 9.34C271.693 9.34 272.844 9.714 273.651 10.462C274.472 11.1953 274.883 12.3173 274.883 13.828V21H273.387ZM269.405 21.11C268.539 21.11 267.784 20.9707 267.139 20.692C266.508 20.3987 266.024 20.0027 265.687 19.504C265.349 18.9907 265.181 18.404 265.181 17.744C265.181 17.1427 265.32 16.6 265.599 16.116C265.892 15.6173 266.361 15.2213 267.007 14.928C267.667 14.62 268.547 14.466 269.647 14.466H273.629V15.632H269.691C268.576 15.632 267.799 15.83 267.359 16.226C266.933 16.622 266.721 17.1133 266.721 17.7C266.721 18.36 266.977 18.888 267.491 19.284C268.004 19.68 268.723 19.878 269.647 19.878C270.527 19.878 271.282 19.68 271.913 19.284C272.558 18.8733 273.027 18.2867 273.321 17.524L273.673 18.602C273.379 19.3647 272.866 19.9733 272.133 20.428C271.414 20.8827 270.505 21.11 269.405 21.11ZM290.779 9.34C291.718 9.34 292.539 9.52333 293.243 9.89C293.962 10.242 294.519 10.7847 294.915 11.518C295.326 12.2513 295.531 13.1753 295.531 14.29V21H293.969V14.444C293.969 13.2267 293.661 12.31 293.045 11.694C292.444 11.0633 291.593 10.748 290.493 10.748C289.672 10.748 288.953 10.9167 288.337 11.254C287.736 11.5767 287.266 12.0533 286.929 12.684C286.606 13.3 286.445 14.048 286.445 14.928V21H284.883V9.45H286.379V12.618L286.137 12.024C286.504 11.188 287.09 10.5353 287.897 10.066C288.704 9.582 289.664 9.34 290.779 9.34ZM304.656 21.11C303.454 21.11 302.398 20.8607 301.488 20.362C300.579 19.8487 299.868 19.152 299.354 18.272C298.841 17.3773 298.584 16.358 298.584 15.214C298.584 14.07 298.826 13.058 299.31 12.178C299.809 11.298 300.484 10.6087 301.334 10.11C302.2 9.59667 303.168 9.34 304.238 9.34C305.324 9.34 306.284 9.58933 307.12 10.088C307.971 10.572 308.638 11.2613 309.122 12.156C309.606 13.036 309.848 14.0553 309.848 15.214C309.848 15.2873 309.841 15.368 309.826 15.456C309.826 15.5293 309.826 15.61 309.826 15.698H299.772V14.532H308.99L308.374 14.994C308.374 14.158 308.191 13.4173 307.824 12.772C307.472 12.112 306.988 11.5987 306.372 11.232C305.756 10.8653 305.045 10.682 304.238 10.682C303.446 10.682 302.735 10.8653 302.104 11.232C301.474 11.5987 300.982 12.112 300.63 12.772C300.278 13.432 300.102 14.1873 300.102 15.038V15.28C300.102 16.16 300.293 16.9373 300.674 17.612C301.07 18.272 301.613 18.7927 302.302 19.174C303.006 19.5407 303.806 19.724 304.7 19.724C305.404 19.724 306.057 19.5993 306.658 19.35C307.274 19.1007 307.802 18.7193 308.242 18.206L309.122 19.218C308.609 19.834 307.964 20.3033 307.186 20.626C306.424 20.9487 305.58 21.11 304.656 21.11ZM315.167 21L310.811 9.45H312.307L316.267 20.164H315.585L319.655 9.45H320.997L325.023 20.164H324.341L328.367 9.45H329.797L325.419 21H323.945L320.073 10.924H320.535L316.641 21H315.167ZM341.009 21.11C340.055 21.11 339.153 20.978 338.303 20.714C337.452 20.4353 336.785 20.0907 336.301 19.68L337.005 18.448C337.474 18.8 338.075 19.108 338.809 19.372C339.542 19.6213 340.312 19.746 341.119 19.746C342.219 19.746 343.011 19.5773 343.495 19.24C343.979 18.888 344.221 18.426 344.221 17.854C344.221 17.4287 344.081 17.0987 343.803 16.864C343.539 16.6147 343.187 16.4313 342.747 16.314C342.307 16.182 341.815 16.072 341.273 15.984C340.73 15.896 340.187 15.7933 339.645 15.676C339.117 15.5587 338.633 15.39 338.193 15.17C337.753 14.9353 337.393 14.62 337.115 14.224C336.851 13.828 336.719 13.3 336.719 12.64C336.719 12.0093 336.895 11.4447 337.247 10.946C337.599 10.4473 338.112 10.0587 338.787 9.78C339.476 9.48667 340.312 9.34 341.295 9.34C342.043 9.34 342.791 9.44267 343.539 9.648C344.287 9.83867 344.903 10.0953 345.387 10.418L344.705 11.672C344.191 11.32 343.641 11.0707 343.055 10.924C342.468 10.7627 341.881 10.682 341.295 10.682C340.253 10.682 339.483 10.8653 338.985 11.232C338.501 11.584 338.259 12.0387 338.259 12.596C338.259 13.036 338.391 13.3807 338.655 13.63C338.933 13.8793 339.293 14.0773 339.733 14.224C340.187 14.356 340.679 14.466 341.207 14.554C341.749 14.642 342.285 14.752 342.813 14.884C343.355 15.0013 343.847 15.17 344.287 15.39C344.741 15.5953 345.101 15.896 345.365 16.292C345.643 16.6733 345.783 17.1793 345.783 17.81C345.783 18.4847 345.592 19.0713 345.211 19.57C344.844 20.054 344.301 20.4353 343.583 20.714C342.879 20.978 342.021 21.11 341.009 21.11ZM353.423 21.11C352.44 21.11 351.582 20.9267 350.849 20.56C350.115 20.1933 349.543 19.6433 349.133 18.91C348.737 18.1767 348.539 17.26 348.539 16.16V9.45H350.101V15.984C350.101 17.216 350.401 18.1473 351.003 18.778C351.619 19.394 352.477 19.702 353.577 19.702C354.383 19.702 355.08 19.5407 355.667 19.218C356.268 18.8807 356.723 18.3967 357.031 17.766C357.353 17.1353 357.515 16.38 357.515 15.5V9.45H359.077V21H357.581V17.832L357.823 18.404C357.456 19.2547 356.884 19.922 356.107 20.406C355.344 20.8753 354.449 21.11 353.423 21.11ZM369.392 21.11C368.38 21.11 367.471 20.8827 366.664 20.428C365.857 19.9587 365.219 19.284 364.75 18.404C364.281 17.524 364.046 16.4607 364.046 15.214C364.046 13.9527 364.281 12.8893 364.75 12.024C365.234 11.144 365.879 10.4767 366.686 10.022C367.493 9.56733 368.395 9.34 369.392 9.34C370.492 9.34 371.475 9.58933 372.34 10.088C373.22 10.572 373.909 11.254 374.408 12.134C374.907 13.014 375.156 14.0407 375.156 15.214C375.156 16.3727 374.907 17.3993 374.408 18.294C373.909 19.174 373.22 19.8633 372.34 20.362C371.475 20.8607 370.492 21.11 369.392 21.11ZM363.43 21V4.676H364.992V12.86L364.772 15.192L364.926 17.524V21H363.43ZM369.282 19.724C370.103 19.724 370.837 19.5407 371.482 19.174C372.127 18.7927 372.641 18.2647 373.022 17.59C373.403 16.9007 373.594 16.1087 373.594 15.214C373.594 14.3047 373.403 13.5127 373.022 12.838C372.641 12.1633 372.127 11.6427 371.482 11.276C370.837 10.8947 370.103 10.704 369.282 10.704C368.461 10.704 367.72 10.8947 367.06 11.276C366.415 11.6427 365.901 12.1633 365.52 12.838C365.153 13.5127 364.97 14.3047 364.97 15.214C364.97 16.1087 365.153 16.9007 365.52 17.59C365.901 18.2647 366.415 18.7927 367.06 19.174C367.72 19.5407 368.461 19.724 369.282 19.724ZM381.442 21.11C380.489 21.11 379.587 20.978 378.736 20.714C377.885 20.4353 377.218 20.0907 376.734 19.68L377.438 18.448C377.907 18.8 378.509 19.108 379.242 19.372C379.975 19.6213 380.745 19.746 381.552 19.746C382.652 19.746 383.444 19.5773 383.928 19.24C384.412 18.888 384.654 18.426 384.654 17.854C384.654 17.4287 384.515 17.0987 384.236 16.864C383.972 16.6147 383.62 16.4313 383.18 16.314C382.74 16.182 382.249 16.072 381.706 15.984C381.163 15.896 380.621 15.7933 380.078 15.676C379.55 15.5587 379.066 15.39 378.626 15.17C378.186 14.9353 377.827 14.62 377.548 14.224C377.284 13.828 377.152 13.3 377.152 12.64C377.152 12.0093 377.328 11.4447 377.68 10.946C378.032 10.4473 378.545 10.0587 379.22 9.78C379.909 9.48667 380.745 9.34 381.728 9.34C382.476 9.34 383.224 9.44267 383.972 9.648C384.72 9.83867 385.336 10.0953 385.82 10.418L385.138 11.672C384.625 11.32 384.075 11.0707 383.488 10.924C382.901 10.7627 382.315 10.682 381.728 10.682C380.687 10.682 379.917 10.8653 379.418 11.232C378.934 11.584 378.692 12.0387 378.692 12.596C378.692 13.036 378.824 13.3807 379.088 13.63C379.367 13.8793 379.726 14.0773 380.166 14.224C380.621 14.356 381.112 14.466 381.64 14.554C382.183 14.642 382.718 14.752 383.246 14.884C383.789 15.0013 384.28 15.17 384.72 15.39C385.175 15.5953 385.534 15.896 385.798 16.292C386.077 16.6733 386.216 17.1793 386.216 17.81C386.216 18.4847 386.025 19.0713 385.644 19.57C385.277 20.054 384.735 20.4353 384.016 20.714C383.312 20.978 382.454 21.11 381.442 21.11ZM393.878 21.11C392.734 21.11 391.708 20.8607 390.798 20.362C389.904 19.8487 389.2 19.152 388.686 18.272C388.173 17.3773 387.916 16.358 387.916 15.214C387.916 14.0553 388.173 13.036 388.686 12.156C389.2 11.276 389.904 10.5867 390.798 10.088C391.708 9.58933 392.734 9.34 393.878 9.34C394.861 9.34 395.748 9.53067 396.54 9.912C397.332 10.2933 397.956 10.8653 398.41 11.628L397.244 12.42C396.848 11.8333 396.357 11.4007 395.77 11.122C395.184 10.8433 394.546 10.704 393.856 10.704C393.035 10.704 392.294 10.8947 391.634 11.276C390.974 11.6427 390.454 12.1633 390.072 12.838C389.691 13.5127 389.5 14.3047 389.5 15.214C389.5 16.1233 389.691 16.9153 390.072 17.59C390.454 18.2647 390.974 18.7927 391.634 19.174C392.294 19.5407 393.035 19.724 393.856 19.724C394.546 19.724 395.184 19.5847 395.77 19.306C396.357 19.0273 396.848 18.602 397.244 18.03L398.41 18.822C397.956 19.57 397.332 20.142 396.54 20.538C395.748 20.9193 394.861 21.11 393.878 21.11ZM401.479 21V9.45H402.975V12.596L402.821 12.046C403.143 11.166 403.686 10.4987 404.449 10.044C405.211 9.57467 406.157 9.34 407.287 9.34V10.858C407.228 10.858 407.169 10.858 407.111 10.858C407.052 10.8433 406.993 10.836 406.935 10.836C405.717 10.836 404.764 11.21 404.075 11.958C403.385 12.6913 403.041 13.74 403.041 15.104V21H401.479ZM410.137 21V9.45H411.699V21H410.137ZM410.929 6.898C410.606 6.898 410.335 6.788 410.115 6.568C409.895 6.348 409.785 6.084 409.785 5.776C409.785 5.468 409.895 5.21133 410.115 5.006C410.335 4.786 410.606 4.676 410.929 4.676C411.252 4.676 411.523 4.77867 411.743 4.984C411.963 5.18933 412.073 5.446 412.073 5.754C412.073 6.07667 411.963 6.348 411.743 6.568C411.538 6.788 411.266 6.898 410.929 6.898ZM422.007 21.11C421.01 21.11 420.108 20.8827 419.301 20.428C418.495 19.9587 417.849 19.2913 417.365 18.426C416.896 17.546 416.661 16.4753 416.661 15.214C416.661 13.9527 416.896 12.8893 417.365 12.024C417.835 11.144 418.473 10.4767 419.279 10.022C420.086 9.56733 420.995 9.34 422.007 9.34C423.107 9.34 424.09 9.58933 424.955 10.088C425.835 10.572 426.525 11.2613 427.023 12.156C427.522 13.036 427.771 14.0553 427.771 15.214C427.771 16.3873 427.522 17.414 427.023 18.294C426.525 19.174 425.835 19.8633 424.955 20.362C424.09 20.8607 423.107 21.11 422.007 21.11ZM416.045 25.268V9.45H417.541V12.926L417.387 15.236L417.607 17.568V25.268H416.045ZM421.897 19.724C422.719 19.724 423.452 19.5407 424.097 19.174C424.743 18.7927 425.256 18.2647 425.637 17.59C426.019 16.9007 426.209 16.1087 426.209 15.214C426.209 14.3193 426.019 13.5347 425.637 12.86C425.256 12.1853 424.743 11.6573 424.097 11.276C423.452 10.8947 422.719 10.704 421.897 10.704C421.076 10.704 420.335 10.8947 419.675 11.276C419.03 11.6573 418.517 12.1853 418.135 12.86C417.769 13.5347 417.585 14.3193 417.585 15.214C417.585 16.1087 417.769 16.9007 418.135 17.59C418.517 18.2647 419.03 18.7927 419.675 19.174C420.335 19.5407 421.076 19.724 421.897 19.724ZM434.607 21.11C433.522 21.11 432.686 20.8167 432.099 20.23C431.513 19.6433 431.219 18.8147 431.219 17.744V6.898H432.781V17.656C432.781 18.3307 432.95 18.8513 433.287 19.218C433.639 19.5847 434.138 19.768 434.783 19.768C435.473 19.768 436.045 19.57 436.499 19.174L437.049 20.296C436.741 20.5747 436.367 20.78 435.927 20.912C435.502 21.044 435.062 21.11 434.607 21.11ZM429.151 10.748V9.45H436.301V10.748H429.151ZM439.893 21V9.45H441.455V21H439.893ZM440.685 6.898C440.362 6.898 440.091 6.788 439.871 6.568C439.651 6.348 439.541 6.084 439.541 5.776C439.541 5.468 439.651 5.21133 439.871 5.006C440.091 4.786 440.362 4.676 440.685 4.676C441.008 4.676 441.279 4.77867 441.499 4.984C441.719 5.18933 441.829 5.446 441.829 5.754C441.829 6.07667 441.719 6.348 441.499 6.568C441.294 6.788 441.022 6.898 440.685 6.898ZM450.509 21.11C449.394 21.11 448.39 20.8607 447.495 20.362C446.615 19.8487 445.918 19.152 445.405 18.272C444.892 17.3773 444.635 16.358 444.635 15.214C444.635 14.0553 444.892 13.036 445.405 12.156C445.918 11.276 446.615 10.5867 447.495 10.088C448.375 9.58933 449.38 9.34 450.509 9.34C451.653 9.34 452.665 9.58933 453.545 10.088C454.44 10.5867 455.136 11.276 455.635 12.156C456.148 13.036 456.405 14.0553 456.405 15.214C456.405 16.358 456.148 17.3773 455.635 18.272C455.136 19.152 454.44 19.8487 453.545 20.362C452.65 20.8607 451.638 21.11 450.509 21.11ZM450.509 19.724C451.345 19.724 452.086 19.5407 452.731 19.174C453.376 18.7927 453.882 18.2647 454.249 17.59C454.63 16.9007 454.821 16.1087 454.821 15.214C454.821 14.3047 454.63 13.5127 454.249 12.838C453.882 12.1633 453.376 11.6427 452.731 11.276C452.086 10.8947 451.352 10.704 450.531 10.704C449.71 10.704 448.976 10.8947 448.331 11.276C447.686 11.6427 447.172 12.1633 446.791 12.838C446.41 13.5127 446.219 14.3047 446.219 15.214C446.219 16.1087 446.41 16.9007 446.791 17.59C447.172 18.2647 447.686 18.7927 448.331 19.174C448.976 19.5407 449.702 19.724 450.509 19.724ZM465.49 9.34C466.429 9.34 467.25 9.52333 467.954 9.89C468.673 10.242 469.23 10.7847 469.626 11.518C470.037 12.2513 470.242 13.1753 470.242 14.29V21H468.68V14.444C468.68 13.2267 468.372 12.31 467.756 11.694C467.155 11.0633 466.304 10.748 465.204 10.748C464.383 10.748 463.664 10.9167 463.048 11.254C462.447 11.5767 461.977 12.0533 461.64 12.684C461.317 13.3 461.156 14.048 461.156 14.928V21H459.594V9.45H461.09V12.618L460.848 12.024C461.215 11.188 461.801 10.5353 462.608 10.066C463.415 9.582 464.375 9.34 465.49 9.34ZM82.178 48V36.45H83.74V48H82.178ZM82.97 33.898C82.6473 33.898 82.376 33.788 82.156 33.568C81.936 33.348 81.826 33.084 81.826 32.776C81.826 32.468 81.936 32.2113 82.156 32.006C82.376 31.786 82.6473 31.676 82.97 31.676C83.2927 31.676 83.564 31.7787 83.784 31.984C84.004 32.1893 84.114 32.446 84.114 32.754C84.114 33.0767 84.004 33.348 83.784 33.568C83.5787 33.788 83.3073 33.898 82.97 33.898ZM93.9822 36.34C94.9209 36.34 95.7422 36.5233 96.4462 36.89C97.1649 37.242 97.7222 37.7847 98.1182 38.518C98.5289 39.2513 98.7342 40.1753 98.7342 41.29V48H97.1722V41.444C97.1722 40.2267 96.8642 39.31 96.2482 38.694C95.6469 38.0633 94.7962 37.748 93.6962 37.748C92.8749 37.748 92.1562 37.9167 91.5402 38.254C90.9389 38.5767 90.4695 39.0533 90.1322 39.684C89.8095 40.3 89.6482 41.048 89.6482 41.928V48H88.0862V36.45H89.5822V39.618L89.3402 39.024C89.7069 38.188 90.2935 37.5353 91.1002 37.066C91.9069 36.582 92.8675 36.34 93.9822 36.34ZM112.363 48.11C111.278 48.11 110.442 47.8167 109.855 47.23C109.269 46.6433 108.975 45.8147 108.975 44.744V33.898H110.537V44.656C110.537 45.3307 110.706 45.8513 111.043 46.218C111.395 46.5847 111.894 46.768 112.539 46.768C113.229 46.768 113.801 46.57 114.255 46.174L114.805 47.296C114.497 47.5747 114.123 47.78 113.683 47.912C113.258 48.044 112.818 48.11 112.363 48.11ZM106.907 37.748V36.45H114.057V37.748H106.907ZM123.545 36.34C124.483 36.34 125.305 36.5233 126.009 36.89C126.727 37.242 127.285 37.7847 127.681 38.518C128.091 39.2513 128.297 40.1753 128.297 41.29V48H126.735V41.444C126.735 40.2267 126.427 39.31 125.811 38.694C125.209 38.0633 124.359 37.748 123.259 37.748C122.437 37.748 121.719 37.9167 121.103 38.254C120.501 38.5767 120.032 39.0533 119.695 39.684C119.372 40.3 119.211 41.048 119.211 41.928V48H117.649V31.676H119.211V39.618L118.903 39.024C119.269 38.188 119.856 37.5353 120.663 37.066C121.469 36.582 122.43 36.34 123.545 36.34ZM137.422 48.11C136.219 48.11 135.163 47.8607 134.254 47.362C133.345 46.8487 132.633 46.152 132.12 45.272C131.607 44.3773 131.35 43.358 131.35 42.214C131.35 41.07 131.592 40.058 132.076 39.178C132.575 38.298 133.249 37.6087 134.1 37.11C134.965 36.5967 135.933 36.34 137.004 36.34C138.089 36.34 139.05 36.5893 139.886 37.088C140.737 37.572 141.404 38.2613 141.888 39.156C142.372 40.036 142.614 41.0553 142.614 42.214C142.614 42.2873 142.607 42.368 142.592 42.456C142.592 42.5293 142.592 42.61 142.592 42.698H132.538V41.532H141.756L141.14 41.994C141.14 41.158 140.957 40.4173 140.59 39.772C140.238 39.112 139.754 38.5987 139.138 38.232C138.522 37.8653 137.811 37.682 137.004 37.682C136.212 37.682 135.501 37.8653 134.87 38.232C134.239 38.5987 133.748 39.112 133.396 39.772C133.044 40.432 132.868 41.1873 132.868 42.038V42.28C132.868 43.16 133.059 43.9373 133.44 44.612C133.836 45.272 134.379 45.7927 135.068 46.174C135.772 46.5407 136.571 46.724 137.466 46.724C138.17 46.724 138.823 46.5993 139.424 46.35C140.04 46.1007 140.568 45.7193 141.008 45.206L141.888 46.218C141.375 46.834 140.729 47.3033 139.952 47.626C139.189 47.9487 138.346 48.11 137.422 48.11ZM157.513 48.11C156.516 48.11 155.614 47.8827 154.807 47.428C154 46.9587 153.355 46.2913 152.871 45.426C152.402 44.546 152.167 43.4753 152.167 42.214C152.167 40.9527 152.402 39.8893 152.871 39.024C153.34 38.144 153.978 37.4767 154.785 37.022C155.592 36.5673 156.501 36.34 157.513 36.34C158.613 36.34 159.596 36.5893 160.461 37.088C161.341 37.572 162.03 38.2613 162.529 39.156C163.028 40.036 163.277 41.0553 163.277 42.214C163.277 43.3873 163.028 44.414 162.529 45.294C162.03 46.174 161.341 46.8633 160.461 47.362C159.596 47.8607 158.613 48.11 157.513 48.11ZM151.551 52.268V36.45H153.047V39.926L152.893 42.236L153.113 44.568V52.268H151.551ZM157.403 46.724C158.224 46.724 158.958 46.5407 159.603 46.174C160.248 45.7927 160.762 45.2647 161.143 44.59C161.524 43.9007 161.715 43.1087 161.715 42.214C161.715 41.3193 161.524 40.5347 161.143 39.86C160.762 39.1853 160.248 38.6573 159.603 38.276C158.958 37.8947 158.224 37.704 157.403 37.704C156.582 37.704 155.841 37.8947 155.181 38.276C154.536 38.6573 154.022 39.1853 153.641 39.86C153.274 40.5347 153.091 41.3193 153.091 42.214C153.091 43.1087 153.274 43.9007 153.641 44.59C154.022 45.2647 154.536 45.7927 155.181 46.174C155.841 46.5407 156.582 46.724 157.403 46.724ZM173.635 48V45.448L173.569 45.03V40.762C173.569 39.7793 173.29 39.024 172.733 38.496C172.19 37.968 171.376 37.704 170.291 37.704C169.543 37.704 168.831 37.8287 168.157 38.078C167.482 38.3273 166.91 38.6573 166.441 39.068L165.737 37.902C166.323 37.4033 167.027 37.022 167.849 36.758C168.67 36.4793 169.535 36.34 170.445 36.34C171.941 36.34 173.092 36.714 173.899 37.462C174.72 38.1953 175.131 39.3173 175.131 40.828V48H173.635ZM169.653 48.11C168.787 48.11 168.032 47.9707 167.387 47.692C166.756 47.3987 166.272 47.0027 165.935 46.504C165.597 45.9907 165.429 45.404 165.429 44.744C165.429 44.1427 165.568 43.6 165.847 43.116C166.14 42.6173 166.609 42.2213 167.255 41.928C167.915 41.62 168.795 41.466 169.895 41.466H173.877V42.632H169.939C168.824 42.632 168.047 42.83 167.607 43.226C167.181 43.622 166.969 44.1133 166.969 44.7C166.969 45.36 167.225 45.888 167.739 46.284C168.252 46.68 168.971 46.878 169.895 46.878C170.775 46.878 171.53 46.68 172.161 46.284C172.806 45.8733 173.275 45.2867 173.569 44.524L173.921 45.602C173.627 46.3647 173.114 46.9733 172.381 47.428C171.662 47.8827 170.753 48.11 169.653 48.11ZM182.475 48.11C181.522 48.11 180.62 47.978 179.769 47.714C178.919 47.4353 178.251 47.0907 177.767 46.68L178.471 45.448C178.941 45.8 179.542 46.108 180.275 46.372C181.009 46.6213 181.779 46.746 182.585 46.746C183.685 46.746 184.477 46.5773 184.961 46.24C185.445 45.888 185.687 45.426 185.687 44.854C185.687 44.4287 185.548 44.0987 185.269 43.864C185.005 43.6147 184.653 43.4313 184.213 43.314C183.773 43.182 183.282 43.072 182.739 42.984C182.197 42.896 181.654 42.7933 181.111 42.676C180.583 42.5587 180.099 42.39 179.659 42.17C179.219 41.9353 178.86 41.62 178.581 41.224C178.317 40.828 178.185 40.3 178.185 39.64C178.185 39.0093 178.361 38.4447 178.713 37.946C179.065 37.4473 179.579 37.0587 180.253 36.78C180.943 36.4867 181.779 36.34 182.761 36.34C183.509 36.34 184.257 36.4427 185.005 36.648C185.753 36.8387 186.369 37.0953 186.853 37.418L186.171 38.672C185.658 38.32 185.108 38.0707 184.521 37.924C183.935 37.7627 183.348 37.682 182.761 37.682C181.72 37.682 180.95 37.8653 180.451 38.232C179.967 38.584 179.725 39.0387 179.725 39.596C179.725 40.036 179.857 40.3807 180.121 40.63C180.4 40.8793 180.759 41.0773 181.199 41.224C181.654 41.356 182.145 41.466 182.673 41.554C183.216 41.642 183.751 41.752 184.279 41.884C184.822 42.0013 185.313 42.17 185.753 42.39C186.208 42.5953 186.567 42.896 186.831 43.292C187.11 43.6733 187.249 44.1793 187.249 44.81C187.249 45.4847 187.059 46.0713 186.677 46.57C186.311 47.054 185.768 47.4353 185.049 47.714C184.345 47.978 183.487 48.11 182.475 48.11ZM193.768 48.11C192.682 48.11 191.846 47.8167 191.26 47.23C190.673 46.6433 190.38 45.8147 190.38 44.744V33.898H191.942V44.656C191.942 45.3307 192.11 45.8513 192.448 46.218C192.8 46.5847 193.298 46.768 193.944 46.768C194.633 46.768 195.205 46.57 195.66 46.174L196.21 47.296C195.902 47.5747 195.528 47.78 195.088 47.912C194.662 48.044 194.222 48.11 193.768 48.11ZM188.312 37.748V36.45H195.462V37.748H188.312ZM208.375 48.132C207.26 48.132 206.204 47.956 205.207 47.604C204.224 47.2373 203.432 46.7533 202.831 46.152L203.601 44.898C204.099 45.4113 204.767 45.8367 205.603 46.174C206.453 46.5113 207.377 46.68 208.375 46.68C209.651 46.68 210.626 46.4013 211.301 45.844C211.99 45.2867 212.335 44.5387 212.335 43.6C212.335 42.6613 211.997 41.9133 211.323 41.356C210.663 40.7987 209.614 40.52 208.177 40.52H207.077V39.354L211.829 33.392L212.049 34.008H203.469V32.6H213.369V33.722L208.617 39.684L207.847 39.178H208.441C210.289 39.178 211.667 39.5887 212.577 40.41C213.501 41.2313 213.963 42.2873 213.963 43.578C213.963 44.4433 213.757 45.2207 213.347 45.91C212.936 46.5993 212.313 47.142 211.477 47.538C210.655 47.934 209.621 48.132 208.375 48.132ZM237.419 36.34C238.357 36.34 239.171 36.5233 239.861 36.89C240.565 37.242 241.107 37.7847 241.489 38.518C241.885 39.2513 242.083 40.1753 242.083 41.29V48H240.521V41.444C240.521 40.2267 240.227 39.31 239.641 38.694C239.069 38.0633 238.255 37.748 237.199 37.748C236.407 37.748 235.717 37.9167 235.131 38.254C234.559 38.5767 234.111 39.0533 233.789 39.684C233.481 40.3 233.327 41.048 233.327 41.928V48H231.765V41.444C231.765 40.2267 231.471 39.31 230.885 38.694C230.298 38.0633 229.477 37.748 228.421 37.748C227.643 37.748 226.961 37.9167 226.375 38.254C225.788 38.5767 225.333 39.0533 225.011 39.684C224.703 40.3 224.549 41.048 224.549 41.928V48H222.987V36.45H224.483V39.574L224.241 39.024C224.593 38.188 225.157 37.5353 225.935 37.066C226.727 36.582 227.658 36.34 228.729 36.34C229.858 36.34 230.819 36.626 231.611 37.198C232.403 37.7553 232.916 38.5987 233.151 39.728L232.535 39.486C232.872 38.5473 233.466 37.792 234.317 37.22C235.182 36.6333 236.216 36.34 237.419 36.34ZM251.027 48.11C249.912 48.11 248.907 47.8607 248.013 47.362C247.133 46.8487 246.436 46.152 245.923 45.272C245.409 44.3773 245.153 43.358 245.153 42.214C245.153 41.0553 245.409 40.036 245.923 39.156C246.436 38.276 247.133 37.5867 248.013 37.088C248.893 36.5893 249.897 36.34 251.027 36.34C252.171 36.34 253.183 36.5893 254.063 37.088C254.957 37.5867 255.654 38.276 256.153 39.156C256.666 40.036 256.923 41.0553 256.923 42.214C256.923 43.358 256.666 44.3773 256.153 45.272C255.654 46.152 254.957 46.8487 254.063 47.362C253.168 47.8607 252.156 48.11 251.027 48.11ZM251.027 46.724C251.863 46.724 252.603 46.5407 253.249 46.174C253.894 45.7927 254.4 45.2647 254.767 44.59C255.148 43.9007 255.339 43.1087 255.339 42.214C255.339 41.3047 255.148 40.5127 254.767 39.838C254.4 39.1633 253.894 38.6427 253.249 38.276C252.603 37.8947 251.87 37.704 251.049 37.704C250.227 37.704 249.494 37.8947 248.849 38.276C248.203 38.6427 247.69 39.1633 247.309 39.838C246.927 40.5127 246.737 41.3047 246.737 42.214C246.737 43.1087 246.927 43.9007 247.309 44.59C247.69 45.2647 248.203 45.7927 248.849 46.174C249.494 46.5407 250.22 46.724 251.027 46.724ZM266.008 36.34C266.946 36.34 267.768 36.5233 268.472 36.89C269.19 37.242 269.748 37.7847 270.144 38.518C270.554 39.2513 270.76 40.1753 270.76 41.29V48H269.198V41.444C269.198 40.2267 268.89 39.31 268.274 38.694C267.672 38.0633 266.822 37.748 265.722 37.748C264.9 37.748 264.182 37.9167 263.566 38.254C262.964 38.5767 262.495 39.0533 262.158 39.684C261.835 40.3 261.674 41.048 261.674 41.928V48H260.112V36.45H261.608V39.618L261.366 39.024C261.732 38.188 262.319 37.5353 263.126 37.066C263.932 36.582 264.893 36.34 266.008 36.34ZM278.631 48.11C277.545 48.11 276.709 47.8167 276.123 47.23C275.536 46.6433 275.243 45.8147 275.243 44.744V33.898H276.805V44.656C276.805 45.3307 276.973 45.8513 277.311 46.218C277.663 46.5847 278.161 46.768 278.807 46.768C279.496 46.768 280.068 46.57 280.523 46.174L281.073 47.296C280.765 47.5747 280.391 47.78 279.951 47.912C279.525 48.044 279.085 48.11 278.631 48.11ZM273.175 37.748V36.45H280.325V37.748H273.175ZM289.812 36.34C290.751 36.34 291.572 36.5233 292.276 36.89C292.995 37.242 293.552 37.7847 293.948 38.518C294.359 39.2513 294.564 40.1753 294.564 41.29V48H293.002V41.444C293.002 40.2267 292.694 39.31 292.078 38.694C291.477 38.0633 290.626 37.748 289.526 37.748C288.705 37.748 287.986 37.9167 287.37 38.254C286.769 38.5767 286.3 39.0533 285.962 39.684C285.64 40.3 285.478 41.048 285.478 41.928V48H283.916V31.676H285.478V39.618L285.17 39.024C285.537 38.188 286.124 37.5353 286.93 37.066C287.737 36.582 288.698 36.34 289.812 36.34ZM301.885 48.11C300.932 48.11 300.03 47.978 299.179 47.714C298.329 47.4353 297.661 47.0907 297.177 46.68L297.881 45.448C298.351 45.8 298.952 46.108 299.685 46.372C300.419 46.6213 301.189 46.746 301.995 46.746C303.095 46.746 303.887 46.5773 304.371 46.24C304.855 45.888 305.097 45.426 305.097 44.854C305.097 44.4287 304.958 44.0987 304.679 43.864C304.415 43.6147 304.063 43.4313 303.623 43.314C303.183 43.182 302.692 43.072 302.149 42.984C301.607 42.896 301.064 42.7933 300.521 42.676C299.993 42.5587 299.509 42.39 299.069 42.17C298.629 41.9353 298.27 41.62 297.991 41.224C297.727 40.828 297.595 40.3 297.595 39.64C297.595 39.0093 297.771 38.4447 298.123 37.946C298.475 37.4473 298.989 37.0587 299.663 36.78C300.353 36.4867 301.189 36.34 302.171 36.34C302.919 36.34 303.667 36.4427 304.415 36.648C305.163 36.8387 305.779 37.0953 306.263 37.418L305.581 38.672C305.068 38.32 304.518 38.0707 303.931 37.924C303.345 37.7627 302.758 37.682 302.171 37.682C301.13 37.682 300.36 37.8653 299.861 38.232C299.377 38.584 299.135 39.0387 299.135 39.596C299.135 40.036 299.267 40.3807 299.531 40.63C299.81 40.8793 300.169 41.0773 300.609 41.224C301.064 41.356 301.555 41.466 302.083 41.554C302.626 41.642 303.161 41.752 303.689 41.884C304.232 42.0013 304.723 42.17 305.163 42.39C305.618 42.5953 305.977 42.896 306.241 43.292C306.52 43.6733 306.659 44.1793 306.659 44.81C306.659 45.4847 306.469 46.0713 306.087 46.57C305.721 47.054 305.178 47.4353 304.459 47.714C303.755 47.978 302.897 48.11 301.885 48.11ZM312.131 43.38C312.131 42.764 312.226 42.236 312.417 41.796C312.622 41.356 312.872 40.9673 313.165 40.63C313.473 40.2927 313.796 39.9773 314.133 39.684C314.485 39.3907 314.815 39.0973 315.123 38.804C315.431 38.496 315.68 38.166 315.871 37.814C316.062 37.4473 316.157 37.022 316.157 36.538C316.157 35.746 315.849 35.1007 315.233 34.602C314.617 34.1033 313.744 33.854 312.615 33.854C311.676 33.854 310.862 34.008 310.173 34.316C309.484 34.6093 308.897 35.0493 308.413 35.636L307.247 34.756C307.834 34.0227 308.589 33.458 309.513 33.062C310.437 32.666 311.508 32.468 312.725 32.468C313.752 32.468 314.639 32.622 315.387 32.93C316.15 33.238 316.736 33.678 317.147 34.25C317.572 34.822 317.785 35.504 317.785 36.296C317.785 36.9267 317.682 37.4693 317.477 37.924C317.286 38.364 317.037 38.76 316.729 39.112C316.436 39.4493 316.113 39.772 315.761 40.08C315.424 40.3733 315.101 40.674 314.793 40.982C314.485 41.29 314.236 41.6347 314.045 42.016C313.854 42.3973 313.759 42.852 313.759 43.38H312.131ZM312.945 48.11C312.637 48.11 312.366 48 312.131 47.78C311.911 47.5453 311.801 47.274 311.801 46.966C311.801 46.6433 311.911 46.3793 312.131 46.174C312.366 45.954 312.637 45.844 312.945 45.844C313.282 45.844 313.561 45.954 313.781 46.174C314.001 46.3793 314.111 46.6433 314.111 46.966C314.111 47.274 314.001 47.5453 313.781 47.78C313.561 48 313.282 48.11 312.945 48.11Z" fill="black"/>
<path d="M143.477 444.305L146.516 438.578H147.945L144.141 445.57V450H142.812V445.633L139 438.578H140.453L143.477 444.305ZM152.265 441.281C152.994 441.281 153.619 441.443 154.14 441.766C154.661 442.089 155.059 442.542 155.335 443.125C155.612 443.703 155.75 444.38 155.75 445.156V445.961H149.835C149.851 446.966 150.101 447.732 150.585 448.258C151.07 448.784 151.752 449.047 152.632 449.047C153.174 449.047 153.653 448.997 154.07 448.898C154.487 448.799 154.919 448.654 155.367 448.461V449.602C154.934 449.794 154.505 449.935 154.078 450.023C153.656 450.112 153.156 450.156 152.578 450.156C151.755 450.156 151.036 449.99 150.421 449.656C149.812 449.318 149.338 448.823 149 448.172C148.661 447.521 148.492 446.724 148.492 445.781C148.492 444.859 148.645 444.062 148.953 443.391C149.265 442.714 149.703 442.193 150.265 441.828C150.833 441.464 151.5 441.281 152.265 441.281ZM152.25 442.344C151.557 442.344 151.005 442.57 150.593 443.023C150.182 443.477 149.937 444.109 149.859 444.922H154.39C154.385 444.411 154.304 443.964 154.148 443.578C153.997 443.188 153.765 442.885 153.453 442.672C153.14 442.453 152.739 442.344 152.25 442.344ZM163.14 447.656C163.14 448.203 163.002 448.664 162.726 449.039C162.455 449.409 162.064 449.688 161.554 449.875C161.049 450.062 160.444 450.156 159.741 450.156C159.142 450.156 158.624 450.109 158.187 450.016C157.749 449.922 157.366 449.789 157.038 449.617V448.422C157.387 448.594 157.804 448.75 158.288 448.891C158.773 449.031 159.267 449.102 159.773 449.102C160.512 449.102 161.049 448.982 161.382 448.742C161.715 448.503 161.882 448.177 161.882 447.766C161.882 447.531 161.814 447.326 161.679 447.148C161.549 446.966 161.327 446.792 161.015 446.625C160.702 446.453 160.27 446.266 159.718 446.062C159.171 445.854 158.697 445.648 158.296 445.445C157.9 445.237 157.593 444.984 157.374 444.688C157.161 444.391 157.054 444.005 157.054 443.531C157.054 442.807 157.345 442.253 157.929 441.867C158.517 441.477 159.288 441.281 160.241 441.281C160.757 441.281 161.239 441.333 161.687 441.438C162.14 441.536 162.562 441.672 162.952 441.844L162.515 442.883C162.161 442.732 161.783 442.604 161.382 442.5C160.981 442.396 160.572 442.344 160.155 442.344C159.556 442.344 159.095 442.443 158.773 442.641C158.455 442.839 158.296 443.109 158.296 443.453C158.296 443.719 158.369 443.938 158.515 444.109C158.666 444.281 158.905 444.443 159.233 444.594C159.562 444.745 159.994 444.922 160.53 445.125C161.067 445.323 161.53 445.529 161.921 445.742C162.312 445.951 162.611 446.206 162.819 446.508C163.033 446.805 163.14 447.188 163.14 447.656Z" fill="#1E1E1E"/>
<path d="M149.492 492H147.961L141.734 482.406H141.672C141.688 482.661 141.706 482.953 141.727 483.281C141.747 483.604 141.763 483.951 141.773 484.32C141.789 484.685 141.797 485.057 141.797 485.438V492H140.562V480.578H142.086L148.289 490.141H148.344C148.333 489.958 148.32 489.701 148.305 489.367C148.289 489.029 148.273 488.667 148.258 488.281C148.247 487.891 148.242 487.529 148.242 487.195V480.578H149.492V492ZM159.445 487.703C159.445 488.406 159.354 489.034 159.171 489.586C158.989 490.138 158.726 490.604 158.382 490.984C158.039 491.365 157.622 491.656 157.132 491.859C156.648 492.057 156.099 492.156 155.484 492.156C154.911 492.156 154.385 492.057 153.906 491.859C153.432 491.656 153.02 491.365 152.671 490.984C152.328 490.604 152.059 490.138 151.867 489.586C151.679 489.034 151.585 488.406 151.585 487.703C151.585 486.766 151.744 485.969 152.062 485.312C152.38 484.651 152.833 484.148 153.421 483.805C154.015 483.456 154.721 483.281 155.539 483.281C156.32 483.281 157.002 483.456 157.585 483.805C158.174 484.154 158.63 484.659 158.953 485.32C159.281 485.977 159.445 486.771 159.445 487.703ZM152.929 487.703C152.929 488.391 153.02 488.987 153.203 489.492C153.385 489.997 153.666 490.388 154.046 490.664C154.427 490.94 154.916 491.078 155.515 491.078C156.109 491.078 156.596 490.94 156.976 490.664C157.362 490.388 157.645 489.997 157.828 489.492C158.01 488.987 158.101 488.391 158.101 487.703C158.101 487.021 158.01 486.432 157.828 485.938C157.645 485.438 157.364 485.052 156.984 484.781C156.604 484.51 156.112 484.375 155.507 484.375C154.617 484.375 153.963 484.669 153.546 485.258C153.135 485.846 152.929 486.661 152.929 487.703Z" fill="#1E1E1E"/>
<rect x="104" y="432" width="24" height="24" fill="#1F78B4"/>
<rect x="104" y="474" width="24" height="24" fill="#FF7F00"/>
<path d="M160.855 219.633C161.848 219.633 162.742 219.789 163.539 220.102C164.336 220.406 164.969 220.863 165.438 221.473C165.906 222.082 166.141 222.836 166.141 223.734C166.141 224.43 165.996 225.035 165.707 225.551C165.426 226.066 165.043 226.52 164.559 226.91C164.074 227.293 163.531 227.633 162.93 227.93C163.602 228.258 164.219 228.637 164.781 229.066C165.352 229.488 165.809 229.984 166.152 230.555C166.504 231.125 166.68 231.793 166.68 232.559C166.68 233.52 166.434 234.352 165.941 235.055C165.457 235.75 164.781 236.289 163.914 236.672C163.047 237.047 162.035 237.234 160.879 237.234C159.637 237.234 158.578 237.051 157.703 236.684C156.828 236.316 156.164 235.793 155.711 235.113C155.258 234.426 155.031 233.605 155.031 232.652C155.031 231.863 155.188 231.18 155.5 230.602C155.812 230.023 156.23 229.523 156.754 229.102C157.285 228.68 157.867 228.324 158.5 228.035C157.961 227.715 157.469 227.355 157.023 226.957C156.578 226.551 156.223 226.086 155.957 225.562C155.699 225.031 155.57 224.418 155.57 223.723C155.57 222.832 155.809 222.086 156.285 221.484C156.762 220.875 157.398 220.414 158.195 220.102C159 219.789 159.887 219.633 160.855 219.633ZM157.656 232.547C157.656 233.297 157.922 233.914 158.453 234.398C158.984 234.883 159.777 235.125 160.832 235.125C161.879 235.125 162.676 234.887 163.223 234.41C163.77 233.934 164.043 233.305 164.043 232.523C164.043 232.023 163.902 231.582 163.621 231.199C163.348 230.816 162.977 230.477 162.508 230.18C162.047 229.875 161.535 229.594 160.973 229.336L160.598 229.184C159.988 229.441 159.465 229.734 159.027 230.062C158.59 230.383 158.25 230.746 158.008 231.152C157.773 231.559 157.656 232.023 157.656 232.547ZM160.832 221.754C160.074 221.754 159.449 221.941 158.957 222.316C158.473 222.684 158.23 223.215 158.23 223.91C158.23 224.402 158.348 224.824 158.582 225.176C158.824 225.527 159.148 225.832 159.555 226.09C159.961 226.34 160.41 226.574 160.902 226.793C161.379 226.582 161.809 226.352 162.191 226.102C162.582 225.844 162.891 225.539 163.117 225.188C163.352 224.828 163.469 224.398 163.469 223.898C163.469 223.211 163.223 222.684 162.73 222.316C162.246 221.941 161.613 221.754 160.832 221.754Z" fill="white"/>
<path d="M301.176 297H298.41V285.973C298.41 285.605 298.414 285.238 298.422 284.871C298.43 284.504 298.438 284.145 298.445 283.793C298.461 283.441 298.48 283.105 298.504 282.785C298.34 282.965 298.137 283.16 297.895 283.371C297.66 283.582 297.41 283.801 297.145 284.027L295.176 285.598L293.793 283.852L298.879 279.867H301.176V297ZM318.507 293.238H316.187V297H313.468V293.238H305.675V291.152L313.503 279.82H316.187V290.953H318.507V293.238ZM313.468 290.953V286.699C313.468 286.348 313.472 285.992 313.48 285.633C313.495 285.266 313.511 284.914 313.527 284.578C313.542 284.242 313.558 283.934 313.574 283.652C313.589 283.363 313.601 283.125 313.609 282.938H313.515C313.367 283.25 313.202 283.57 313.023 283.898C312.843 284.219 312.652 284.531 312.449 284.836L308.23 290.953H313.468Z" fill="white"/>
</svg>
