<svg width="445" height="508" viewBox="0 0 445 508" fill="none" xmlns="http://www.w3.org/2000/svg">
<path d="M14.7083 21.296L13.9823 20.592H18.4923V22H8.85633V20.592H13.8063L13.0803 21.296V7.26L13.7843 8.008H9.12033V6.6H14.7083V21.296ZM23.3366 22.11C23.014 22.11 22.7353 21.9927 22.5006 21.758C22.2806 21.5233 22.1706 21.2373 22.1706 20.9C22.1706 20.548 22.2806 20.262 22.5006 20.042C22.7353 19.822 23.014 19.712 23.3366 19.712C23.6593 19.712 23.9306 19.822 24.1506 20.042C24.3853 20.262 24.5026 20.548 24.5026 20.9C24.5026 21.2373 24.3853 21.5233 24.1506 21.758C23.9306 21.9927 23.6593 22.11 23.3366 22.11ZM35.508 22V6.6H41.778C43.4207 6.6 44.858 6.93 46.09 7.59C47.3367 8.23533 48.3047 9.13733 48.994 10.296C49.6833 11.4547 50.028 12.7893 50.028 14.3C50.028 15.8107 49.6833 17.1453 48.994 18.304C48.3047 19.4627 47.3367 20.372 46.09 21.032C44.858 21.6773 43.4207 22 41.778 22H35.508ZM37.136 20.592H41.69C43.054 20.592 44.2347 20.328 45.232 19.8C46.244 19.2573 47.0287 18.5167 47.586 17.578C48.1433 16.6247 48.422 15.532 48.422 14.3C48.422 13.0533 48.1433 11.9607 47.586 11.022C47.0287 10.0833 46.244 9.35 45.232 8.822C44.2347 8.27933 43.054 8.008 41.69 8.008H37.136V20.592ZM58.0618 22.11C56.9471 22.11 55.9424 21.8607 55.0478 21.362C54.1678 20.8487 53.4711 20.152 52.9578 19.272C52.4444 18.3773 52.1878 17.358 52.1878 16.214C52.1878 15.0553 52.4444 14.036 52.9578 13.156C53.4711 12.276 54.1678 11.5867 55.0478 11.088C55.9278 10.5893 56.9324 10.34 58.0618 10.34C59.2058 10.34 60.2178 10.5893 61.0978 11.088C61.9924 11.5867 62.6891 12.276 63.1878 13.156C63.7011 14.036 63.9578 15.0553 63.9578 16.214C63.9578 17.358 63.7011 18.3773 63.1878 19.272C62.6891 20.152 61.9924 20.8487 61.0978 21.362C60.2031 21.8607 59.1911 22.11 58.0618 22.11ZM58.0618 20.724C58.8978 20.724 59.6384 20.5407 60.2838 20.174C60.9291 19.7927 61.4351 19.2647 61.8018 18.59C62.1831 17.9007 62.3738 17.1087 62.3738 16.214C62.3738 15.3047 62.1831 14.5127 61.8018 13.838C61.4351 13.1633 60.9291 12.6427 60.2838 12.276C59.6384 11.8947 58.9051 11.704 58.0838 11.704C57.2624 11.704 56.5291 11.8947 55.8838 12.276C55.2384 12.6427 54.7251 13.1633 54.3438 13.838C53.9624 14.5127 53.7718 15.3047 53.7718 16.214C53.7718 17.1087 53.9624 17.9007 54.3438 18.59C54.7251 19.2647 55.2384 19.7927 55.8838 20.174C56.5291 20.5407 57.2551 20.724 58.0618 20.724ZM72.9926 26.378C72.4499 26.378 71.9292 26.29 71.4306 26.114C70.9466 25.938 70.5286 25.674 70.1766 25.322L70.9026 24.156C71.1959 24.4347 71.5112 24.6473 71.8486 24.794C72.2006 24.9553 72.5892 25.036 73.0146 25.036C73.5279 25.036 73.9679 24.8893 74.3346 24.596C74.7159 24.3173 75.0752 23.8187 75.4126 23.1L76.1606 21.406L76.3366 21.164L81.0886 10.45H82.6286L76.8426 23.386C76.5199 24.134 76.1606 24.728 75.7646 25.168C75.3832 25.608 74.9652 25.916 74.5106 26.092C74.0559 26.2827 73.5499 26.378 72.9926 26.378ZM76.0726 22.33L70.7486 10.45H72.3766L77.0846 21.054L76.0726 22.33ZM89.2141 22.11C88.0995 22.11 87.0948 21.8607 86.2001 21.362C85.3201 20.8487 84.6235 20.152 84.1101 19.272C83.5968 18.3773 83.3401 17.358 83.3401 16.214C83.3401 15.0553 83.5968 14.036 84.1101 13.156C84.6235 12.276 85.3201 11.5867 86.2001 11.088C87.0801 10.5893 88.0848 10.34 89.2141 10.34C90.3581 10.34 91.3701 10.5893 92.2501 11.088C93.1448 11.5867 93.8415 12.276 94.3401 13.156C94.8535 14.036 95.1101 15.0553 95.1101 16.214C95.1101 17.358 94.8535 18.3773 94.3401 19.272C93.8415 20.152 93.1448 20.8487 92.2501 21.362C91.3555 21.8607 90.3435 22.11 89.2141 22.11ZM89.2141 20.724C90.0501 20.724 90.7908 20.5407 91.4361 20.174C92.0815 19.7927 92.5875 19.2647 92.9541 18.59C93.3355 17.9007 93.5261 17.1087 93.5261 16.214C93.5261 15.3047 93.3355 14.5127 92.9541 13.838C92.5875 13.1633 92.0815 12.6427 91.4361 12.276C90.7908 11.8947 90.0575 11.704 89.2361 11.704C88.4148 11.704 87.6815 11.8947 87.0361 12.276C86.3908 12.6427 85.8775 13.1633 85.4961 13.838C85.1148 14.5127 84.9241 15.3047 84.9241 16.214C84.9241 17.1087 85.1148 17.9007 85.4961 18.59C85.8775 19.2647 86.3908 19.7927 87.0361 20.174C87.6815 20.5407 88.4075 20.724 89.2141 20.724ZM103.073 22.11C102.09 22.11 101.232 21.9267 100.499 21.56C99.7658 21.1933 99.1938 20.6433 98.7831 19.91C98.3871 19.1767 98.1891 18.26 98.1891 17.16V10.45H99.7511V16.984C99.7511 18.216 100.052 19.1473 100.653 19.778C101.269 20.394 102.127 20.702 103.227 20.702C104.034 20.702 104.73 20.5407 105.317 20.218C105.918 19.8807 106.373 19.3967 106.681 18.766C107.004 18.1353 107.165 17.38 107.165 16.5V10.45H108.727V22H107.231V18.832L107.473 19.404C107.106 20.2547 106.534 20.922 105.757 21.406C104.994 21.8753 104.1 22.11 103.073 22.11ZM120.07 19.008L120.114 17.006L127.308 10.45H129.222L124.14 15.312L123.26 16.06L120.07 19.008ZM118.838 22V5.676H120.4V22H118.838ZM127.792 22L122.974 15.994L123.986 14.784L129.706 22H127.792ZM137.775 10.34C138.714 10.34 139.535 10.5233 140.239 10.89C140.958 11.242 141.515 11.7847 141.911 12.518C142.322 13.2513 142.527 14.1753 142.527 15.29V22H140.965V15.444C140.965 14.2267 140.657 13.31 140.041 12.694C139.44 12.0633 138.589 11.748 137.489 11.748C136.668 11.748 135.949 11.9167 135.333 12.254C134.732 12.5767 134.263 13.0533 133.925 13.684C133.603 14.3 133.441 15.048 133.441 15.928V22H131.879V10.45H133.375V13.618L133.133 13.024C133.5 12.188 134.087 11.5353 134.893 11.066C135.7 10.582 136.661 10.34 137.775 10.34ZM151.454 22.11C150.34 22.11 149.335 21.8607 148.44 21.362C147.56 20.8487 146.864 20.152 146.35 19.272C145.837 18.3773 145.58 17.358 145.58 16.214C145.58 15.0553 145.837 14.036 146.35 13.156C146.864 12.276 147.56 11.5867 148.44 11.088C149.32 10.5893 150.325 10.34 151.454 10.34C152.598 10.34 153.61 10.5893 154.49 11.088C155.385 11.5867 156.082 12.276 156.58 13.156C157.094 14.036 157.35 15.0553 157.35 16.214C157.35 17.358 157.094 18.3773 156.58 19.272C156.082 20.152 155.385 20.8487 154.49 21.362C153.596 21.8607 152.584 22.11 151.454 22.11ZM151.454 20.724C152.29 20.724 153.031 20.5407 153.676 20.174C154.322 19.7927 154.828 19.2647 155.194 18.59C155.576 17.9007 155.766 17.1087 155.766 16.214C155.766 15.3047 155.576 14.5127 155.194 13.838C154.828 13.1633 154.322 12.6427 153.676 12.276C153.031 11.8947 152.298 11.704 151.476 11.704C150.655 11.704 149.922 11.8947 149.276 12.276C148.631 12.6427 148.118 13.1633 147.736 13.838C147.355 14.5127 147.164 15.3047 147.164 16.214C147.164 17.1087 147.355 17.9007 147.736 18.59C148.118 19.2647 148.631 19.7927 149.276 20.174C149.922 20.5407 150.648 20.724 151.454 20.724ZM162.571 22L158.215 10.45H159.711L163.671 21.164H162.989L167.059 10.45H168.401L172.427 21.164H171.745L175.771 10.45H177.201L172.823 22H171.349L167.477 11.924H167.939L164.045 22H162.571ZM190.217 22.11C189.014 22.11 187.958 21.8607 187.049 21.362C186.139 20.8487 185.428 20.152 184.915 19.272C184.401 18.3773 184.145 17.358 184.145 16.214C184.145 15.07 184.387 14.058 184.871 13.178C185.369 12.298 186.044 11.6087 186.895 11.11C187.76 10.5967 188.728 10.34 189.799 10.34C190.884 10.34 191.845 10.5893 192.681 11.088C193.531 11.572 194.199 12.2613 194.683 13.156C195.167 14.036 195.409 15.0553 195.409 16.214C195.409 16.2873 195.401 16.368 195.387 16.456C195.387 16.5293 195.387 16.61 195.387 16.698H185.333V15.532H194.551L193.935 15.994C193.935 15.158 193.751 14.4173 193.385 13.772C193.033 13.112 192.549 12.5987 191.933 12.232C191.317 11.8653 190.605 11.682 189.799 11.682C189.007 11.682 188.295 11.8653 187.665 12.232C187.034 12.5987 186.543 13.112 186.191 13.772C185.839 14.432 185.663 15.1873 185.663 16.038V16.28C185.663 17.16 185.853 17.9373 186.235 18.612C186.631 19.272 187.173 19.7927 187.863 20.174C188.567 20.5407 189.366 20.724 190.261 20.724C190.965 20.724 191.617 20.5993 192.219 20.35C192.835 20.1007 193.363 19.7193 193.803 19.206L194.683 20.218C194.169 20.834 193.524 21.3033 192.747 21.626C191.984 21.9487 191.141 22.11 190.217 22.11ZM196.506 22L201.39 15.664L201.368 16.434L196.726 10.45H198.486L202.292 15.4L201.632 15.378L205.438 10.45H207.154L202.468 16.5L202.49 15.664L207.418 22H205.636L201.61 16.72L202.226 16.808L198.266 22H196.506ZM217.041 22V19.448L216.975 19.03V14.762C216.975 13.7793 216.696 13.024 216.139 12.496C215.596 11.968 214.782 11.704 213.697 11.704C212.949 11.704 212.238 11.8287 211.563 12.078C210.888 12.3273 210.316 12.6573 209.847 13.068L209.143 11.902C209.73 11.4033 210.434 11.022 211.255 10.758C212.076 10.4793 212.942 10.34 213.851 10.34C215.347 10.34 216.498 10.714 217.305 11.462C218.126 12.1953 218.537 13.3173 218.537 14.828V22H217.041ZM213.059 22.11C212.194 22.11 211.438 21.9707 210.793 21.692C210.162 21.3987 209.678 21.0027 209.341 20.504C209.004 19.9907 208.835 19.404 208.835 18.744C208.835 18.1427 208.974 17.6 209.253 17.116C209.546 16.6173 210.016 16.2213 210.661 15.928C211.321 15.62 212.201 15.466 213.301 15.466H217.283V16.632H213.345C212.23 16.632 211.453 16.83 211.013 17.226C210.588 17.622 210.375 18.1133 210.375 18.7C210.375 19.36 210.632 19.888 211.145 20.284C211.658 20.68 212.377 20.878 213.301 20.878C214.181 20.878 214.936 20.68 215.567 20.284C216.212 19.8733 216.682 19.2867 216.975 18.524L217.327 19.602C217.034 20.3647 216.52 20.9733 215.787 21.428C215.068 21.8827 214.159 22.11 213.059 22.11ZM227.576 22.11C226.432 22.11 225.405 21.8607 224.496 21.362C223.601 20.8487 222.897 20.152 222.384 19.272C221.87 18.3773 221.614 17.358 221.614 16.214C221.614 15.0553 221.87 14.036 222.384 13.156C222.897 12.276 223.601 11.5867 224.496 11.088C225.405 10.5893 226.432 10.34 227.576 10.34C228.558 10.34 229.446 10.5307 230.238 10.912C231.03 11.2933 231.653 11.8653 232.108 12.628L230.942 13.42C230.546 12.8333 230.054 12.4007 229.468 12.122C228.881 11.8433 228.243 11.704 227.554 11.704C226.732 11.704 225.992 11.8947 225.332 12.276C224.672 12.6427 224.151 13.1633 223.77 13.838C223.388 14.5127 223.198 15.3047 223.198 16.214C223.198 17.1233 223.388 17.9153 223.77 18.59C224.151 19.2647 224.672 19.7927 225.332 20.174C225.992 20.5407 226.732 20.724 227.554 20.724C228.243 20.724 228.881 20.5847 229.468 20.306C230.054 20.0273 230.546 19.602 230.942 19.03L232.108 19.822C231.653 20.57 231.03 21.142 230.238 21.538C229.446 21.9193 228.558 22.11 227.576 22.11ZM238.957 22.11C237.872 22.11 237.036 21.8167 236.449 21.23C235.862 20.6433 235.569 19.8147 235.569 18.744V7.898H237.131V18.656C237.131 19.3307 237.3 19.8513 237.637 20.218C237.989 20.5847 238.488 20.768 239.133 20.768C239.822 20.768 240.394 20.57 240.849 20.174L241.399 21.296C241.091 21.5747 240.717 21.78 240.277 21.912C239.852 22.044 239.412 22.11 238.957 22.11ZM233.501 11.748V10.45H240.651V11.748H233.501ZM244.242 22V5.676H245.804V22H244.242ZM250.239 26.378C249.696 26.378 249.175 26.29 248.677 26.114C248.193 25.938 247.775 25.674 247.423 25.322L248.149 24.156C248.442 24.4347 248.757 24.6473 249.095 24.794C249.447 24.9553 249.835 25.036 250.261 25.036C250.774 25.036 251.214 24.8893 251.581 24.596C251.962 24.3173 252.321 23.8187 252.659 23.1L253.407 21.406L253.583 21.164L258.335 10.45H259.875L254.089 23.386C253.766 24.134 253.407 24.728 253.011 25.168C252.629 25.608 252.211 25.916 251.757 26.092C251.302 26.2827 250.796 26.378 250.239 26.378ZM253.319 22.33L247.995 10.45H249.623L254.331 21.054L253.319 22.33ZM273.728 10.34C274.667 10.34 275.488 10.5233 276.192 10.89C276.911 11.242 277.468 11.7847 277.864 12.518C278.275 13.2513 278.48 14.1753 278.48 15.29V22H276.918V15.444C276.918 14.2267 276.61 13.31 275.994 12.694C275.393 12.0633 274.542 11.748 273.442 11.748C272.621 11.748 271.902 11.9167 271.286 12.254C270.685 12.5767 270.216 13.0533 269.878 13.684C269.556 14.3 269.394 15.048 269.394 15.928V22H267.832V5.676H269.394V13.618L269.086 13.024C269.453 12.188 270.04 11.5353 270.846 11.066C271.653 10.582 272.614 10.34 273.728 10.34ZM287.407 22.11C286.293 22.11 285.288 21.8607 284.393 21.362C283.513 20.8487 282.817 20.152 282.303 19.272C281.79 18.3773 281.533 17.358 281.533 16.214C281.533 15.0553 281.79 14.036 282.303 13.156C282.817 12.276 283.513 11.5867 284.393 11.088C285.273 10.5893 286.278 10.34 287.407 10.34C288.551 10.34 289.563 10.5893 290.443 11.088C291.338 11.5867 292.035 12.276 292.533 13.156C293.047 14.036 293.303 15.0553 293.303 16.214C293.303 17.358 293.047 18.3773 292.533 19.272C292.035 20.152 291.338 20.8487 290.443 21.362C289.549 21.8607 288.537 22.11 287.407 22.11ZM287.407 20.724C288.243 20.724 288.984 20.5407 289.629 20.174C290.275 19.7927 290.781 19.2647 291.147 18.59C291.529 17.9007 291.719 17.1087 291.719 16.214C291.719 15.3047 291.529 14.5127 291.147 13.838C290.781 13.1633 290.275 12.6427 289.629 12.276C288.984 11.8947 288.251 11.704 287.429 11.704C286.608 11.704 285.875 11.8947 285.229 12.276C284.584 12.6427 284.071 13.1633 283.689 13.838C283.308 14.5127 283.117 15.3047 283.117 16.214C283.117 17.1087 283.308 17.9007 283.689 18.59C284.071 19.2647 284.584 19.7927 285.229 20.174C285.875 20.5407 286.601 20.724 287.407 20.724ZM298.524 22L294.168 10.45H295.664L299.624 21.164H298.942L303.012 10.45H304.354L308.38 21.164H307.698L311.724 10.45H313.154L308.776 22H307.302L303.43 11.924H303.892L299.998 22H298.524ZM335.696 10.34C336.635 10.34 337.449 10.5233 338.138 10.89C338.842 11.242 339.385 11.7847 339.766 12.518C340.162 13.2513 340.36 14.1753 340.36 15.29V22H338.798V15.444C338.798 14.2267 338.505 13.31 337.918 12.694C337.346 12.0633 336.532 11.748 335.476 11.748C334.684 11.748 333.995 11.9167 333.408 12.254C332.836 12.5767 332.389 13.0533 332.066 13.684C331.758 14.3 331.604 15.048 331.604 15.928V22H330.042V15.444C330.042 14.2267 329.749 13.31 329.162 12.694C328.575 12.0633 327.754 11.748 326.698 11.748C325.921 11.748 325.239 11.9167 324.652 12.254C324.065 12.5767 323.611 13.0533 323.288 13.684C322.98 14.3 322.826 15.048 322.826 15.928V22H321.264V10.45H322.76V13.574L322.518 13.024C322.87 12.188 323.435 11.5353 324.212 11.066C325.004 10.582 325.935 10.34 327.006 10.34C328.135 10.34 329.096 10.626 329.888 11.198C330.68 11.7553 331.193 12.5987 331.428 13.728L330.812 13.486C331.149 12.5473 331.743 11.792 332.594 11.22C333.459 10.6333 334.493 10.34 335.696 10.34ZM351.834 22V19.448L351.768 19.03V14.762C351.768 13.7793 351.489 13.024 350.932 12.496C350.389 11.968 349.575 11.704 348.49 11.704C347.742 11.704 347.031 11.8287 346.356 12.078C345.681 12.3273 345.109 12.6573 344.64 13.068L343.936 11.902C344.523 11.4033 345.227 11.022 346.048 10.758C346.869 10.4793 347.735 10.34 348.644 10.34C350.14 10.34 351.291 10.714 352.098 11.462C352.919 12.1953 353.33 13.3173 353.33 14.828V22H351.834ZM347.852 22.11C346.987 22.11 346.231 21.9707 345.586 21.692C344.955 21.3987 344.471 21.0027 344.134 20.504C343.797 19.9907 343.628 19.404 343.628 18.744C343.628 18.1427 343.767 17.6 344.046 17.116C344.339 16.6173 344.809 16.2213 345.454 15.928C346.114 15.62 346.994 15.466 348.094 15.466H352.076V16.632H348.138C347.023 16.632 346.246 16.83 345.806 17.226C345.381 17.622 345.168 18.1133 345.168 18.7C345.168 19.36 345.425 19.888 345.938 20.284C346.451 20.68 347.17 20.878 348.094 20.878C348.974 20.878 349.729 20.68 350.36 20.284C351.005 19.8733 351.475 19.2867 351.768 18.524L352.12 19.602C351.827 20.3647 351.313 20.9733 350.58 21.428C349.861 21.8827 348.952 22.11 347.852 22.11ZM363.469 10.34C364.407 10.34 365.229 10.5233 365.933 10.89C366.651 11.242 367.209 11.7847 367.605 12.518C368.015 13.2513 368.221 14.1753 368.221 15.29V22H366.659V15.444C366.659 14.2267 366.351 13.31 365.735 12.694C365.133 12.0633 364.283 11.748 363.183 11.748C362.361 11.748 361.643 11.9167 361.027 12.254C360.425 12.5767 359.956 13.0533 359.619 13.684C359.296 14.3 359.135 15.048 359.135 15.928V22H357.573V10.45H359.069V13.618L358.827 13.024C359.193 12.188 359.78 11.5353 360.587 11.066C361.393 10.582 362.354 10.34 363.469 10.34ZM372.313 26.378C371.77 26.378 371.25 26.29 370.751 26.114C370.267 25.938 369.849 25.674 369.497 25.322L370.223 24.156C370.516 24.4347 370.832 24.6473 371.169 24.794C371.521 24.9553 371.91 25.036 372.335 25.036C372.848 25.036 373.288 24.8893 373.655 24.596C374.036 24.3173 374.396 23.8187 374.733 23.1L375.481 21.406L375.657 21.164L380.409 10.45H381.949L376.163 23.386C375.84 24.134 375.481 24.728 375.085 25.168C374.704 25.608 374.286 25.916 373.831 26.092C373.376 26.2827 372.87 26.378 372.313 26.378ZM375.393 22.33L370.069 10.45H371.697L376.405 21.054L375.393 22.33ZM38.28 51.11C37.3267 51.11 36.4247 50.978 35.574 50.714C34.7233 50.4353 34.056 50.0907 33.572 49.68L34.276 48.448C34.7453 48.8 35.3467 49.108 36.08 49.372C36.8133 49.6213 37.5833 49.746 38.39 49.746C39.49 49.746 40.282 49.5773 40.766 49.24C41.25 48.888 41.492 48.426 41.492 47.854C41.492 47.4287 41.3527 47.0987 41.074 46.864C40.81 46.6147 40.458 46.4313 40.018 46.314C39.578 46.182 39.0867 46.072 38.544 45.984C38.0013 45.896 37.4587 45.7933 36.916 45.676C36.388 45.5587 35.904 45.39 35.464 45.17C35.024 44.9353 34.6647 44.62 34.386 44.224C34.122 43.828 33.99 43.3 33.99 42.64C33.99 42.0093 34.166 41.4447 34.518 40.946C34.87 40.4473 35.3833 40.0587 36.058 39.78C36.7473 39.4867 37.5833 39.34 38.566 39.34C39.314 39.34 40.062 39.4427 40.81 39.648C41.558 39.8387 42.174 40.0953 42.658 40.418L41.976 41.672C41.4627 41.32 40.9127 41.0707 40.326 40.924C39.7393 40.7627 39.1527 40.682 38.566 40.682C37.5247 40.682 36.7547 40.8653 36.256 41.232C35.772 41.584 35.53 42.0387 35.53 42.596C35.53 43.036 35.662 43.3807 35.926 43.63C36.2047 43.8793 36.564 44.0773 37.004 44.224C37.4587 44.356 37.95 44.466 38.478 44.554C39.0207 44.642 39.556 44.752 40.084 44.884C40.6267 45.0013 41.118 45.17 41.558 45.39C42.0127 45.5953 42.372 45.896 42.636 46.292C42.9147 46.6733 43.054 47.1793 43.054 47.81C43.054 48.4847 42.8633 49.0713 42.482 49.57C42.1153 50.054 41.5727 50.4353 40.854 50.714C40.15 50.978 39.292 51.11 38.28 51.11ZM50.6942 51.11C49.7115 51.11 48.8535 50.9267 48.1202 50.56C47.3869 50.1933 46.8149 49.6433 46.4042 48.91C46.0082 48.1767 45.8102 47.26 45.8102 46.16V39.45H47.3722V45.984C47.3722 47.216 47.6729 48.1473 48.2742 48.778C48.8902 49.394 49.7482 49.702 50.8482 49.702C51.6549 49.702 52.3515 49.5407 52.9382 49.218C53.5395 48.8807 53.9942 48.3967 54.3022 47.766C54.6249 47.1353 54.7862 46.38 54.7862 45.5V39.45H56.3482V51H54.8522V47.832L55.0942 48.404C54.7275 49.2547 54.1555 49.922 53.3782 50.406C52.6155 50.8753 51.7209 51.11 50.6942 51.11ZM66.6634 51.11C65.6514 51.11 64.7421 50.8827 63.9354 50.428C63.1288 49.9587 62.4908 49.284 62.0214 48.404C61.5521 47.524 61.3174 46.4607 61.3174 45.214C61.3174 43.9527 61.5521 42.8893 62.0214 42.024C62.5054 41.144 63.1508 40.4767 63.9574 40.022C64.7641 39.5673 65.6661 39.34 66.6634 39.34C67.7634 39.34 68.7461 39.5893 69.6114 40.088C70.4914 40.572 71.1808 41.254 71.6794 42.134C72.1781 43.014 72.4274 44.0407 72.4274 45.214C72.4274 46.3727 72.1781 47.3993 71.6794 48.294C71.1808 49.174 70.4914 49.8633 69.6114 50.362C68.7461 50.8607 67.7634 51.11 66.6634 51.11ZM60.7014 51V34.676H62.2634V42.86L62.0434 45.192L62.1974 47.524V51H60.7014ZM66.5534 49.724C67.3748 49.724 68.1081 49.5407 68.7534 49.174C69.3988 48.7927 69.9121 48.2647 70.2934 47.59C70.6748 46.9007 70.8654 46.1087 70.8654 45.214C70.8654 44.3047 70.6748 43.5127 70.2934 42.838C69.9121 42.1633 69.3988 41.6427 68.7534 41.276C68.1081 40.8947 67.3748 40.704 66.5534 40.704C65.7321 40.704 64.9914 40.8947 64.3314 41.276C63.6861 41.6427 63.1728 42.1633 62.7914 42.838C62.4248 43.5127 62.2414 44.3047 62.2414 45.214C62.2414 46.1087 62.4248 46.9007 62.7914 47.59C63.1728 48.2647 63.6861 48.7927 64.3314 49.174C64.9914 49.5407 65.7321 49.724 66.5534 49.724ZM78.7136 51.11C77.7603 51.11 76.8583 50.978 76.0076 50.714C75.1569 50.4353 74.4896 50.0907 74.0056 49.68L74.7096 48.448C75.1789 48.8 75.7803 49.108 76.5136 49.372C77.2469 49.6213 78.0169 49.746 78.8236 49.746C79.9236 49.746 80.7156 49.5773 81.1996 49.24C81.6836 48.888 81.9256 48.426 81.9256 47.854C81.9256 47.4287 81.7863 47.0987 81.5076 46.864C81.2436 46.6147 80.8916 46.4313 80.4516 46.314C80.0116 46.182 79.5203 46.072 78.9776 45.984C78.4349 45.896 77.8923 45.7933 77.3496 45.676C76.8216 45.5587 76.3376 45.39 75.8976 45.17C75.4576 44.9353 75.0983 44.62 74.8196 44.224C74.5556 43.828 74.4236 43.3 74.4236 42.64C74.4236 42.0093 74.5996 41.4447 74.9516 40.946C75.3036 40.4473 75.8169 40.0587 76.4916 39.78C77.1809 39.4867 78.0169 39.34 78.9996 39.34C79.7476 39.34 80.4956 39.4427 81.2436 39.648C81.9916 39.8387 82.6076 40.0953 83.0916 40.418L82.4096 41.672C81.8963 41.32 81.3463 41.0707 80.7596 40.924C80.1729 40.7627 79.5863 40.682 78.9996 40.682C77.9583 40.682 77.1883 40.8653 76.6896 41.232C76.2056 41.584 75.9636 42.0387 75.9636 42.596C75.9636 43.036 76.0956 43.3807 76.3596 43.63C76.6383 43.8793 76.9976 44.0773 77.4376 44.224C77.8923 44.356 78.3836 44.466 78.9116 44.554C79.4543 44.642 79.9896 44.752 80.5176 44.884C81.0603 45.0013 81.5516 45.17 81.9916 45.39C82.4463 45.5953 82.8056 45.896 83.0696 46.292C83.3483 46.6733 83.4876 47.1793 83.4876 47.81C83.4876 48.4847 83.2969 49.0713 82.9156 49.57C82.5489 50.054 82.0063 50.4353 81.2876 50.714C80.5836 50.978 79.7256 51.11 78.7136 51.11ZM91.1498 51.11C90.0058 51.11 88.9791 50.8607 88.0698 50.362C87.1751 49.8487 86.4711 49.152 85.9578 48.272C85.4444 47.3773 85.1878 46.358 85.1878 45.214C85.1878 44.0553 85.4444 43.036 85.9578 42.156C86.4711 41.276 87.1751 40.5867 88.0698 40.088C88.9791 39.5893 90.0058 39.34 91.1498 39.34C92.1324 39.34 93.0198 39.5307 93.8118 39.912C94.6038 40.2933 95.2271 40.8653 95.6818 41.628L94.5158 42.42C94.1198 41.8333 93.6284 41.4007 93.0418 41.122C92.4551 40.8433 91.8171 40.704 91.1278 40.704C90.3064 40.704 89.5658 40.8947 88.9058 41.276C88.2458 41.6427 87.7251 42.1633 87.3438 42.838C86.9624 43.5127 86.7718 44.3047 86.7718 45.214C86.7718 46.1233 86.9624 46.9153 87.3438 47.59C87.7251 48.2647 88.2458 48.7927 88.9058 49.174C89.5658 49.5407 90.3064 49.724 91.1278 49.724C91.8171 49.724 92.4551 49.5847 93.0418 49.306C93.6284 49.0273 94.1198 48.602 94.5158 48.03L95.6818 48.822C95.2271 49.57 94.6038 50.142 93.8118 50.538C93.0198 50.9193 92.1324 51.11 91.1498 51.11ZM98.7503 51V39.45H100.246V42.596L100.092 42.046C100.415 41.166 100.958 40.4987 101.72 40.044C102.483 39.5747 103.429 39.34 104.558 39.34V40.858C104.5 40.858 104.441 40.858 104.382 40.858C104.324 40.8433 104.265 40.836 104.206 40.836C102.989 40.836 102.036 41.21 101.346 41.958C100.657 42.6913 100.312 43.74 100.312 45.104V51H98.7503ZM107.408 51V39.45H108.97V51H107.408ZM108.2 36.898C107.878 36.898 107.606 36.788 107.386 36.568C107.166 36.348 107.056 36.084 107.056 35.776C107.056 35.468 107.166 35.2113 107.386 35.006C107.606 34.786 107.878 34.676 108.2 34.676C108.523 34.676 108.794 34.7787 109.014 34.984C109.234 35.1893 109.344 35.446 109.344 35.754C109.344 36.0767 109.234 36.348 109.014 36.568C108.809 36.788 108.538 36.898 108.2 36.898ZM119.279 51.11C118.281 51.11 117.379 50.8827 116.573 50.428C115.766 49.9587 115.121 49.2913 114.637 48.426C114.167 47.546 113.933 46.4753 113.933 45.214C113.933 43.9527 114.167 42.8893 114.637 42.024C115.106 41.144 115.744 40.4767 116.551 40.022C117.357 39.5673 118.267 39.34 119.279 39.34C120.379 39.34 121.361 39.5893 122.227 40.088C123.107 40.572 123.796 41.2613 124.295 42.156C124.793 43.036 125.043 44.0553 125.043 45.214C125.043 46.3873 124.793 47.414 124.295 48.294C123.796 49.174 123.107 49.8633 122.227 50.362C121.361 50.8607 120.379 51.11 119.279 51.11ZM113.317 55.268V39.45H114.813V42.926L114.659 45.236L114.879 47.568V55.268H113.317ZM119.169 49.724C119.99 49.724 120.723 49.5407 121.369 49.174C122.014 48.7927 122.527 48.2647 122.909 47.59C123.29 46.9007 123.481 46.1087 123.481 45.214C123.481 44.3193 123.29 43.5347 122.909 42.86C122.527 42.1853 122.014 41.6573 121.369 41.276C120.723 40.8947 119.99 40.704 119.169 40.704C118.347 40.704 117.607 40.8947 116.947 41.276C116.301 41.6573 115.788 42.1853 115.407 42.86C115.04 43.5347 114.857 44.3193 114.857 45.214C114.857 46.1087 115.04 46.9007 115.407 47.59C115.788 48.2647 116.301 48.7927 116.947 49.174C117.607 49.5407 118.347 49.724 119.169 49.724ZM131.879 51.11C130.793 51.11 129.957 50.8167 129.371 50.23C128.784 49.6433 128.491 48.8147 128.491 47.744V36.898H130.053V47.656C130.053 48.3307 130.221 48.8513 130.559 49.218C130.911 49.5847 131.409 49.768 132.055 49.768C132.744 49.768 133.316 49.57 133.771 49.174L134.321 50.296C134.013 50.5747 133.639 50.78 133.199 50.912C132.773 51.044 132.333 51.11 131.879 51.11ZM126.423 40.748V39.45H133.573V40.748H126.423ZM137.164 51V39.45H138.726V51H137.164ZM137.956 36.898C137.634 36.898 137.362 36.788 137.142 36.568C136.922 36.348 136.812 36.084 136.812 35.776C136.812 35.468 136.922 35.2113 137.142 35.006C137.362 34.786 137.634 34.676 137.956 34.676C138.279 34.676 138.55 34.7787 138.77 34.984C138.99 35.1893 139.1 35.446 139.1 35.754C139.1 36.0767 138.99 36.348 138.77 36.568C138.565 36.788 138.294 36.898 137.956 36.898ZM147.781 51.11C146.666 51.11 145.661 50.8607 144.767 50.362C143.887 49.8487 143.19 49.152 142.677 48.272C142.163 47.3773 141.907 46.358 141.907 45.214C141.907 44.0553 142.163 43.036 142.677 42.156C143.19 41.276 143.887 40.5867 144.767 40.088C145.647 39.5893 146.651 39.34 147.781 39.34C148.925 39.34 149.937 39.5893 150.817 40.088C151.711 40.5867 152.408 41.276 152.907 42.156C153.42 43.036 153.677 44.0553 153.677 45.214C153.677 46.358 153.42 47.3773 152.907 48.272C152.408 49.152 151.711 49.8487 150.817 50.362C149.922 50.8607 148.91 51.11 147.781 51.11ZM147.781 49.724C148.617 49.724 149.357 49.5407 150.003 49.174C150.648 48.7927 151.154 48.2647 151.521 47.59C151.902 46.9007 152.093 46.1087 152.093 45.214C152.093 44.3047 151.902 43.5127 151.521 42.838C151.154 42.1633 150.648 41.6427 150.003 41.276C149.357 40.8947 148.624 40.704 147.803 40.704C146.981 40.704 146.248 40.8947 145.603 41.276C144.957 41.6427 144.444 42.1633 144.063 42.838C143.681 43.5127 143.491 44.3047 143.491 45.214C143.491 46.1087 143.681 46.9007 144.063 47.59C144.444 48.2647 144.957 48.7927 145.603 49.174C146.248 49.5407 146.974 49.724 147.781 49.724ZM162.762 39.34C163.7 39.34 164.522 39.5233 165.226 39.89C165.944 40.242 166.502 40.7847 166.898 41.518C167.308 42.2513 167.514 43.1753 167.514 44.29V51H165.952V44.444C165.952 43.2267 165.644 42.31 165.028 41.694C164.426 41.0633 163.576 40.748 162.476 40.748C161.654 40.748 160.936 40.9167 160.32 41.254C159.718 41.5767 159.249 42.0533 158.912 42.684C158.589 43.3 158.428 44.048 158.428 44.928V51H156.866V39.45H158.362V42.618L158.12 42.024C158.486 41.188 159.073 40.5353 159.88 40.066C160.686 39.582 161.647 39.34 162.762 39.34ZM174.835 51.11C173.881 51.11 172.979 50.978 172.129 50.714C171.278 50.4353 170.611 50.0907 170.127 49.68L170.831 48.448C171.3 48.8 171.901 49.108 172.635 49.372C173.368 49.6213 174.138 49.746 174.945 49.746C176.045 49.746 176.837 49.5773 177.321 49.24C177.805 48.888 178.047 48.426 178.047 47.854C178.047 47.4287 177.907 47.0987 177.629 46.864C177.365 46.6147 177.013 46.4313 176.573 46.314C176.133 46.182 175.641 46.072 175.099 45.984C174.556 45.896 174.013 45.7933 173.471 45.676C172.943 45.5587 172.459 45.39 172.019 45.17C171.579 44.9353 171.219 44.62 170.941 44.224C170.677 43.828 170.545 43.3 170.545 42.64C170.545 42.0093 170.721 41.4447 171.073 40.946C171.425 40.4473 171.938 40.0587 172.613 39.78C173.302 39.4867 174.138 39.34 175.121 39.34C175.869 39.34 176.617 39.4427 177.365 39.648C178.113 39.8387 178.729 40.0953 179.213 40.418L178.531 41.672C178.017 41.32 177.467 41.0707 176.881 40.924C176.294 40.7627 175.707 40.682 175.121 40.682C174.079 40.682 173.309 40.8653 172.811 41.232C172.327 41.584 172.085 42.0387 172.085 42.596C172.085 43.036 172.217 43.3807 172.481 43.63C172.759 43.8793 173.119 44.0773 173.559 44.224C174.013 44.356 174.505 44.466 175.033 44.554C175.575 44.642 176.111 44.752 176.639 44.884C177.181 45.0013 177.673 45.17 178.113 45.39C178.567 45.5953 178.927 45.896 179.191 46.292C179.469 46.6733 179.609 47.1793 179.609 47.81C179.609 48.4847 179.418 49.0713 179.037 49.57C178.67 50.054 178.127 50.4353 177.409 50.714C176.705 50.978 175.847 51.11 174.835 51.11ZM188.321 55.378C187.778 55.378 187.257 55.29 186.759 55.114C186.275 54.938 185.857 54.674 185.505 54.322L186.231 53.156C186.524 53.4347 186.839 53.6473 187.177 53.794C187.529 53.9553 187.917 54.036 188.343 54.036C188.856 54.036 189.296 53.8893 189.663 53.596C190.044 53.3173 190.403 52.8187 190.741 52.1L191.489 50.406L191.665 50.164L196.417 39.45H197.957L192.171 52.386C191.848 53.134 191.489 53.728 191.093 54.168C190.711 54.608 190.293 54.916 189.839 55.092C189.384 55.2827 188.878 55.378 188.321 55.378ZM191.401 51.33L186.077 39.45H187.705L192.413 50.054L191.401 51.33ZM204.542 51.11C203.428 51.11 202.423 50.8607 201.528 50.362C200.648 49.8487 199.952 49.152 199.438 48.272C198.925 47.3773 198.668 46.358 198.668 45.214C198.668 44.0553 198.925 43.036 199.438 42.156C199.952 41.276 200.648 40.5867 201.528 40.088C202.408 39.5893 203.413 39.34 204.542 39.34C205.686 39.34 206.698 39.5893 207.578 40.088C208.473 40.5867 209.17 41.276 209.668 42.156C210.182 43.036 210.438 44.0553 210.438 45.214C210.438 46.358 210.182 47.3773 209.668 48.272C209.17 49.152 208.473 49.8487 207.578 50.362C206.684 50.8607 205.672 51.11 204.542 51.11ZM204.542 49.724C205.378 49.724 206.119 49.5407 206.764 49.174C207.41 48.7927 207.916 48.2647 208.282 47.59C208.664 46.9007 208.854 46.1087 208.854 45.214C208.854 44.3047 208.664 43.5127 208.282 42.838C207.916 42.1633 207.41 41.6427 206.764 41.276C206.119 40.8947 205.386 40.704 204.564 40.704C203.743 40.704 203.01 40.8947 202.364 41.276C201.719 41.6427 201.206 42.1633 200.824 42.838C200.443 43.5127 200.252 44.3047 200.252 45.214C200.252 46.1087 200.443 46.9007 200.824 47.59C201.206 48.2647 201.719 48.7927 202.364 49.174C203.01 49.5407 203.736 49.724 204.542 49.724ZM218.401 51.11C217.419 51.11 216.561 50.9267 215.827 50.56C215.094 50.1933 214.522 49.6433 214.111 48.91C213.715 48.1767 213.517 47.26 213.517 46.16V39.45H215.079V45.984C215.079 47.216 215.38 48.1473 215.981 48.778C216.597 49.394 217.455 49.702 218.555 49.702C219.362 49.702 220.059 49.5407 220.645 49.218C221.247 48.8807 221.701 48.3967 222.009 47.766C222.332 47.1353 222.493 46.38 222.493 45.5V39.45H224.055V51H222.559V47.832L222.801 48.404C222.435 49.2547 221.863 49.922 221.085 50.406C220.323 50.8753 219.428 51.11 218.401 51.11ZM240.062 39.34C241.001 39.34 241.822 39.5233 242.526 39.89C243.245 40.242 243.802 40.7847 244.198 41.518C244.609 42.2513 244.814 43.1753 244.814 44.29V51H243.252V44.444C243.252 43.2267 242.944 42.31 242.328 41.694C241.727 41.0633 240.876 40.748 239.776 40.748C238.955 40.748 238.236 40.9167 237.62 41.254C237.019 41.5767 236.55 42.0533 236.212 42.684C235.89 43.3 235.728 44.048 235.728 44.928V51H234.166V34.676H235.728V42.618L235.42 42.024C235.787 41.188 236.374 40.5353 237.18 40.066C237.987 39.582 238.948 39.34 240.062 39.34ZM256.271 51V48.448L256.205 48.03V43.762C256.205 42.7793 255.927 42.024 255.369 41.496C254.827 40.968 254.013 40.704 252.927 40.704C252.179 40.704 251.468 40.8287 250.793 41.078C250.119 41.3273 249.547 41.6573 249.077 42.068L248.373 40.902C248.96 40.4033 249.664 40.022 250.485 39.758C251.307 39.4793 252.172 39.34 253.081 39.34C254.577 39.34 255.729 39.714 256.535 40.462C257.357 41.1953 257.767 42.3173 257.767 43.828V51H256.271ZM252.289 51.11C251.424 51.11 250.669 50.9707 250.023 50.692C249.393 50.3987 248.909 50.0027 248.571 49.504C248.234 48.9907 248.065 48.404 248.065 47.744C248.065 47.1427 248.205 46.6 248.483 46.116C248.777 45.6173 249.246 45.2213 249.891 44.928C250.551 44.62 251.431 44.466 252.531 44.466H256.513V45.632H252.575C251.461 45.632 250.683 45.83 250.243 46.226C249.818 46.622 249.605 47.1133 249.605 47.7C249.605 48.36 249.862 48.888 250.375 49.284C250.889 49.68 251.607 49.878 252.531 49.878C253.411 49.878 254.167 49.68 254.797 49.284C255.443 48.8733 255.912 48.2867 256.205 47.524L256.557 48.602C256.264 49.3647 255.751 49.9733 255.017 50.428C254.299 50.8827 253.389 51.11 252.289 51.11ZM264.765 51L259.639 39.45H261.267L265.975 50.164H265.205L269.979 39.45H271.519L266.371 51H264.765ZM278.303 51.11C277.1 51.11 276.044 50.8607 275.135 50.362C274.225 49.8487 273.514 49.152 273.001 48.272C272.487 47.3773 272.231 46.358 272.231 45.214C272.231 44.07 272.473 43.058 272.957 42.178C273.455 41.298 274.13 40.6087 274.981 40.11C275.846 39.5967 276.814 39.34 277.885 39.34C278.97 39.34 279.931 39.5893 280.767 40.088C281.617 40.572 282.285 41.2613 282.769 42.156C283.253 43.036 283.495 44.0553 283.495 45.214C283.495 45.2873 283.487 45.368 283.473 45.456C283.473 45.5293 283.473 45.61 283.473 45.698H273.419V44.532H282.637L282.021 44.994C282.021 44.158 281.837 43.4173 281.471 42.772C281.119 42.112 280.635 41.5987 280.019 41.232C279.403 40.8653 278.691 40.682 277.885 40.682C277.093 40.682 276.381 40.8653 275.751 41.232C275.12 41.5987 274.629 42.112 274.277 42.772C273.925 43.432 273.749 44.1873 273.749 45.038V45.28C273.749 46.16 273.939 46.9373 274.321 47.612C274.717 48.272 275.259 48.7927 275.949 49.174C276.653 49.5407 277.452 49.724 278.347 49.724C279.051 49.724 279.703 49.5993 280.305 49.35C280.921 49.1007 281.449 48.7193 281.889 48.206L282.769 49.218C282.255 49.834 281.61 50.3033 280.833 50.626C280.07 50.9487 279.227 51.11 278.303 51.11ZM288.613 46.38C288.613 45.764 288.709 45.236 288.899 44.796C289.105 44.356 289.354 43.9673 289.647 43.63C289.955 43.2927 290.278 42.9773 290.615 42.684C290.967 42.3907 291.297 42.0973 291.605 41.804C291.913 41.496 292.163 41.166 292.353 40.814C292.544 40.4473 292.639 40.022 292.639 39.538C292.639 38.746 292.331 38.1007 291.715 37.602C291.099 37.1033 290.227 36.854 289.097 36.854C288.159 36.854 287.345 37.008 286.655 37.316C285.966 37.6093 285.379 38.0493 284.895 38.636L283.729 37.756C284.316 37.0227 285.071 36.458 285.995 36.062C286.919 35.666 287.99 35.468 289.207 35.468C290.234 35.468 291.121 35.622 291.869 35.93C292.632 36.238 293.219 36.678 293.629 37.25C294.055 37.822 294.267 38.504 294.267 39.296C294.267 39.9267 294.165 40.4693 293.959 40.924C293.769 41.364 293.519 41.76 293.211 42.112C292.918 42.4493 292.595 42.772 292.243 43.08C291.906 43.3733 291.583 43.674 291.275 43.982C290.967 44.29 290.718 44.6347 290.527 45.016C290.337 45.3973 290.241 45.852 290.241 46.38H288.613ZM289.427 51.11C289.119 51.11 288.848 51 288.613 50.78C288.393 50.5453 288.283 50.274 288.283 49.966C288.283 49.6433 288.393 49.3793 288.613 49.174C288.848 48.954 289.119 48.844 289.427 48.844C289.765 48.844 290.043 48.954 290.263 49.174C290.483 49.3793 290.593 49.6433 290.593 49.966C290.593 50.274 290.483 50.5453 290.263 50.78C290.043 51 289.765 51.11 289.427 51.11Z" fill="black"/>
<path d="M96.4766 453.305L99.5156 447.578H100.945L97.1406 454.57V459H95.8125V454.633L92 447.578H93.4531L96.4766 453.305ZM105.265 450.281C105.994 450.281 106.619 450.443 107.14 450.766C107.661 451.089 108.059 451.542 108.335 452.125C108.612 452.703 108.75 453.38 108.75 454.156V454.961H102.835C102.851 455.966 103.101 456.732 103.585 457.258C104.07 457.784 104.752 458.047 105.632 458.047C106.174 458.047 106.653 457.997 107.07 457.898C107.487 457.799 107.919 457.654 108.367 457.461V458.602C107.934 458.794 107.505 458.935 107.078 459.023C106.656 459.112 106.156 459.156 105.578 459.156C104.755 459.156 104.036 458.99 103.421 458.656C102.812 458.318 102.338 457.823 102 457.172C101.661 456.521 101.492 455.724 101.492 454.781C101.492 453.859 101.645 453.062 101.953 452.391C102.265 451.714 102.703 451.193 103.265 450.828C103.833 450.464 104.5 450.281 105.265 450.281ZM105.25 451.344C104.557 451.344 104.005 451.57 103.593 452.023C103.182 452.477 102.937 453.109 102.859 453.922H107.39C107.385 453.411 107.304 452.964 107.148 452.578C106.997 452.188 106.765 451.885 106.453 451.672C106.14 451.453 105.739 451.344 105.25 451.344ZM116.14 456.656C116.14 457.203 116.002 457.664 115.726 458.039C115.455 458.409 115.064 458.688 114.554 458.875C114.049 459.062 113.444 459.156 112.741 459.156C112.142 459.156 111.624 459.109 111.187 459.016C110.749 458.922 110.366 458.789 110.038 458.617V457.422C110.387 457.594 110.804 457.75 111.288 457.891C111.773 458.031 112.267 458.102 112.773 458.102C113.512 458.102 114.049 457.982 114.382 457.742C114.715 457.503 114.882 457.177 114.882 456.766C114.882 456.531 114.814 456.326 114.679 456.148C114.549 455.966 114.327 455.792 114.015 455.625C113.702 455.453 113.27 455.266 112.718 455.062C112.171 454.854 111.697 454.648 111.296 454.445C110.9 454.237 110.593 453.984 110.374 453.688C110.161 453.391 110.054 453.005 110.054 452.531C110.054 451.807 110.345 451.253 110.929 450.867C111.517 450.477 112.288 450.281 113.241 450.281C113.757 450.281 114.239 450.333 114.687 450.438C115.14 450.536 115.562 450.672 115.952 450.844L115.515 451.883C115.161 451.732 114.783 451.604 114.382 451.5C113.981 451.396 113.572 451.344 113.155 451.344C112.556 451.344 112.095 451.443 111.773 451.641C111.455 451.839 111.296 452.109 111.296 452.453C111.296 452.719 111.369 452.938 111.515 453.109C111.666 453.281 111.905 453.443 112.233 453.594C112.562 453.745 112.994 453.922 113.53 454.125C114.067 454.323 114.53 454.529 114.921 454.742C115.312 454.951 115.611 455.206 115.819 455.508C116.033 455.805 116.14 456.188 116.14 456.656Z" fill="#1E1E1E"/>
<path d="M102.492 501H100.961L94.7344 491.406H94.6719C94.6875 491.661 94.7057 491.953 94.7266 492.281C94.7474 492.604 94.763 492.951 94.7734 493.32C94.7891 493.685 94.7969 494.057 94.7969 494.438V501H93.5625V489.578H95.0859L101.289 499.141H101.344C101.333 498.958 101.32 498.701 101.305 498.367C101.289 498.029 101.273 497.667 101.258 497.281C101.247 496.891 101.242 496.529 101.242 496.195V489.578H102.492V501ZM112.445 496.703C112.445 497.406 112.354 498.034 112.171 498.586C111.989 499.138 111.726 499.604 111.382 499.984C111.039 500.365 110.622 500.656 110.132 500.859C109.648 501.057 109.099 501.156 108.484 501.156C107.911 501.156 107.385 501.057 106.906 500.859C106.432 500.656 106.02 500.365 105.671 499.984C105.328 499.604 105.059 499.138 104.867 498.586C104.679 498.034 104.585 497.406 104.585 496.703C104.585 495.766 104.744 494.969 105.062 494.312C105.38 493.651 105.833 493.148 106.421 492.805C107.015 492.456 107.721 492.281 108.539 492.281C109.32 492.281 110.002 492.456 110.585 492.805C111.174 493.154 111.63 493.659 111.953 494.32C112.281 494.977 112.445 495.771 112.445 496.703ZM105.929 496.703C105.929 497.391 106.02 497.987 106.203 498.492C106.385 498.997 106.666 499.388 107.046 499.664C107.427 499.94 107.916 500.078 108.515 500.078C109.109 500.078 109.596 499.94 109.976 499.664C110.362 499.388 110.645 498.997 110.828 498.492C111.01 497.987 111.101 497.391 111.101 496.703C111.101 496.021 111.01 495.432 110.828 494.938C110.645 494.438 110.364 494.052 109.984 493.781C109.604 493.51 109.112 493.375 108.507 493.375C107.617 493.375 106.963 493.669 106.546 494.258C106.135 494.846 105.929 495.661 105.929 496.703Z" fill="#1E1E1E"/>
<rect x="57" y="441" width="24" height="24" fill="#1F78B4"/>
<rect x="57" y="483" width="24" height="24" fill="#FF7F00"/>
<path d="M203.47 128C235.01 127.994 265.704 138.201 290.959 157.095C316.214 175.988 334.672 202.552 343.569 232.811C352.467 263.07 351.327 295.397 340.32 324.953C329.313 354.51 309.03 379.708 282.507 396.776C255.984 413.844 224.647 421.863 193.186 419.635C161.725 417.407 131.831 405.051 107.978 384.415C84.1252 363.78 67.5962 335.975 60.8643 305.162C54.1325 274.349 57.5599 242.184 70.6336 213.481L203.5 274L203.47 128Z" fill="#FF7F00"/>
<path d="M70.6942 213.348C82.307 187.92 100.976 166.361 124.482 151.231C147.988 136.102 175.343 128.039 203.297 128L203.5 274L70.6942 213.348Z" fill="#1F78B4"/>
<path d="M158.301 199.238H155.98V203H153.262V199.238H145.469V197.152L153.297 185.82H155.98V196.953H158.301V199.238ZM153.262 196.953V192.699C153.262 192.348 153.266 191.992 153.273 191.633C153.289 191.266 153.305 190.914 153.32 190.578C153.336 190.242 153.352 189.934 153.367 189.652C153.383 189.363 153.395 189.125 153.402 188.938H153.309C153.16 189.25 152.996 189.57 152.816 189.898C152.637 190.219 152.445 190.531 152.242 190.836L148.023 196.953H153.262Z" fill="white"/>
<path d="M270.176 328H267.41V316.973C267.41 316.605 267.414 316.238 267.422 315.871C267.43 315.504 267.438 315.145 267.445 314.793C267.461 314.441 267.48 314.105 267.504 313.785C267.34 313.965 267.137 314.16 266.895 314.371C266.66 314.582 266.41 314.801 266.145 315.027L264.176 316.598L262.793 314.852L267.879 310.867H270.176V328ZM281.062 310.633C282.054 310.633 282.949 310.789 283.745 311.102C284.542 311.406 285.175 311.863 285.644 312.473C286.113 313.082 286.347 313.836 286.347 314.734C286.347 315.43 286.202 316.035 285.913 316.551C285.632 317.066 285.249 317.52 284.765 317.91C284.281 318.293 283.738 318.633 283.136 318.93C283.808 319.258 284.425 319.637 284.988 320.066C285.558 320.488 286.015 320.984 286.359 321.555C286.71 322.125 286.886 322.793 286.886 323.559C286.886 324.52 286.64 325.352 286.148 326.055C285.663 326.75 284.988 327.289 284.12 327.672C283.253 328.047 282.242 328.234 281.085 328.234C279.843 328.234 278.785 328.051 277.91 327.684C277.035 327.316 276.37 326.793 275.917 326.113C275.464 325.426 275.238 324.605 275.238 323.652C275.238 322.863 275.394 322.18 275.706 321.602C276.019 321.023 276.437 320.523 276.96 320.102C277.492 319.68 278.074 319.324 278.706 319.035C278.167 318.715 277.675 318.355 277.23 317.957C276.785 317.551 276.429 317.086 276.163 316.562C275.906 316.031 275.777 315.418 275.777 314.723C275.777 313.832 276.015 313.086 276.492 312.484C276.968 311.875 277.605 311.414 278.402 311.102C279.206 310.789 280.093 310.633 281.062 310.633ZM277.863 323.547C277.863 324.297 278.128 324.914 278.66 325.398C279.191 325.883 279.984 326.125 281.038 326.125C282.085 326.125 282.882 325.887 283.429 325.41C283.976 324.934 284.249 324.305 284.249 323.523C284.249 323.023 284.109 322.582 283.827 322.199C283.554 321.816 283.183 321.477 282.714 321.18C282.253 320.875 281.742 320.594 281.179 320.336L280.804 320.184C280.195 320.441 279.671 320.734 279.234 321.062C278.796 321.383 278.456 321.746 278.214 322.152C277.98 322.559 277.863 323.023 277.863 323.547ZM281.038 312.754C280.281 312.754 279.656 312.941 279.163 313.316C278.679 313.684 278.437 314.215 278.437 314.91C278.437 315.402 278.554 315.824 278.788 316.176C279.031 316.527 279.355 316.832 279.761 317.09C280.167 317.34 280.617 317.574 281.109 317.793C281.585 317.582 282.015 317.352 282.398 317.102C282.788 316.844 283.097 316.539 283.324 316.188C283.558 315.828 283.675 315.398 283.675 314.898C283.675 314.211 283.429 313.684 282.937 313.316C282.452 312.941 281.82 312.754 281.038 312.754Z" fill="white"/>
</svg>
