<svg width="565" height="546" viewBox="0 0 565 546" fill="none" xmlns="http://www.w3.org/2000/svg">
<path d="M111.014 21.132C110.222 21.132 109.46 21.0513 108.726 20.89C108.008 20.7287 107.348 20.5087 106.746 20.23C106.16 19.9367 105.654 19.5993 105.228 19.218L105.998 17.964C106.526 18.448 107.223 18.8587 108.088 19.196C108.968 19.5187 109.951 19.68 111.036 19.68C111.96 19.68 112.73 19.5407 113.346 19.262C113.962 18.9833 114.424 18.6093 114.732 18.14C115.04 17.656 115.194 17.106 115.194 16.49C115.194 15.874 115.033 15.3313 114.71 14.862C114.402 14.378 113.867 14.004 113.104 13.74C112.356 13.4613 111.315 13.322 109.98 13.322H106.35L107.164 5.6H115.876V7.008H107.802L108.616 6.238L107.934 12.706L107.164 11.914H110.288C111.872 11.914 113.141 12.112 114.094 12.508C115.048 12.8893 115.737 13.4173 116.162 14.092C116.602 14.7667 116.822 15.5513 116.822 16.446C116.822 17.2967 116.61 18.0813 116.184 18.8C115.774 19.504 115.136 20.0687 114.27 20.494C113.42 20.9193 112.334 21.132 111.014 21.132ZM121.337 21.11C121.014 21.11 120.735 20.9927 120.501 20.758C120.281 20.5233 120.171 20.2373 120.171 19.9C120.171 19.548 120.281 19.262 120.501 19.042C120.735 18.822 121.014 18.712 121.337 18.712C121.659 18.712 121.931 18.822 122.151 19.042C122.385 19.262 122.503 19.548 122.503 19.9C122.503 20.2373 122.385 20.5233 122.151 20.758C121.931 20.9927 121.659 21.11 121.337 21.11ZM133.508 21V5.6H139.778C141.421 5.6 142.858 5.93 144.09 6.59C145.337 7.23533 146.305 8.13733 146.994 9.296C147.683 10.4547 148.028 11.7893 148.028 13.3C148.028 14.8107 147.683 16.1453 146.994 17.304C146.305 18.4627 145.337 19.372 144.09 20.032C142.858 20.6773 141.421 21 139.778 21H133.508ZM135.136 19.592H139.69C141.054 19.592 142.235 19.328 143.232 18.8C144.244 18.2573 145.029 17.5167 145.586 16.578C146.143 15.6247 146.422 14.532 146.422 13.3C146.422 12.0533 146.143 10.9607 145.586 10.022C145.029 9.08333 144.244 8.35 143.232 7.822C142.235 7.27933 141.054 7.008 139.69 7.008H135.136V19.592ZM156.062 21.11C154.947 21.11 153.942 20.8607 153.048 20.362C152.168 19.8487 151.471 19.152 150.958 18.272C150.444 17.3773 150.188 16.358 150.188 15.214C150.188 14.0553 150.444 13.036 150.958 12.156C151.471 11.276 152.168 10.5867 153.048 10.088C153.928 9.58933 154.932 9.34 156.062 9.34C157.206 9.34 158.218 9.58933 159.098 10.088C159.992 10.5867 160.689 11.276 161.188 12.156C161.701 13.036 161.958 14.0553 161.958 15.214C161.958 16.358 161.701 17.3773 161.188 18.272C160.689 19.152 159.992 19.8487 159.098 20.362C158.203 20.8607 157.191 21.11 156.062 21.11ZM156.062 19.724C156.898 19.724 157.638 19.5407 158.284 19.174C158.929 18.7927 159.435 18.2647 159.802 17.59C160.183 16.9007 160.374 16.1087 160.374 15.214C160.374 14.3047 160.183 13.5127 159.802 12.838C159.435 12.1633 158.929 11.6427 158.284 11.276C157.638 10.8947 156.905 10.704 156.084 10.704C155.262 10.704 154.529 10.8947 153.884 11.276C153.238 11.6427 152.725 12.1633 152.344 12.838C151.962 13.5127 151.772 14.3047 151.772 15.214C151.772 16.1087 151.962 16.9007 152.344 17.59C152.725 18.2647 153.238 18.7927 153.884 19.174C154.529 19.5407 155.255 19.724 156.062 19.724ZM170.993 25.378C170.45 25.378 169.929 25.29 169.431 25.114C168.947 24.938 168.529 24.674 168.177 24.322L168.903 23.156C169.196 23.4347 169.511 23.6473 169.849 23.794C170.201 23.9553 170.589 24.036 171.015 24.036C171.528 24.036 171.968 23.8893 172.335 23.596C172.716 23.3173 173.075 22.8187 173.413 22.1L174.161 20.406L174.337 20.164L179.089 9.45H180.629L174.843 22.386C174.52 23.134 174.161 23.728 173.765 24.168C173.383 24.608 172.965 24.916 172.511 25.092C172.056 25.2827 171.55 25.378 170.993 25.378ZM174.073 21.33L168.749 9.45H170.377L175.085 20.054L174.073 21.33ZM187.214 21.11C186.099 21.11 185.095 20.8607 184.2 20.362C183.32 19.8487 182.623 19.152 182.11 18.272C181.597 17.3773 181.34 16.358 181.34 15.214C181.34 14.0553 181.597 13.036 182.11 12.156C182.623 11.276 183.32 10.5867 184.2 10.088C185.08 9.58933 186.085 9.34 187.214 9.34C188.358 9.34 189.37 9.58933 190.25 10.088C191.145 10.5867 191.841 11.276 192.34 12.156C192.853 13.036 193.11 14.0553 193.11 15.214C193.11 16.358 192.853 17.3773 192.34 18.272C191.841 19.152 191.145 19.8487 190.25 20.362C189.355 20.8607 188.343 21.11 187.214 21.11ZM187.214 19.724C188.05 19.724 188.791 19.5407 189.436 19.174C190.081 18.7927 190.587 18.2647 190.954 17.59C191.335 16.9007 191.526 16.1087 191.526 15.214C191.526 14.3047 191.335 13.5127 190.954 12.838C190.587 12.1633 190.081 11.6427 189.436 11.276C188.791 10.8947 188.057 10.704 187.236 10.704C186.415 10.704 185.681 10.8947 185.036 11.276C184.391 11.6427 183.877 12.1633 183.496 12.838C183.115 13.5127 182.924 14.3047 182.924 15.214C182.924 16.1087 183.115 16.9007 183.496 17.59C183.877 18.2647 184.391 18.7927 185.036 19.174C185.681 19.5407 186.407 19.724 187.214 19.724ZM201.073 21.11C200.09 21.11 199.232 20.9267 198.499 20.56C197.766 20.1933 197.194 19.6433 196.783 18.91C196.387 18.1767 196.189 17.26 196.189 16.16V9.45H197.751V15.984C197.751 17.216 198.052 18.1473 198.653 18.778C199.269 19.394 200.127 19.702 201.227 19.702C202.034 19.702 202.73 19.5407 203.317 19.218C203.918 18.8807 204.373 18.3967 204.681 17.766C205.004 17.1353 205.165 16.38 205.165 15.5V9.45H206.727V21H205.231V17.832L205.473 18.404C205.106 19.2547 204.534 19.922 203.757 20.406C202.994 20.8753 202.1 21.11 201.073 21.11ZM222.8 21.11C221.803 21.11 220.901 20.8827 220.094 20.428C219.287 19.9587 218.642 19.2913 218.158 18.426C217.689 17.546 217.454 16.4753 217.454 15.214C217.454 13.9527 217.689 12.8893 218.158 12.024C218.627 11.144 219.265 10.4767 220.072 10.022C220.879 9.56733 221.788 9.34 222.8 9.34C223.9 9.34 224.883 9.58933 225.748 10.088C226.628 10.572 227.317 11.2613 227.816 12.156C228.315 13.036 228.564 14.0553 228.564 15.214C228.564 16.3873 228.315 17.414 227.816 18.294C227.317 19.174 226.628 19.8633 225.748 20.362C224.883 20.8607 223.9 21.11 222.8 21.11ZM216.838 25.268V9.45H218.334V12.926L218.18 15.236L218.4 17.568V25.268H216.838ZM222.69 19.724C223.511 19.724 224.245 19.5407 224.89 19.174C225.535 18.7927 226.049 18.2647 226.43 17.59C226.811 16.9007 227.002 16.1087 227.002 15.214C227.002 14.3193 226.811 13.5347 226.43 12.86C226.049 12.1853 225.535 11.6573 224.89 11.276C224.245 10.8947 223.511 10.704 222.69 10.704C221.869 10.704 221.128 10.8947 220.468 11.276C219.823 11.6573 219.309 12.1853 218.928 12.86C218.561 13.5347 218.378 14.3193 218.378 15.214C218.378 16.1087 218.561 16.9007 218.928 17.59C219.309 18.2647 219.823 18.7927 220.468 19.174C221.128 19.5407 221.869 19.724 222.69 19.724ZM238.922 21V18.448L238.856 18.03V13.762C238.856 12.7793 238.577 12.024 238.02 11.496C237.477 10.968 236.663 10.704 235.578 10.704C234.83 10.704 234.119 10.8287 233.444 11.078C232.769 11.3273 232.197 11.6573 231.728 12.068L231.024 10.902C231.611 10.4033 232.315 10.022 233.136 9.758C233.957 9.47933 234.823 9.34 235.732 9.34C237.228 9.34 238.379 9.714 239.186 10.462C240.007 11.1953 240.418 12.3173 240.418 13.828V21H238.922ZM234.94 21.11C234.075 21.11 233.319 20.9707 232.674 20.692C232.043 20.3987 231.559 20.0027 231.222 19.504C230.885 18.9907 230.716 18.404 230.716 17.744C230.716 17.1427 230.855 16.6 231.134 16.116C231.427 15.6173 231.897 15.2213 232.542 14.928C233.202 14.62 234.082 14.466 235.182 14.466H239.164V15.632H235.226C234.111 15.632 233.334 15.83 232.894 16.226C232.469 16.622 232.256 17.1133 232.256 17.7C232.256 18.36 232.513 18.888 233.026 19.284C233.539 19.68 234.258 19.878 235.182 19.878C236.062 19.878 236.817 19.68 237.448 19.284C238.093 18.8733 238.563 18.2867 238.856 17.524L239.208 18.602C238.915 19.3647 238.401 19.9733 237.668 20.428C236.949 20.8827 236.04 21.11 234.94 21.11ZM244.534 25.378C243.991 25.378 243.47 25.29 242.972 25.114C242.488 24.938 242.07 24.674 241.718 24.322L242.444 23.156C242.737 23.4347 243.052 23.6473 243.39 23.794C243.742 23.9553 244.13 24.036 244.556 24.036C245.069 24.036 245.509 23.8893 245.876 23.596C246.257 23.3173 246.616 22.8187 246.954 22.1L247.702 20.406L247.878 20.164L252.63 9.45H254.17L248.384 22.386C248.061 23.134 247.702 23.728 247.306 24.168C246.924 24.608 246.506 24.916 246.052 25.092C245.597 25.2827 245.091 25.378 244.534 25.378ZM247.614 21.33L242.29 9.45H243.918L248.626 20.054L247.614 21.33ZM262.391 21V7.998C262.391 6.97133 262.692 6.14267 263.293 5.512C263.895 4.88133 264.76 4.566 265.889 4.566C266.329 4.566 266.755 4.62467 267.165 4.742C267.576 4.85933 267.921 5.04267 268.199 5.292L267.671 6.458C267.451 6.26733 267.195 6.128 266.901 6.04C266.608 5.93733 266.293 5.886 265.955 5.886C265.295 5.886 264.789 6.06933 264.437 6.436C264.085 6.80267 263.909 7.34533 263.909 8.064V9.824L263.953 10.55V21H262.391ZM260.323 10.748V9.45H267.473V10.748H260.323ZM274.097 21.11C272.982 21.11 271.978 20.8607 271.083 20.362C270.203 19.8487 269.506 19.152 268.993 18.272C268.48 17.3773 268.223 16.358 268.223 15.214C268.223 14.0553 268.48 13.036 268.993 12.156C269.506 11.276 270.203 10.5867 271.083 10.088C271.963 9.58933 272.968 9.34 274.097 9.34C275.241 9.34 276.253 9.58933 277.133 10.088C278.028 10.5867 278.724 11.276 279.223 12.156C279.736 13.036 279.993 14.0553 279.993 15.214C279.993 16.358 279.736 17.3773 279.223 18.272C278.724 19.152 278.028 19.8487 277.133 20.362C276.238 20.8607 275.226 21.11 274.097 21.11ZM274.097 19.724C274.933 19.724 275.674 19.5407 276.319 19.174C276.964 18.7927 277.47 18.2647 277.837 17.59C278.218 16.9007 278.409 16.1087 278.409 15.214C278.409 14.3047 278.218 13.5127 277.837 12.838C277.47 12.1633 276.964 11.6427 276.319 11.276C275.674 10.8947 274.94 10.704 274.119 10.704C273.298 10.704 272.564 10.8947 271.919 11.276C271.274 11.6427 270.76 12.1633 270.379 12.838C269.998 13.5127 269.807 14.3047 269.807 15.214C269.807 16.1087 269.998 16.9007 270.379 17.59C270.76 18.2647 271.274 18.7927 271.919 19.174C272.564 19.5407 273.29 19.724 274.097 19.724ZM283.182 21V9.45H284.678V12.596L284.524 12.046C284.847 11.166 285.389 10.4987 286.152 10.044C286.915 9.57467 287.861 9.34 288.99 9.34V10.858C288.931 10.858 288.873 10.858 288.814 10.858C288.755 10.8433 288.697 10.836 288.638 10.836C287.421 10.836 286.467 11.21 285.778 11.958C285.089 12.6913 284.744 13.74 284.744 15.104V21H283.182ZM305.008 21V18.448L304.942 18.03V13.762C304.942 12.7793 304.663 12.024 304.106 11.496C303.563 10.968 302.749 10.704 301.664 10.704C300.916 10.704 300.204 10.8287 299.53 11.078C298.855 11.3273 298.283 11.6573 297.814 12.068L297.11 10.902C297.696 10.4033 298.4 10.022 299.222 9.758C300.043 9.47933 300.908 9.34 301.818 9.34C303.314 9.34 304.465 9.714 305.272 10.462C306.093 11.1953 306.504 12.3173 306.504 13.828V21H305.008ZM301.026 21.11C300.16 21.11 299.405 20.9707 298.76 20.692C298.129 20.3987 297.645 20.0027 297.308 19.504C296.97 18.9907 296.802 18.404 296.802 17.744C296.802 17.1427 296.941 16.6 297.22 16.116C297.513 15.6173 297.982 15.2213 298.628 14.928C299.288 14.62 300.168 14.466 301.268 14.466H305.25V15.632H301.312C300.197 15.632 299.42 15.83 298.98 16.226C298.554 16.622 298.342 17.1133 298.342 17.7C298.342 18.36 298.598 18.888 299.112 19.284C299.625 19.68 300.344 19.878 301.268 19.878C302.148 19.878 302.903 19.68 303.534 19.284C304.179 18.8733 304.648 18.2867 304.942 17.524L305.294 18.602C305 19.3647 304.487 19.9733 303.754 20.428C303.035 20.8827 302.126 21.11 301.026 21.11ZM310.746 21V4.676H312.308V21H310.746ZM316.655 21V4.676H318.217V21H316.655ZM328.409 25.378C327.866 25.378 327.345 25.29 326.847 25.114C326.363 24.938 325.945 24.674 325.593 24.322L326.319 23.156C326.612 23.4347 326.927 23.6473 327.265 23.794C327.617 23.9553 328.005 24.036 328.431 24.036C328.944 24.036 329.384 23.8893 329.751 23.596C330.132 23.3173 330.491 22.8187 330.829 22.1L331.577 20.406L331.753 20.164L336.505 9.45H338.045L332.259 22.386C331.936 23.134 331.577 23.728 331.181 24.168C330.799 24.608 330.381 24.916 329.927 25.092C329.472 25.2827 328.966 25.378 328.409 25.378ZM331.489 21.33L326.165 9.45H327.793L332.501 20.054L331.489 21.33ZM344.63 21.11C343.515 21.11 342.511 20.8607 341.616 20.362C340.736 19.8487 340.039 19.152 339.526 18.272C339.013 17.3773 338.756 16.358 338.756 15.214C338.756 14.0553 339.013 13.036 339.526 12.156C340.039 11.276 340.736 10.5867 341.616 10.088C342.496 9.58933 343.501 9.34 344.63 9.34C345.774 9.34 346.786 9.58933 347.666 10.088C348.561 10.5867 349.257 11.276 349.756 12.156C350.269 13.036 350.526 14.0553 350.526 15.214C350.526 16.358 350.269 17.3773 349.756 18.272C349.257 19.152 348.561 19.8487 347.666 20.362C346.771 20.8607 345.759 21.11 344.63 21.11ZM344.63 19.724C345.466 19.724 346.207 19.5407 346.852 19.174C347.497 18.7927 348.003 18.2647 348.37 17.59C348.751 16.9007 348.942 16.1087 348.942 15.214C348.942 14.3047 348.751 13.5127 348.37 12.838C348.003 12.1633 347.497 11.6427 346.852 11.276C346.207 10.8947 345.473 10.704 344.652 10.704C343.831 10.704 343.097 10.8947 342.452 11.276C341.807 11.6427 341.293 12.1633 340.912 12.838C340.531 13.5127 340.34 14.3047 340.34 15.214C340.34 16.1087 340.531 16.9007 340.912 17.59C341.293 18.2647 341.807 18.7927 342.452 19.174C343.097 19.5407 343.823 19.724 344.63 19.724ZM358.489 21.11C357.506 21.11 356.648 20.9267 355.915 20.56C355.182 20.1933 354.61 19.6433 354.199 18.91C353.803 18.1767 353.605 17.26 353.605 16.16V9.45H355.167V15.984C355.167 17.216 355.468 18.1473 356.069 18.778C356.685 19.394 357.543 19.702 358.643 19.702C359.45 19.702 360.146 19.5407 360.733 19.218C361.334 18.8807 361.789 18.3967 362.097 17.766C362.42 17.1353 362.581 16.38 362.581 15.5V9.45H364.143V21H362.647V17.832L362.889 18.404C362.522 19.2547 361.95 19.922 361.173 20.406C360.41 20.8753 359.516 21.11 358.489 21.11ZM368.496 21V9.45H369.992V12.596L369.838 12.046C370.161 11.166 370.704 10.4987 371.466 10.044C372.229 9.57467 373.175 9.34 374.304 9.34V10.858C374.246 10.858 374.187 10.858 374.128 10.858C374.07 10.8433 374.011 10.836 373.952 10.836C372.735 10.836 371.782 11.21 371.092 11.958C370.403 12.6913 370.058 13.74 370.058 15.104V21H368.496ZM386.186 21.11C385.233 21.11 384.331 20.978 383.48 20.714C382.63 20.4353 381.962 20.0907 381.478 19.68L382.182 18.448C382.652 18.8 383.253 19.108 383.986 19.372C384.72 19.6213 385.49 19.746 386.296 19.746C387.396 19.746 388.188 19.5773 388.672 19.24C389.156 18.888 389.398 18.426 389.398 17.854C389.398 17.4287 389.259 17.0987 388.98 16.864C388.716 16.6147 388.364 16.4313 387.924 16.314C387.484 16.182 386.993 16.072 386.45 15.984C385.908 15.896 385.365 15.7933 384.822 15.676C384.294 15.5587 383.81 15.39 383.37 15.17C382.93 14.9353 382.571 14.62 382.292 14.224C382.028 13.828 381.896 13.3 381.896 12.64C381.896 12.0093 382.072 11.4447 382.424 10.946C382.776 10.4473 383.29 10.0587 383.964 9.78C384.654 9.48667 385.49 9.34 386.472 9.34C387.22 9.34 387.968 9.44267 388.716 9.648C389.464 9.83867 390.08 10.0953 390.564 10.418L389.882 11.672C389.369 11.32 388.819 11.0707 388.232 10.924C387.646 10.7627 387.059 10.682 386.472 10.682C385.431 10.682 384.661 10.8653 384.162 11.232C383.678 11.584 383.436 12.0387 383.436 12.596C383.436 13.036 383.568 13.3807 383.832 13.63C384.111 13.8793 384.47 14.0773 384.91 14.224C385.365 14.356 385.856 14.466 386.384 14.554C386.927 14.642 387.462 14.752 387.99 14.884C388.533 15.0013 389.024 15.17 389.464 15.39C389.919 15.5953 390.278 15.896 390.542 16.292C390.821 16.6733 390.96 17.1793 390.96 17.81C390.96 18.4847 390.77 19.0713 390.388 19.57C390.022 20.054 389.479 20.4353 388.76 20.714C388.056 20.978 387.198 21.11 386.186 21.11ZM398.6 21.11C397.618 21.11 396.76 20.9267 396.026 20.56C395.293 20.1933 394.721 19.6433 394.31 18.91C393.914 18.1767 393.716 17.26 393.716 16.16V9.45H395.278V15.984C395.278 17.216 395.579 18.1473 396.18 18.778C396.796 19.394 397.654 19.702 398.754 19.702C399.561 19.702 400.258 19.5407 400.844 19.218C401.446 18.8807 401.9 18.3967 402.208 17.766C402.531 17.1353 402.692 16.38 402.692 15.5V9.45H404.254V21H402.758V17.832L403 18.404C402.634 19.2547 402.062 19.922 401.284 20.406C400.522 20.8753 399.627 21.11 398.6 21.11ZM414.57 21.11C413.558 21.11 412.648 20.8827 411.842 20.428C411.035 19.9587 410.397 19.284 409.928 18.404C409.458 17.524 409.224 16.4607 409.224 15.214C409.224 13.9527 409.458 12.8893 409.928 12.024C410.412 11.144 411.057 10.4767 411.864 10.022C412.67 9.56733 413.572 9.34 414.57 9.34C415.67 9.34 416.652 9.58933 417.518 10.088C418.398 10.572 419.087 11.254 419.586 12.134C420.084 13.014 420.334 14.0407 420.334 15.214C420.334 16.3727 420.084 17.3993 419.586 18.294C419.087 19.174 418.398 19.8633 417.518 20.362C416.652 20.8607 415.67 21.11 414.57 21.11ZM408.608 21V4.676H410.17V12.86L409.95 15.192L410.104 17.524V21H408.608ZM414.46 19.724C415.281 19.724 416.014 19.5407 416.66 19.174C417.305 18.7927 417.818 18.2647 418.2 17.59C418.581 16.9007 418.772 16.1087 418.772 15.214C418.772 14.3047 418.581 13.5127 418.2 12.838C417.818 12.1633 417.305 11.6427 416.66 11.276C416.014 10.8947 415.281 10.704 414.46 10.704C413.638 10.704 412.898 10.8947 412.238 11.276C411.592 11.6427 411.079 12.1633 410.698 12.838C410.331 13.5127 410.148 14.3047 410.148 15.214C410.148 16.1087 410.331 16.9007 410.698 17.59C411.079 18.2647 411.592 18.7927 412.238 19.174C412.898 19.5407 413.638 19.724 414.46 19.724ZM426.62 21.11C425.667 21.11 424.765 20.978 423.914 20.714C423.063 20.4353 422.396 20.0907 421.912 19.68L422.616 18.448C423.085 18.8 423.687 19.108 424.42 19.372C425.153 19.6213 425.923 19.746 426.73 19.746C427.83 19.746 428.622 19.5773 429.106 19.24C429.59 18.888 429.832 18.426 429.832 17.854C429.832 17.4287 429.693 17.0987 429.414 16.864C429.15 16.6147 428.798 16.4313 428.358 16.314C427.918 16.182 427.427 16.072 426.884 15.984C426.341 15.896 425.799 15.7933 425.256 15.676C424.728 15.5587 424.244 15.39 423.804 15.17C423.364 14.9353 423.005 14.62 422.726 14.224C422.462 13.828 422.33 13.3 422.33 12.64C422.33 12.0093 422.506 11.4447 422.858 10.946C423.21 10.4473 423.723 10.0587 424.398 9.78C425.087 9.48667 425.923 9.34 426.906 9.34C427.654 9.34 428.402 9.44267 429.15 9.648C429.898 9.83867 430.514 10.0953 430.998 10.418L430.316 11.672C429.803 11.32 429.253 11.0707 428.666 10.924C428.079 10.7627 427.493 10.682 426.906 10.682C425.865 10.682 425.095 10.8653 424.596 11.232C424.112 11.584 423.87 12.0387 423.87 12.596C423.87 13.036 424.002 13.3807 424.266 13.63C424.545 13.8793 424.904 14.0773 425.344 14.224C425.799 14.356 426.29 14.466 426.818 14.554C427.361 14.642 427.896 14.752 428.424 14.884C428.967 15.0013 429.458 15.17 429.898 15.39C430.353 15.5953 430.712 15.896 430.976 16.292C431.255 16.6733 431.394 17.1793 431.394 17.81C431.394 18.4847 431.203 19.0713 430.822 19.57C430.455 20.054 429.913 20.4353 429.194 20.714C428.49 20.978 427.632 21.11 426.62 21.11ZM439.056 21.11C437.912 21.11 436.885 20.8607 435.976 20.362C435.081 19.8487 434.377 19.152 433.864 18.272C433.351 17.3773 433.094 16.358 433.094 15.214C433.094 14.0553 433.351 13.036 433.864 12.156C434.377 11.276 435.081 10.5867 435.976 10.088C436.885 9.58933 437.912 9.34 439.056 9.34C440.039 9.34 440.926 9.53067 441.718 9.912C442.51 10.2933 443.133 10.8653 443.588 11.628L442.422 12.42C442.026 11.8333 441.535 11.4007 440.948 11.122C440.361 10.8433 439.723 10.704 439.034 10.704C438.213 10.704 437.472 10.8947 436.812 11.276C436.152 11.6427 435.631 12.1633 435.25 12.838C434.869 13.5127 434.678 14.3047 434.678 15.214C434.678 16.1233 434.869 16.9153 435.25 17.59C435.631 18.2647 436.152 18.7927 436.812 19.174C437.472 19.5407 438.213 19.724 439.034 19.724C439.723 19.724 440.361 19.5847 440.948 19.306C441.535 19.0273 442.026 18.602 442.422 18.03L443.588 18.822C443.133 19.57 442.51 20.142 441.718 20.538C440.926 20.9193 440.039 21.11 439.056 21.11ZM446.657 21V9.45H448.153V12.596L447.999 12.046C448.321 11.166 448.864 10.4987 449.627 10.044C450.389 9.57467 451.335 9.34 452.465 9.34V10.858C452.406 10.858 452.347 10.858 452.289 10.858C452.23 10.8433 452.171 10.836 452.113 10.836C450.895 10.836 449.942 11.21 449.253 11.958C448.563 12.6913 448.219 13.74 448.219 15.104V21H446.657ZM455.315 21V9.45H456.877V21H455.315ZM456.107 6.898C455.784 6.898 455.513 6.788 455.293 6.568C455.073 6.348 454.963 6.084 454.963 5.776C454.963 5.468 455.073 5.21133 455.293 5.006C455.513 4.786 455.784 4.676 456.107 4.676C456.429 4.676 456.701 4.77867 456.921 4.984C457.141 5.18933 457.251 5.446 457.251 5.754C457.251 6.07667 457.141 6.348 456.921 6.568C456.715 6.788 456.444 6.898 456.107 6.898ZM467.185 21.11C466.188 21.11 465.286 20.8827 464.479 20.428C463.672 19.9587 463.027 19.2913 462.543 18.426C462.074 17.546 461.839 16.4753 461.839 15.214C461.839 13.9527 462.074 12.8893 462.543 12.024C463.012 11.144 463.65 10.4767 464.457 10.022C465.264 9.56733 466.173 9.34 467.185 9.34C468.285 9.34 469.268 9.58933 470.133 10.088C471.013 10.572 471.702 11.2613 472.201 12.156C472.7 13.036 472.949 14.0553 472.949 15.214C472.949 16.3873 472.7 17.414 472.201 18.294C471.702 19.174 471.013 19.8633 470.133 20.362C469.268 20.8607 468.285 21.11 467.185 21.11ZM461.223 25.268V9.45H462.719V12.926L462.565 15.236L462.785 17.568V25.268H461.223ZM467.075 19.724C467.896 19.724 468.63 19.5407 469.275 19.174C469.92 18.7927 470.434 18.2647 470.815 17.59C471.196 16.9007 471.387 16.1087 471.387 15.214C471.387 14.3193 471.196 13.5347 470.815 12.86C470.434 12.1853 469.92 11.6573 469.275 11.276C468.63 10.8947 467.896 10.704 467.075 10.704C466.254 10.704 465.513 10.8947 464.853 11.276C464.208 11.6573 463.694 12.1853 463.313 12.86C462.946 13.5347 462.763 14.3193 462.763 15.214C462.763 16.1087 462.946 16.9007 463.313 17.59C463.694 18.2647 464.208 18.7927 464.853 19.174C465.513 19.5407 466.254 19.724 467.075 19.724ZM479.785 21.11C478.7 21.11 477.864 20.8167 477.277 20.23C476.69 19.6433 476.397 18.8147 476.397 17.744V6.898H477.959V17.656C477.959 18.3307 478.128 18.8513 478.465 19.218C478.817 19.5847 479.316 19.768 479.961 19.768C480.65 19.768 481.222 19.57 481.677 19.174L482.227 20.296C481.919 20.5747 481.545 20.78 481.105 20.912C480.68 21.044 480.24 21.11 479.785 21.11ZM474.329 10.748V9.45H481.479V10.748H474.329ZM485.071 21V9.45H486.633V21H485.071ZM485.863 6.898C485.54 6.898 485.269 6.788 485.049 6.568C484.829 6.348 484.719 6.084 484.719 5.776C484.719 5.468 484.829 5.21133 485.049 5.006C485.269 4.786 485.54 4.676 485.863 4.676C486.185 4.676 486.457 4.77867 486.677 4.984C486.897 5.18933 487.007 5.446 487.007 5.754C487.007 6.07667 486.897 6.348 486.677 6.568C486.471 6.788 486.2 6.898 485.863 6.898ZM495.687 21.11C494.572 21.11 493.567 20.8607 492.673 20.362C491.793 19.8487 491.096 19.152 490.583 18.272C490.069 17.3773 489.813 16.358 489.813 15.214C489.813 14.0553 490.069 13.036 490.583 12.156C491.096 11.276 491.793 10.5867 492.673 10.088C493.553 9.58933 494.557 9.34 495.687 9.34C496.831 9.34 497.843 9.58933 498.723 10.088C499.617 10.5867 500.314 11.276 500.813 12.156C501.326 13.036 501.583 14.0553 501.583 15.214C501.583 16.358 501.326 17.3773 500.813 18.272C500.314 19.152 499.617 19.8487 498.723 20.362C497.828 20.8607 496.816 21.11 495.687 21.11ZM495.687 19.724C496.523 19.724 497.263 19.5407 497.909 19.174C498.554 18.7927 499.06 18.2647 499.427 17.59C499.808 16.9007 499.999 16.1087 499.999 15.214C499.999 14.3047 499.808 13.5127 499.427 12.838C499.06 12.1633 498.554 11.6427 497.909 11.276C497.263 10.8947 496.53 10.704 495.709 10.704C494.887 10.704 494.154 10.8947 493.509 11.276C492.863 11.6427 492.35 12.1633 491.969 12.838C491.587 13.5127 491.397 14.3047 491.397 15.214C491.397 16.1087 491.587 16.9007 491.969 17.59C492.35 18.2647 492.863 18.7927 493.509 19.174C494.154 19.5407 494.88 19.724 495.687 19.724ZM510.668 9.34C511.606 9.34 512.428 9.52333 513.132 9.89C513.85 10.242 514.408 10.7847 514.804 11.518C515.214 12.2513 515.42 13.1753 515.42 14.29V21H513.858V14.444C513.858 13.2267 513.55 12.31 512.934 11.694C512.332 11.0633 511.482 10.748 510.382 10.748C509.56 10.748 508.842 10.9167 508.226 11.254C507.624 11.5767 507.155 12.0533 506.818 12.684C506.495 13.3 506.334 14.048 506.334 14.928V21H504.772V9.45H506.268V12.618L506.026 12.024C506.392 11.188 506.979 10.5353 507.786 10.066C508.592 9.582 509.553 9.34 510.668 9.34ZM522.741 21.11C521.788 21.11 520.886 20.978 520.035 20.714C519.184 20.4353 518.517 20.0907 518.033 19.68L518.737 18.448C519.206 18.8 519.808 19.108 520.541 19.372C521.274 19.6213 522.044 19.746 522.851 19.746C523.951 19.746 524.743 19.5773 525.227 19.24C525.711 18.888 525.953 18.426 525.953 17.854C525.953 17.4287 525.814 17.0987 525.535 16.864C525.271 16.6147 524.919 16.4313 524.479 16.314C524.039 16.182 523.548 16.072 523.005 15.984C522.462 15.896 521.92 15.7933 521.377 15.676C520.849 15.5587 520.365 15.39 519.925 15.17C519.485 14.9353 519.126 14.62 518.847 14.224C518.583 13.828 518.451 13.3 518.451 12.64C518.451 12.0093 518.627 11.4447 518.979 10.946C519.331 10.4473 519.844 10.0587 520.519 9.78C521.208 9.48667 522.044 9.34 523.027 9.34C523.775 9.34 524.523 9.44267 525.271 9.648C526.019 9.83867 526.635 10.0953 527.119 10.418L526.437 11.672C525.924 11.32 525.374 11.0707 524.787 10.924C524.2 10.7627 523.614 10.682 523.027 10.682C521.986 10.682 521.216 10.8653 520.717 11.232C520.233 11.584 519.991 12.0387 519.991 12.596C519.991 13.036 520.123 13.3807 520.387 13.63C520.666 13.8793 521.025 14.0773 521.465 14.224C521.92 14.356 522.411 14.466 522.939 14.554C523.482 14.642 524.017 14.752 524.545 14.884C525.088 15.0013 525.579 15.17 526.019 15.39C526.474 15.5953 526.833 15.896 527.097 16.292C527.376 16.6733 527.515 17.1793 527.515 17.81C527.515 18.4847 527.324 19.0713 526.943 19.57C526.576 20.054 526.034 20.4353 525.315 20.714C524.611 20.978 523.753 21.11 522.741 21.11ZM133.442 48V34.998C133.442 33.9713 133.743 33.1427 134.344 32.512C134.945 31.8813 135.811 31.566 136.94 31.566C137.38 31.566 137.805 31.6247 138.216 31.742C138.627 31.8593 138.971 32.0427 139.25 32.292L138.722 33.458C138.502 33.2673 138.245 33.128 137.952 33.04C137.659 32.9373 137.343 32.886 137.006 32.886C136.346 32.886 135.84 33.0693 135.488 33.436C135.136 33.8027 134.96 34.3453 134.96 35.064V36.824L135.004 37.55V48H133.442ZM131.374 37.748V36.45H138.524V37.748H131.374ZM140.633 48V36.45H142.129V39.596L141.975 39.046C142.298 38.166 142.84 37.4987 143.603 37.044C144.366 36.5747 145.312 36.34 146.441 36.34V37.858C146.382 37.858 146.324 37.858 146.265 37.858C146.206 37.8433 146.148 37.836 146.089 37.836C144.872 37.836 143.918 38.21 143.229 38.958C142.54 39.6913 142.195 40.74 142.195 42.104V48H140.633ZM153.892 48.11C152.777 48.11 151.773 47.8607 150.878 47.362C149.998 46.8487 149.301 46.152 148.788 45.272C148.275 44.3773 148.018 43.358 148.018 42.214C148.018 41.0553 148.275 40.036 148.788 39.156C149.301 38.276 149.998 37.5867 150.878 37.088C151.758 36.5893 152.763 36.34 153.892 36.34C155.036 36.34 156.048 36.5893 156.928 37.088C157.823 37.5867 158.519 38.276 159.018 39.156C159.531 40.036 159.788 41.0553 159.788 42.214C159.788 43.358 159.531 44.3773 159.018 45.272C158.519 46.152 157.823 46.8487 156.928 47.362C156.033 47.8607 155.021 48.11 153.892 48.11ZM153.892 46.724C154.728 46.724 155.469 46.5407 156.114 46.174C156.759 45.7927 157.265 45.2647 157.632 44.59C158.013 43.9007 158.204 43.1087 158.204 42.214C158.204 41.3047 158.013 40.5127 157.632 39.838C157.265 39.1633 156.759 38.6427 156.114 38.276C155.469 37.8947 154.735 37.704 153.914 37.704C153.093 37.704 152.359 37.8947 151.714 38.276C151.069 38.6427 150.555 39.1633 150.174 39.838C149.793 40.5127 149.602 41.3047 149.602 42.214C149.602 43.1087 149.793 43.9007 150.174 44.59C150.555 45.2647 151.069 45.7927 151.714 46.174C152.359 46.5407 153.085 46.724 153.892 46.724ZM177.409 36.34C178.347 36.34 179.161 36.5233 179.851 36.89C180.555 37.242 181.097 37.7847 181.479 38.518C181.875 39.2513 182.073 40.1753 182.073 41.29V48H180.511V41.444C180.511 40.2267 180.217 39.31 179.631 38.694C179.059 38.0633 178.245 37.748 177.189 37.748C176.397 37.748 175.707 37.9167 175.121 38.254C174.549 38.5767 174.101 39.0533 173.779 39.684C173.471 40.3 173.317 41.048 173.317 41.928V48H171.755V41.444C171.755 40.2267 171.461 39.31 170.875 38.694C170.288 38.0633 169.467 37.748 168.411 37.748C167.633 37.748 166.951 37.9167 166.365 38.254C165.778 38.5767 165.323 39.0533 165.001 39.684C164.693 40.3 164.539 41.048 164.539 41.928V48H162.977V36.45H164.473V39.574L164.231 39.024C164.583 38.188 165.147 37.5353 165.925 37.066C166.717 36.582 167.648 36.34 168.719 36.34C169.848 36.34 170.809 36.626 171.601 37.198C172.393 37.7553 172.906 38.5987 173.141 39.728L172.525 39.486C172.862 38.5473 173.456 37.792 174.307 37.22C175.172 36.6333 176.206 36.34 177.409 36.34ZM195.719 48.11C194.633 48.11 193.797 47.8167 193.211 47.23C192.624 46.6433 192.331 45.8147 192.331 44.744V33.898H193.893V44.656C193.893 45.3307 194.061 45.8513 194.399 46.218C194.751 46.5847 195.249 46.768 195.895 46.768C196.584 46.768 197.156 46.57 197.611 46.174L198.161 47.296C197.853 47.5747 197.479 47.78 197.039 47.912C196.613 48.044 196.173 48.11 195.719 48.11ZM190.263 37.748V36.45H197.413V37.748H190.263ZM206.9 36.34C207.839 36.34 208.66 36.5233 209.364 36.89C210.083 37.242 210.64 37.7847 211.036 38.518C211.447 39.2513 211.652 40.1753 211.652 41.29V48H210.09V41.444C210.09 40.2267 209.782 39.31 209.166 38.694C208.565 38.0633 207.714 37.748 206.614 37.748C205.793 37.748 205.074 37.9167 204.458 38.254C203.857 38.5767 203.388 39.0533 203.05 39.684C202.728 40.3 202.566 41.048 202.566 41.928V48H201.004V31.676H202.566V39.618L202.258 39.024C202.625 38.188 203.212 37.5353 204.018 37.066C204.825 36.582 205.786 36.34 206.9 36.34ZM220.777 48.11C219.575 48.11 218.519 47.8607 217.609 47.362C216.7 46.8487 215.989 46.152 215.475 45.272C214.962 44.3773 214.705 43.358 214.705 42.214C214.705 41.07 214.947 40.058 215.431 39.178C215.93 38.298 216.605 37.6087 217.455 37.11C218.321 36.5967 219.289 36.34 220.359 36.34C221.445 36.34 222.405 36.5893 223.241 37.088C224.092 37.572 224.759 38.2613 225.243 39.156C225.727 40.036 225.969 41.0553 225.969 42.214C225.969 42.2873 225.962 42.368 225.947 42.456C225.947 42.5293 225.947 42.61 225.947 42.698H215.893V41.532H225.111L224.495 41.994C224.495 41.158 224.312 40.4173 223.945 39.772C223.593 39.112 223.109 38.5987 222.493 38.232C221.877 37.8653 221.166 37.682 220.359 37.682C219.567 37.682 218.856 37.8653 218.225 38.232C217.595 38.5987 217.103 39.112 216.751 39.772C216.399 40.432 216.223 41.1873 216.223 42.038V42.28C216.223 43.16 216.414 43.9373 216.795 44.612C217.191 45.272 217.734 45.7927 218.423 46.174C219.127 46.5407 219.927 46.724 220.821 46.724C221.525 46.724 222.178 46.5993 222.779 46.35C223.395 46.1007 223.923 45.7193 224.363 45.206L225.243 46.218C224.73 46.834 224.085 47.3033 223.307 47.626C222.545 47.9487 221.701 48.11 220.777 48.11ZM238.009 48.11C237.055 48.11 236.153 47.978 235.303 47.714C234.452 47.4353 233.785 47.0907 233.301 46.68L234.005 45.448C234.474 45.8 235.075 46.108 235.809 46.372C236.542 46.6213 237.312 46.746 238.119 46.746C239.219 46.746 240.011 46.5773 240.495 46.24C240.979 45.888 241.221 45.426 241.221 44.854C241.221 44.4287 241.081 44.0987 240.803 43.864C240.539 43.6147 240.187 43.4313 239.747 43.314C239.307 43.182 238.815 43.072 238.273 42.984C237.73 42.896 237.187 42.7933 236.645 42.676C236.117 42.5587 235.633 42.39 235.193 42.17C234.753 41.9353 234.393 41.62 234.115 41.224C233.851 40.828 233.719 40.3 233.719 39.64C233.719 39.0093 233.895 38.4447 234.247 37.946C234.599 37.4473 235.112 37.0587 235.787 36.78C236.476 36.4867 237.312 36.34 238.295 36.34C239.043 36.34 239.791 36.4427 240.539 36.648C241.287 36.8387 241.903 37.0953 242.387 37.418L241.705 38.672C241.191 38.32 240.641 38.0707 240.055 37.924C239.468 37.7627 238.881 37.682 238.295 37.682C237.253 37.682 236.483 37.8653 235.985 38.232C235.501 38.584 235.259 39.0387 235.259 39.596C235.259 40.036 235.391 40.3807 235.655 40.63C235.933 40.8793 236.293 41.0773 236.733 41.224C237.187 41.356 237.679 41.466 238.207 41.554C238.749 41.642 239.285 41.752 239.813 41.884C240.355 42.0013 240.847 42.17 241.287 42.39C241.741 42.5953 242.101 42.896 242.365 43.292C242.643 43.6733 242.783 44.1793 242.783 44.81C242.783 45.4847 242.592 46.0713 242.211 46.57C241.844 47.054 241.301 47.4353 240.583 47.714C239.879 47.978 239.021 48.11 238.009 48.11ZM252.887 48V45.448L252.821 45.03V40.762C252.821 39.7793 252.542 39.024 251.985 38.496C251.442 37.968 250.628 37.704 249.543 37.704C248.795 37.704 248.083 37.8287 247.409 38.078C246.734 38.3273 246.162 38.6573 245.693 39.068L244.989 37.902C245.575 37.4033 246.279 37.022 247.101 36.758C247.922 36.4793 248.787 36.34 249.697 36.34C251.193 36.34 252.344 36.714 253.151 37.462C253.972 38.1953 254.383 39.3173 254.383 40.828V48H252.887ZM248.905 48.11C248.039 48.11 247.284 47.9707 246.639 47.692C246.008 47.3987 245.524 47.0027 245.187 46.504C244.849 45.9907 244.681 45.404 244.681 44.744C244.681 44.1427 244.82 43.6 245.099 43.116C245.392 42.6173 245.861 42.2213 246.507 41.928C247.167 41.62 248.047 41.466 249.147 41.466H253.129V42.632H249.191C248.076 42.632 247.299 42.83 246.859 43.226C246.433 43.622 246.221 44.1133 246.221 44.7C246.221 45.36 246.477 45.888 246.991 46.284C247.504 46.68 248.223 46.878 249.147 46.878C250.027 46.878 250.782 46.68 251.413 46.284C252.058 45.8733 252.527 45.2867 252.821 44.524L253.173 45.602C252.879 46.3647 252.366 46.9733 251.633 47.428C250.914 47.8827 250.005 48.11 248.905 48.11ZM273.057 36.34C273.996 36.34 274.81 36.5233 275.499 36.89C276.203 37.242 276.746 37.7847 277.127 38.518C277.523 39.2513 277.721 40.1753 277.721 41.29V48H276.159V41.444C276.159 40.2267 275.866 39.31 275.279 38.694C274.707 38.0633 273.893 37.748 272.837 37.748C272.045 37.748 271.356 37.9167 270.769 38.254C270.197 38.5767 269.75 39.0533 269.427 39.684C269.119 40.3 268.965 41.048 268.965 41.928V48H267.403V41.444C267.403 40.2267 267.11 39.31 266.523 38.694C265.937 38.0633 265.115 37.748 264.059 37.748C263.282 37.748 262.6 37.9167 262.013 38.254C261.427 38.5767 260.972 39.0533 260.649 39.684C260.341 40.3 260.187 41.048 260.187 41.928V48H258.625V36.45H260.121V39.574L259.879 39.024C260.231 38.188 260.796 37.5353 261.573 37.066C262.365 36.582 263.297 36.34 264.367 36.34C265.497 36.34 266.457 36.626 267.249 37.198C268.041 37.7553 268.555 38.5987 268.789 39.728L268.173 39.486C268.511 38.5473 269.105 37.792 269.955 37.22C270.821 36.6333 271.855 36.34 273.057 36.34ZM286.863 48.11C285.661 48.11 284.605 47.8607 283.695 47.362C282.786 46.8487 282.075 46.152 281.561 45.272C281.048 44.3773 280.791 43.358 280.791 42.214C280.791 41.07 281.033 40.058 281.517 39.178C282.016 38.298 282.691 37.6087 283.541 37.11C284.407 36.5967 285.375 36.34 286.445 36.34C287.531 36.34 288.491 36.5893 289.327 37.088C290.178 37.572 290.845 38.2613 291.329 39.156C291.813 40.036 292.055 41.0553 292.055 42.214C292.055 42.2873 292.048 42.368 292.033 42.456C292.033 42.5293 292.033 42.61 292.033 42.698H281.979V41.532H291.197L290.581 41.994C290.581 41.158 290.398 40.4173 290.031 39.772C289.679 39.112 289.195 38.5987 288.579 38.232C287.963 37.8653 287.252 37.682 286.445 37.682C285.653 37.682 284.942 37.8653 284.311 38.232C283.681 38.5987 283.189 39.112 282.837 39.772C282.485 40.432 282.309 41.1873 282.309 42.038V42.28C282.309 43.16 282.5 43.9373 282.881 44.612C283.277 45.272 283.82 45.7927 284.509 46.174C285.213 46.5407 286.013 46.724 286.907 46.724C287.611 46.724 288.264 46.5993 288.865 46.35C289.481 46.1007 290.009 45.7193 290.449 45.206L291.329 46.218C290.816 46.834 290.171 47.3033 289.393 47.626C288.631 47.9487 287.787 48.11 286.863 48.11ZM308.23 48V45.448L308.164 45.03V40.762C308.164 39.7793 307.886 39.024 307.328 38.496C306.786 37.968 305.972 37.704 304.886 37.704C304.138 37.704 303.427 37.8287 302.752 38.078C302.078 38.3273 301.506 38.6573 301.036 39.068L300.332 37.902C300.919 37.4033 301.623 37.022 302.444 36.758C303.266 36.4793 304.131 36.34 305.04 36.34C306.536 36.34 307.688 36.714 308.494 37.462C309.316 38.1953 309.726 39.3173 309.726 40.828V48H308.23ZM304.248 48.11C303.383 48.11 302.628 47.9707 301.982 47.692C301.352 47.3987 300.868 47.0027 300.53 46.504C300.193 45.9907 300.024 45.404 300.024 44.744C300.024 44.1427 300.164 43.6 300.442 43.116C300.736 42.6173 301.205 42.2213 301.85 41.928C302.51 41.62 303.39 41.466 304.49 41.466H308.472V42.632H304.534C303.42 42.632 302.642 42.83 302.202 43.226C301.777 43.622 301.564 44.1133 301.564 44.7C301.564 45.36 301.821 45.888 302.334 46.284C302.848 46.68 303.566 46.878 304.49 46.878C305.37 46.878 306.126 46.68 306.756 46.284C307.402 45.8733 307.871 45.2867 308.164 44.524L308.516 45.602C308.223 46.3647 307.71 46.9733 306.976 47.428C306.258 47.8827 305.348 48.11 304.248 48.11ZM318.765 48.11C317.621 48.11 316.594 47.8607 315.685 47.362C314.79 46.8487 314.086 46.152 313.573 45.272C313.06 44.3773 312.803 43.358 312.803 42.214C312.803 41.0553 313.06 40.036 313.573 39.156C314.086 38.276 314.79 37.5867 315.685 37.088C316.594 36.5893 317.621 36.34 318.765 36.34C319.748 36.34 320.635 36.5307 321.427 36.912C322.219 37.2933 322.842 37.8653 323.297 38.628L322.131 39.42C321.735 38.8333 321.244 38.4007 320.657 38.122C320.07 37.8433 319.432 37.704 318.743 37.704C317.922 37.704 317.181 37.8947 316.521 38.276C315.861 38.6427 315.34 39.1633 314.959 39.838C314.578 40.5127 314.387 41.3047 314.387 42.214C314.387 43.1233 314.578 43.9153 314.959 44.59C315.34 45.2647 315.861 45.7927 316.521 46.174C317.181 46.5407 317.922 46.724 318.743 46.724C319.432 46.724 320.07 46.5847 320.657 46.306C321.244 46.0273 321.735 45.602 322.131 45.03L323.297 45.822C322.842 46.57 322.219 47.142 321.427 47.538C320.635 47.9193 319.748 48.11 318.765 48.11ZM330.968 48.11C329.824 48.11 328.797 47.8607 327.888 47.362C326.993 46.8487 326.289 46.152 325.776 45.272C325.263 44.3773 325.006 43.358 325.006 42.214C325.006 41.0553 325.263 40.036 325.776 39.156C326.289 38.276 326.993 37.5867 327.888 37.088C328.797 36.5893 329.824 36.34 330.968 36.34C331.951 36.34 332.838 36.5307 333.63 36.912C334.422 37.2933 335.045 37.8653 335.5 38.628L334.334 39.42C333.938 38.8333 333.447 38.4007 332.86 38.122C332.273 37.8433 331.635 37.704 330.946 37.704C330.125 37.704 329.384 37.8947 328.724 38.276C328.064 38.6427 327.543 39.1633 327.162 39.838C326.781 40.5127 326.59 41.3047 326.59 42.214C326.59 43.1233 326.781 43.9153 327.162 44.59C327.543 45.2647 328.064 45.7927 328.724 46.174C329.384 46.5407 330.125 46.724 330.946 46.724C331.635 46.724 332.273 46.5847 332.86 46.306C333.447 46.0273 333.938 45.602 334.334 45.03L335.5 45.822C335.045 46.57 334.422 47.142 333.63 47.538C332.838 47.9193 331.951 48.11 330.968 48.11ZM343.083 48.11C341.969 48.11 340.964 47.8607 340.069 47.362C339.189 46.8487 338.493 46.152 337.979 45.272C337.466 44.3773 337.209 43.358 337.209 42.214C337.209 41.0553 337.466 40.036 337.979 39.156C338.493 38.276 339.189 37.5867 340.069 37.088C340.949 36.5893 341.954 36.34 343.083 36.34C344.227 36.34 345.239 36.5893 346.119 37.088C347.014 37.5867 347.711 38.276 348.209 39.156C348.723 40.036 348.979 41.0553 348.979 42.214C348.979 43.358 348.723 44.3773 348.209 45.272C347.711 46.152 347.014 46.8487 346.119 47.362C345.225 47.8607 344.213 48.11 343.083 48.11ZM343.083 46.724C343.919 46.724 344.66 46.5407 345.305 46.174C345.951 45.7927 346.457 45.2647 346.823 44.59C347.205 43.9007 347.395 43.1087 347.395 42.214C347.395 41.3047 347.205 40.5127 346.823 39.838C346.457 39.1633 345.951 38.6427 345.305 38.276C344.66 37.8947 343.927 37.704 343.105 37.704C342.284 37.704 341.551 37.8947 340.905 38.276C340.26 38.6427 339.747 39.1633 339.365 39.838C338.984 40.5127 338.793 41.3047 338.793 42.214C338.793 43.1087 338.984 43.9007 339.365 44.59C339.747 45.2647 340.26 45.7927 340.905 46.174C341.551 46.5407 342.277 46.724 343.083 46.724ZM356.942 48.11C355.96 48.11 355.102 47.9267 354.368 47.56C353.635 47.1933 353.063 46.6433 352.652 45.91C352.256 45.1767 352.058 44.26 352.058 43.16V36.45H353.62V42.984C353.62 44.216 353.921 45.1473 354.522 45.778C355.138 46.394 355.996 46.702 357.096 46.702C357.903 46.702 358.6 46.5407 359.186 46.218C359.788 45.8807 360.242 45.3967 360.55 44.766C360.873 44.1353 361.034 43.38 361.034 42.5V36.45H362.596V48H361.1V44.832L361.342 45.404C360.976 46.2547 360.404 46.922 359.626 47.406C358.864 47.8753 357.969 48.11 356.942 48.11ZM372.845 36.34C373.784 36.34 374.605 36.5233 375.309 36.89C376.028 37.242 376.585 37.7847 376.981 38.518C377.392 39.2513 377.597 40.1753 377.597 41.29V48H376.035V41.444C376.035 40.2267 375.727 39.31 375.111 38.694C374.51 38.0633 373.659 37.748 372.559 37.748C371.738 37.748 371.019 37.9167 370.403 38.254C369.802 38.5767 369.333 39.0533 368.995 39.684C368.673 40.3 368.511 41.048 368.511 41.928V48H366.949V36.45H368.445V39.618L368.203 39.024C368.57 38.188 369.157 37.5353 369.963 37.066C370.77 36.582 371.731 36.34 372.845 36.34ZM385.469 48.11C384.383 48.11 383.547 47.8167 382.961 47.23C382.374 46.6433 382.081 45.8147 382.081 44.744V33.898H383.643V44.656C383.643 45.3307 383.811 45.8513 384.149 46.218C384.501 46.5847 384.999 46.768 385.645 46.768C386.334 46.768 386.906 46.57 387.361 46.174L387.911 47.296C387.603 47.5747 387.229 47.78 386.789 47.912C386.363 48.044 385.923 48.11 385.469 48.11ZM380.013 37.748V36.45H387.163V37.748H380.013ZM393.359 43.38C393.359 42.764 393.455 42.236 393.645 41.796C393.851 41.356 394.1 40.9673 394.393 40.63C394.701 40.2927 395.024 39.9773 395.361 39.684C395.713 39.3907 396.043 39.0973 396.351 38.804C396.659 38.496 396.909 38.166 397.099 37.814C397.29 37.4473 397.385 37.022 397.385 36.538C397.385 35.746 397.077 35.1007 396.461 34.602C395.845 34.1033 394.973 33.854 393.843 33.854C392.905 33.854 392.091 34.008 391.401 34.316C390.712 34.6093 390.125 35.0493 389.641 35.636L388.475 34.756C389.062 34.0227 389.817 33.458 390.741 33.062C391.665 32.666 392.736 32.468 393.953 32.468C394.98 32.468 395.867 32.622 396.615 32.93C397.378 33.238 397.965 33.678 398.375 34.25C398.801 34.822 399.013 35.504 399.013 36.296C399.013 36.9267 398.911 37.4693 398.705 37.924C398.515 38.364 398.265 38.76 397.957 39.112C397.664 39.4493 397.341 39.772 396.989 40.08C396.652 40.3733 396.329 40.674 396.021 40.982C395.713 41.29 395.464 41.6347 395.273 42.016C395.083 42.3973 394.987 42.852 394.987 43.38H393.359ZM394.173 48.11C393.865 48.11 393.594 48 393.359 47.78C393.139 47.5453 393.029 47.274 393.029 46.966C393.029 46.6433 393.139 46.3793 393.359 46.174C393.594 45.954 393.865 45.844 394.173 45.844C394.511 45.844 394.789 45.954 395.009 46.174C395.229 46.3793 395.339 46.6433 395.339 46.966C395.339 47.274 395.229 47.5453 395.009 47.78C394.789 48 394.511 48.11 394.173 48.11Z" fill="black"/>
<path d="M185.477 491.305L188.516 485.578H189.945L186.141 492.57V497H184.812V492.633L181 485.578H182.453L185.477 491.305ZM194.265 488.281C194.994 488.281 195.619 488.443 196.14 488.766C196.661 489.089 197.059 489.542 197.335 490.125C197.612 490.703 197.75 491.38 197.75 492.156V492.961H191.835C191.851 493.966 192.101 494.732 192.585 495.258C193.07 495.784 193.752 496.047 194.632 496.047C195.174 496.047 195.653 495.997 196.07 495.898C196.487 495.799 196.919 495.654 197.367 495.461V496.602C196.934 496.794 196.505 496.935 196.078 497.023C195.656 497.112 195.156 497.156 194.578 497.156C193.755 497.156 193.036 496.99 192.421 496.656C191.812 496.318 191.338 495.823 191 495.172C190.661 494.521 190.492 493.724 190.492 492.781C190.492 491.859 190.645 491.062 190.953 490.391C191.265 489.714 191.703 489.193 192.265 488.828C192.833 488.464 193.5 488.281 194.265 488.281ZM194.25 489.344C193.557 489.344 193.005 489.57 192.593 490.023C192.182 490.477 191.937 491.109 191.859 491.922H196.39C196.385 491.411 196.304 490.964 196.148 490.578C195.997 490.188 195.765 489.885 195.453 489.672C195.14 489.453 194.739 489.344 194.25 489.344ZM205.14 494.656C205.14 495.203 205.002 495.664 204.726 496.039C204.455 496.409 204.064 496.688 203.554 496.875C203.049 497.062 202.444 497.156 201.741 497.156C201.142 497.156 200.624 497.109 200.187 497.016C199.749 496.922 199.366 496.789 199.038 496.617V495.422C199.387 495.594 199.804 495.75 200.288 495.891C200.773 496.031 201.267 496.102 201.773 496.102C202.512 496.102 203.049 495.982 203.382 495.742C203.715 495.503 203.882 495.177 203.882 494.766C203.882 494.531 203.814 494.326 203.679 494.148C203.549 493.966 203.327 493.792 203.015 493.625C202.702 493.453 202.27 493.266 201.718 493.062C201.171 492.854 200.697 492.648 200.296 492.445C199.9 492.237 199.593 491.984 199.374 491.688C199.161 491.391 199.054 491.005 199.054 490.531C199.054 489.807 199.345 489.253 199.929 488.867C200.517 488.477 201.288 488.281 202.241 488.281C202.757 488.281 203.239 488.333 203.687 488.438C204.14 488.536 204.562 488.672 204.952 488.844L204.515 489.883C204.161 489.732 203.783 489.604 203.382 489.5C202.981 489.396 202.572 489.344 202.155 489.344C201.556 489.344 201.095 489.443 200.773 489.641C200.455 489.839 200.296 490.109 200.296 490.453C200.296 490.719 200.369 490.938 200.515 491.109C200.666 491.281 200.905 491.443 201.233 491.594C201.562 491.745 201.994 491.922 202.53 492.125C203.067 492.323 203.53 492.529 203.921 492.742C204.312 492.951 204.611 493.206 204.819 493.508C205.033 493.805 205.14 494.188 205.14 494.656Z" fill="#1E1E1E"/>
<path d="M191.492 539H189.961L183.734 529.406H183.672C183.688 529.661 183.706 529.953 183.727 530.281C183.747 530.604 183.763 530.951 183.773 531.32C183.789 531.685 183.797 532.057 183.797 532.438V539H182.562V527.578H184.086L190.289 537.141H190.344C190.333 536.958 190.32 536.701 190.305 536.367C190.289 536.029 190.273 535.667 190.258 535.281C190.247 534.891 190.242 534.529 190.242 534.195V527.578H191.492V539ZM201.445 534.703C201.445 535.406 201.354 536.034 201.171 536.586C200.989 537.138 200.726 537.604 200.382 537.984C200.039 538.365 199.622 538.656 199.132 538.859C198.648 539.057 198.099 539.156 197.484 539.156C196.911 539.156 196.385 539.057 195.906 538.859C195.432 538.656 195.02 538.365 194.671 537.984C194.328 537.604 194.059 537.138 193.867 536.586C193.679 536.034 193.585 535.406 193.585 534.703C193.585 533.766 193.744 532.969 194.062 532.312C194.38 531.651 194.833 531.148 195.421 530.805C196.015 530.456 196.721 530.281 197.539 530.281C198.32 530.281 199.002 530.456 199.585 530.805C200.174 531.154 200.63 531.659 200.953 532.32C201.281 532.977 201.445 533.771 201.445 534.703ZM194.929 534.703C194.929 535.391 195.02 535.987 195.203 536.492C195.385 536.997 195.666 537.388 196.046 537.664C196.427 537.94 196.916 538.078 197.515 538.078C198.109 538.078 198.596 537.94 198.976 537.664C199.362 537.388 199.645 536.997 199.828 536.492C200.01 535.987 200.101 535.391 200.101 534.703C200.101 534.021 200.01 533.432 199.828 532.938C199.645 532.438 199.364 532.052 198.984 531.781C198.604 531.51 198.112 531.375 197.507 531.375C196.617 531.375 195.963 531.669 195.546 532.258C195.135 532.846 194.929 533.661 194.929 534.703Z" fill="#1E1E1E"/>
<rect x="146" y="479" width="24" height="24" fill="#1F78B4"/>
<rect x="146" y="521" width="24" height="24" fill="#FF7F00"/>
<path d="M282.468 128.356C312.179 128.35 341.265 136.883 366.263 152.938C391.262 168.994 411.119 191.896 423.47 218.917C435.822 245.938 440.147 275.94 435.932 305.35C431.716 334.759 419.137 362.338 399.692 384.801C380.247 407.264 354.756 423.666 326.254 432.052C297.752 440.439 267.44 440.457 238.927 432.106C210.415 423.754 184.904 407.383 165.432 384.944C145.96 362.504 133.347 334.941 129.095 305.536L282.5 283.356L282.468 128.356Z" fill="#FF7F00"/>
<path d="M129.073 305.383C125.919 283.41 127.52 261.016 133.77 239.716C140.02 218.416 150.772 198.706 165.299 181.922C179.826 165.137 197.788 151.668 217.971 142.427C238.154 133.185 260.087 128.387 282.285 128.356L282.5 283.356L129.073 305.383Z" fill="#1F78B4"/>
<path d="M196.102 224.699C196.102 223.691 196.172 222.699 196.312 221.723C196.461 220.746 196.711 219.832 197.062 218.98C197.414 218.129 197.898 217.379 198.516 216.73C199.141 216.082 199.926 215.574 200.871 215.207C201.816 214.832 202.953 214.645 204.281 214.645C204.625 214.645 205.012 214.66 205.441 214.691C205.871 214.723 206.227 214.773 206.508 214.844V217.129C206.203 217.043 205.867 216.977 205.5 216.93C205.141 216.883 204.781 216.859 204.422 216.859C202.984 216.859 201.863 217.133 201.059 217.68C200.254 218.219 199.68 218.961 199.336 219.906C198.992 220.844 198.793 221.918 198.738 223.129H198.879C199.113 222.738 199.406 222.391 199.758 222.086C200.109 221.781 200.539 221.539 201.047 221.359C201.555 221.172 202.145 221.078 202.816 221.078C203.816 221.078 204.688 221.289 205.43 221.711C206.172 222.125 206.742 222.727 207.141 223.516C207.547 224.305 207.75 225.262 207.75 226.387C207.75 227.598 207.52 228.641 207.059 229.516C206.605 230.391 205.957 231.062 205.113 231.531C204.277 232 203.281 232.234 202.125 232.234C201.273 232.234 200.48 232.078 199.746 231.766C199.02 231.453 198.383 230.984 197.836 230.359C197.289 229.734 196.863 228.953 196.559 228.016C196.254 227.07 196.102 225.965 196.102 224.699ZM202.078 229.961C202.969 229.961 203.684 229.672 204.223 229.094C204.77 228.508 205.043 227.613 205.043 226.41C205.043 225.434 204.801 224.66 204.316 224.09C203.84 223.52 203.121 223.234 202.16 223.234C201.504 223.234 200.93 223.375 200.438 223.656C199.945 223.938 199.562 224.293 199.289 224.723C199.023 225.152 198.891 225.59 198.891 226.035C198.891 226.488 198.957 226.945 199.09 227.406C199.223 227.867 199.422 228.293 199.688 228.684C199.953 229.066 200.285 229.375 200.684 229.609C201.082 229.844 201.547 229.961 202.078 229.961Z" fill="white"/>
<path d="M343.176 351H340.41V339.973C340.41 339.605 340.414 339.238 340.422 338.871C340.43 338.504 340.438 338.145 340.445 337.793C340.461 337.441 340.48 337.105 340.504 336.785C340.34 336.965 340.137 337.16 339.895 337.371C339.66 337.582 339.41 337.801 339.145 338.027L337.176 339.598L335.793 337.852L340.879 333.867H343.176V351ZM348.308 343.699C348.308 342.691 348.378 341.699 348.519 340.723C348.667 339.746 348.917 338.832 349.269 337.98C349.62 337.129 350.105 336.379 350.722 335.73C351.347 335.082 352.132 334.574 353.077 334.207C354.023 333.832 355.16 333.645 356.488 333.645C356.831 333.645 357.218 333.66 357.648 333.691C358.077 333.723 358.433 333.773 358.714 333.844V336.129C358.41 336.043 358.074 335.977 357.706 335.93C357.347 335.883 356.988 335.859 356.628 335.859C355.191 335.859 354.07 336.133 353.265 336.68C352.46 337.219 351.886 337.961 351.542 338.906C351.199 339.844 350.999 340.918 350.945 342.129H351.085C351.32 341.738 351.613 341.391 351.964 341.086C352.316 340.781 352.745 340.539 353.253 340.359C353.761 340.172 354.351 340.078 355.023 340.078C356.023 340.078 356.894 340.289 357.636 340.711C358.378 341.125 358.949 341.727 359.347 342.516C359.753 343.305 359.956 344.262 359.956 345.387C359.956 346.598 359.726 347.641 359.265 348.516C358.812 349.391 358.163 350.062 357.32 350.531C356.484 351 355.488 351.234 354.331 351.234C353.48 351.234 352.687 351.078 351.952 350.766C351.226 350.453 350.589 349.984 350.042 349.359C349.495 348.734 349.07 347.953 348.765 347.016C348.46 346.07 348.308 344.965 348.308 343.699ZM354.285 348.961C355.175 348.961 355.89 348.672 356.429 348.094C356.976 347.508 357.249 346.613 357.249 345.41C357.249 344.434 357.007 343.66 356.523 343.09C356.046 342.52 355.327 342.234 354.367 342.234C353.71 342.234 353.136 342.375 352.644 342.656C352.152 342.938 351.769 343.293 351.495 343.723C351.23 344.152 351.097 344.59 351.097 345.035C351.097 345.488 351.163 345.945 351.296 346.406C351.429 346.867 351.628 347.293 351.894 347.684C352.16 348.066 352.492 348.375 352.89 348.609C353.288 348.844 353.753 348.961 354.285 348.961Z" fill="white"/>
</svg>
