<svg width="569" height="553" viewBox="0 0 569 553" fill="none" xmlns="http://www.w3.org/2000/svg">
<path d="M66.9163 21.132C65.567 21.132 64.401 20.8387 63.4183 20.252C62.4503 19.6653 61.7023 18.8 61.1743 17.656C60.661 16.512 60.4043 15.1187 60.4043 13.476C60.4043 12.2147 60.5803 11.0927 60.9323 10.11C61.299 9.12733 61.805 8.29133 62.4503 7.602C63.1103 6.91267 63.895 6.38467 64.8043 6.018C65.7283 5.65133 66.755 5.468 67.8843 5.468C68.5443 5.468 69.1897 5.54133 69.8203 5.688C70.451 5.82 71.0083 6.02533 71.4923 6.304L70.8763 7.602C70.451 7.338 69.9817 7.14733 69.4683 7.03C68.955 6.91267 68.427 6.854 67.8843 6.854C66.7257 6.854 65.7063 7.10333 64.8263 7.602C63.9463 8.086 63.257 8.79733 62.7583 9.736C62.2597 10.6747 62.0103 11.8333 62.0103 13.212C62.0103 13.5347 62.0323 13.938 62.0763 14.422C62.1203 14.906 62.201 15.3753 62.3183 15.83L61.8563 15.258C61.9737 14.554 62.2743 13.9453 62.7583 13.432C63.2423 12.904 63.851 12.5007 64.5843 12.222C65.3323 11.9287 66.139 11.782 67.0043 11.782C68.0457 11.782 68.9697 11.98 69.7763 12.376C70.5977 12.7573 71.2357 13.2927 71.6903 13.982C72.1597 14.6713 72.3943 15.478 72.3943 16.402C72.3943 17.3407 72.1523 18.1693 71.6683 18.888C71.1843 19.592 70.5317 20.142 69.7103 20.538C68.9037 20.934 67.9723 21.132 66.9163 21.132ZM66.8723 19.79C67.635 19.79 68.3097 19.6507 68.8963 19.372C69.483 19.0933 69.945 18.7047 70.2823 18.206C70.6197 17.6927 70.7883 17.106 70.7883 16.446C70.7883 15.786 70.6197 15.2067 70.2823 14.708C69.945 14.2093 69.4757 13.8207 68.8743 13.542C68.273 13.2633 67.5617 13.124 66.7403 13.124C65.963 13.124 65.2663 13.2633 64.6503 13.542C64.0343 13.8207 63.543 14.2093 63.1763 14.708C62.8097 15.2067 62.6263 15.786 62.6263 16.446C62.6263 16.974 62.7877 17.4947 63.1103 18.008C63.433 18.5213 63.9097 18.9467 64.5403 19.284C65.171 19.6213 65.9483 19.79 66.8723 19.79ZM76.3366 21.11C76.014 21.11 75.7353 20.9927 75.5006 20.758C75.2806 20.5233 75.1706 20.2373 75.1706 19.9C75.1706 19.548 75.2806 19.262 75.5006 19.042C75.7353 18.822 76.014 18.712 76.3366 18.712C76.6593 18.712 76.9306 18.822 77.1506 19.042C77.3853 19.262 77.5026 19.548 77.5026 19.9C77.5026 20.2373 77.3853 20.5233 77.1506 20.758C76.9306 20.9927 76.6593 21.11 76.3366 21.11ZM92.006 21L86.814 5.6H88.486L93.348 20.098H92.512L97.528 5.6H99.024L103.974 20.098H103.182L108.088 5.6H109.65L104.458 21H102.742L98.012 7.25H98.452L93.7 21H92.006ZM118.523 9.34C119.462 9.34 120.283 9.52333 120.987 9.89C121.706 10.242 122.263 10.7847 122.659 11.518C123.07 12.2513 123.275 13.1753 123.275 14.29V21H121.713V14.444C121.713 13.2267 121.405 12.31 120.789 11.694C120.188 11.0633 119.337 10.748 118.237 10.748C117.416 10.748 116.697 10.9167 116.081 11.254C115.48 11.5767 115.011 12.0533 114.673 12.684C114.351 13.3 114.189 14.048 114.189 14.928V21H112.627V4.676H114.189V12.618L113.881 12.024C114.248 11.188 114.835 10.5353 115.641 10.066C116.448 9.582 117.409 9.34 118.523 9.34ZM132.4 21.11C131.198 21.11 130.142 20.8607 129.232 20.362C128.323 19.8487 127.612 19.152 127.098 18.272C126.585 17.3773 126.328 16.358 126.328 15.214C126.328 14.07 126.57 13.058 127.054 12.178C127.553 11.298 128.228 10.6087 129.078 10.11C129.944 9.59667 130.912 9.34 131.982 9.34C133.068 9.34 134.028 9.58933 134.864 10.088C135.715 10.572 136.382 11.2613 136.866 12.156C137.35 13.036 137.592 14.0553 137.592 15.214C137.592 15.2873 137.585 15.368 137.57 15.456C137.57 15.5293 137.57 15.61 137.57 15.698H127.516V14.532H136.734L136.118 14.994C136.118 14.158 135.935 13.4173 135.568 12.772C135.216 12.112 134.732 11.5987 134.116 11.232C133.5 10.8653 132.789 10.682 131.982 10.682C131.19 10.682 130.479 10.8653 129.848 11.232C129.218 11.5987 128.726 12.112 128.374 12.772C128.022 13.432 127.846 14.1873 127.846 15.038V15.28C127.846 16.16 128.037 16.9373 128.418 17.612C128.814 18.272 129.357 18.7927 130.046 19.174C130.75 19.5407 131.55 19.724 132.444 19.724C133.148 19.724 133.801 19.5993 134.402 19.35C135.018 19.1007 135.546 18.7193 135.986 18.206L136.866 19.218C136.353 19.834 135.708 20.3033 134.93 20.626C134.168 20.9487 133.324 21.11 132.4 21.11ZM146.668 9.34C147.606 9.34 148.428 9.52333 149.132 9.89C149.85 10.242 150.408 10.7847 150.804 11.518C151.214 12.2513 151.42 13.1753 151.42 14.29V21H149.858V14.444C149.858 13.2267 149.55 12.31 148.934 11.694C148.332 11.0633 147.482 10.748 146.382 10.748C145.56 10.748 144.842 10.9167 144.226 11.254C143.624 11.5767 143.155 12.0533 142.818 12.684C142.495 13.3 142.334 14.048 142.334 14.928V21H140.772V9.45H142.268V12.618L142.026 12.024C142.392 11.188 142.979 10.5353 143.786 10.066C144.592 9.582 145.553 9.34 146.668 9.34ZM161.485 25.378C160.942 25.378 160.421 25.29 159.923 25.114C159.439 24.938 159.021 24.674 158.669 24.322L159.395 23.156C159.688 23.4347 160.003 23.6473 160.341 23.794C160.693 23.9553 161.081 24.036 161.507 24.036C162.02 24.036 162.46 23.8893 162.827 23.596C163.208 23.3173 163.567 22.8187 163.905 22.1L164.653 20.406L164.829 20.164L169.581 9.45H171.121L165.335 22.386C165.012 23.134 164.653 23.728 164.257 24.168C163.875 24.608 163.457 24.916 163.003 25.092C162.548 25.2827 162.042 25.378 161.485 25.378ZM164.565 21.33L159.241 9.45H160.869L165.577 20.054L164.565 21.33ZM177.706 21.11C176.592 21.11 175.587 20.8607 174.692 20.362C173.812 19.8487 173.116 19.152 172.602 18.272C172.089 17.3773 171.832 16.358 171.832 15.214C171.832 14.0553 172.089 13.036 172.602 12.156C173.116 11.276 173.812 10.5867 174.692 10.088C175.572 9.58933 176.577 9.34 177.706 9.34C178.85 9.34 179.862 9.58933 180.742 10.088C181.637 10.5867 182.334 11.276 182.832 12.156C183.346 13.036 183.602 14.0553 183.602 15.214C183.602 16.358 183.346 17.3773 182.832 18.272C182.334 19.152 181.637 19.8487 180.742 20.362C179.848 20.8607 178.836 21.11 177.706 21.11ZM177.706 19.724C178.542 19.724 179.283 19.5407 179.928 19.174C180.574 18.7927 181.08 18.2647 181.446 17.59C181.828 16.9007 182.018 16.1087 182.018 15.214C182.018 14.3047 181.828 13.5127 181.446 12.838C181.08 12.1633 180.574 11.6427 179.928 11.276C179.283 10.8947 178.55 10.704 177.728 10.704C176.907 10.704 176.174 10.8947 175.528 11.276C174.883 11.6427 174.37 12.1633 173.988 12.838C173.607 13.5127 173.416 14.3047 173.416 15.214C173.416 16.1087 173.607 16.9007 173.988 17.59C174.37 18.2647 174.883 18.7927 175.528 19.174C176.174 19.5407 176.9 19.724 177.706 19.724ZM191.565 21.11C190.583 21.11 189.725 20.9267 188.991 20.56C188.258 20.1933 187.686 19.6433 187.275 18.91C186.879 18.1767 186.681 17.26 186.681 16.16V9.45H188.243V15.984C188.243 17.216 188.544 18.1473 189.145 18.778C189.761 19.394 190.619 19.702 191.719 19.702C192.526 19.702 193.223 19.5407 193.809 19.218C194.411 18.8807 194.865 18.3967 195.173 17.766C195.496 17.1353 195.657 16.38 195.657 15.5V9.45H197.219V21H195.723V17.832L195.965 18.404C195.599 19.2547 195.027 19.922 194.249 20.406C193.487 20.8753 192.592 21.11 191.565 21.11ZM212.126 21.11C210.982 21.11 209.956 20.8607 209.046 20.362C208.152 19.8487 207.448 19.152 206.934 18.272C206.421 17.3773 206.164 16.358 206.164 15.214C206.164 14.0553 206.421 13.036 206.934 12.156C207.448 11.276 208.152 10.5867 209.046 10.088C209.956 9.58933 210.982 9.34 212.126 9.34C213.109 9.34 213.996 9.53067 214.788 9.912C215.58 10.2933 216.204 10.8653 216.658 11.628L215.492 12.42C215.096 11.8333 214.605 11.4007 214.018 11.122C213.432 10.8433 212.794 10.704 212.104 10.704C211.283 10.704 210.542 10.8947 209.882 11.276C209.222 11.6427 208.702 12.1633 208.32 12.838C207.939 13.5127 207.748 14.3047 207.748 15.214C207.748 16.1233 207.939 16.9153 208.32 17.59C208.702 18.2647 209.222 18.7927 209.882 19.174C210.542 19.5407 211.283 19.724 212.104 19.724C212.794 19.724 213.432 19.5847 214.018 19.306C214.605 19.0273 215.096 18.602 215.492 18.03L216.658 18.822C216.204 19.57 215.58 20.142 214.788 20.538C213.996 20.9193 213.109 21.11 212.126 21.11ZM226.965 21V18.448L226.899 18.03V13.762C226.899 12.7793 226.62 12.024 226.063 11.496C225.52 10.968 224.706 10.704 223.621 10.704C222.873 10.704 222.161 10.8287 221.487 11.078C220.812 11.3273 220.24 11.6573 219.771 12.068L219.067 10.902C219.653 10.4033 220.357 10.022 221.179 9.758C222 9.47933 222.865 9.34 223.775 9.34C225.271 9.34 226.422 9.714 227.229 10.462C228.05 11.1953 228.461 12.3173 228.461 13.828V21H226.965ZM222.983 21.11C222.117 21.11 221.362 20.9707 220.717 20.692C220.086 20.3987 219.602 20.0027 219.265 19.504C218.927 18.9907 218.759 18.404 218.759 17.744C218.759 17.1427 218.898 16.6 219.177 16.116C219.47 15.6173 219.939 15.2213 220.585 14.928C221.245 14.62 222.125 14.466 223.225 14.466H227.207V15.632H223.269C222.154 15.632 221.377 15.83 220.937 16.226C220.511 16.622 220.299 17.1133 220.299 17.7C220.299 18.36 220.555 18.888 221.069 19.284C221.582 19.68 222.301 19.878 223.225 19.878C224.105 19.878 224.86 19.68 225.491 19.284C226.136 18.8733 226.605 18.2867 226.899 17.524L227.251 18.602C226.957 19.3647 226.444 19.9733 225.711 20.428C224.992 20.8827 224.083 21.11 222.983 21.11ZM238.599 9.34C239.538 9.34 240.359 9.52333 241.063 9.89C241.782 10.242 242.339 10.7847 242.735 11.518C243.146 12.2513 243.351 13.1753 243.351 14.29V21H241.789V14.444C241.789 13.2267 241.481 12.31 240.865 11.694C240.264 11.0633 239.413 10.748 238.313 10.748C237.492 10.748 236.773 10.9167 236.157 11.254C235.556 11.5767 235.087 12.0533 234.749 12.684C234.427 13.3 234.265 14.048 234.265 14.928V21H232.703V9.45H234.199V12.618L233.957 12.024C234.324 11.188 234.911 10.5353 235.717 10.066C236.524 9.582 237.485 9.34 238.599 9.34ZM252.367 21.11C251.223 21.11 250.196 20.8607 249.287 20.362C248.392 19.8487 247.688 19.152 247.175 18.272C246.661 17.3773 246.405 16.358 246.405 15.214C246.405 14.0553 246.661 13.036 247.175 12.156C247.688 11.276 248.392 10.5867 249.287 10.088C250.196 9.58933 251.223 9.34 252.367 9.34C253.349 9.34 254.237 9.53067 255.029 9.912C255.821 10.2933 256.444 10.8653 256.899 11.628L255.733 12.42C255.337 11.8333 254.845 11.4007 254.259 11.122C253.672 10.8433 253.034 10.704 252.345 10.704C251.523 10.704 250.783 10.8947 250.123 11.276C249.463 11.6427 248.942 12.1633 248.561 12.838C248.179 13.5127 247.989 14.3047 247.989 15.214C247.989 16.1233 248.179 16.9153 248.561 17.59C248.942 18.2647 249.463 18.7927 250.123 19.174C250.783 19.5407 251.523 19.724 252.345 19.724C253.034 19.724 253.672 19.5847 254.259 19.306C254.845 19.0273 255.337 18.602 255.733 18.03L256.899 18.822C256.444 19.57 255.821 20.142 255.029 20.538C254.237 20.9193 253.349 21.11 252.367 21.11ZM264.68 21.11C263.477 21.11 262.421 20.8607 261.512 20.362C260.602 19.8487 259.891 19.152 259.378 18.272C258.864 17.3773 258.608 16.358 258.608 15.214C258.608 14.07 258.85 13.058 259.334 12.178C259.832 11.298 260.507 10.6087 261.358 10.11C262.223 9.59667 263.191 9.34 264.262 9.34C265.347 9.34 266.308 9.58933 267.144 10.088C267.994 10.572 268.662 11.2613 269.146 12.156C269.63 13.036 269.872 14.0553 269.872 15.214C269.872 15.2873 269.864 15.368 269.85 15.456C269.85 15.5293 269.85 15.61 269.85 15.698H259.796V14.532H269.014L268.398 14.994C268.398 14.158 268.214 13.4173 267.848 12.772C267.496 12.112 267.012 11.5987 266.396 11.232C265.78 10.8653 265.068 10.682 264.262 10.682C263.47 10.682 262.758 10.8653 262.128 11.232C261.497 11.5987 261.006 12.112 260.654 12.772C260.302 13.432 260.126 14.1873 260.126 15.038V15.28C260.126 16.16 260.316 16.9373 260.698 17.612C261.094 18.272 261.636 18.7927 262.326 19.174C263.03 19.5407 263.829 19.724 264.724 19.724C265.428 19.724 266.08 19.5993 266.682 19.35C267.298 19.1007 267.826 18.7193 268.266 18.206L269.146 19.218C268.632 19.834 267.987 20.3033 267.21 20.626C266.447 20.9487 265.604 21.11 264.68 21.11ZM273.051 21V4.676H274.613V21H273.051ZM291.955 21V18.448L291.889 18.03V13.762C291.889 12.7793 291.61 12.024 291.053 11.496C290.51 10.968 289.696 10.704 288.611 10.704C287.863 10.704 287.152 10.8287 286.477 11.078C285.802 11.3273 285.23 11.6573 284.761 12.068L284.057 10.902C284.644 10.4033 285.348 10.022 286.169 9.758C286.99 9.47933 287.856 9.34 288.765 9.34C290.261 9.34 291.412 9.714 292.219 10.462C293.04 11.1953 293.451 12.3173 293.451 13.828V21H291.955ZM287.973 21.11C287.108 21.11 286.352 20.9707 285.707 20.692C285.076 20.3987 284.592 20.0027 284.255 19.504C283.918 18.9907 283.749 18.404 283.749 17.744C283.749 17.1427 283.888 16.6 284.167 16.116C284.46 15.6173 284.93 15.2213 285.575 14.928C286.235 14.62 287.115 14.466 288.215 14.466H292.197V15.632H288.259C287.144 15.632 286.367 15.83 285.927 16.226C285.502 16.622 285.289 17.1133 285.289 17.7C285.289 18.36 285.546 18.888 286.059 19.284C286.572 19.68 287.291 19.878 288.215 19.878C289.095 19.878 289.85 19.68 290.481 19.284C291.126 18.8733 291.596 18.2867 291.889 17.524L292.241 18.602C291.948 19.3647 291.434 19.9733 290.701 20.428C289.982 20.8827 289.073 21.11 287.973 21.11ZM306.553 21.11C305.6 21.11 304.698 20.978 303.847 20.714C302.997 20.4353 302.329 20.0907 301.845 19.68L302.549 18.448C303.019 18.8 303.62 19.108 304.353 19.372C305.087 19.6213 305.857 19.746 306.663 19.746C307.763 19.746 308.555 19.5773 309.039 19.24C309.523 18.888 309.765 18.426 309.765 17.854C309.765 17.4287 309.626 17.0987 309.347 16.864C309.083 16.6147 308.731 16.4313 308.291 16.314C307.851 16.182 307.36 16.072 306.817 15.984C306.275 15.896 305.732 15.7933 305.189 15.676C304.661 15.5587 304.177 15.39 303.737 15.17C303.297 14.9353 302.938 14.62 302.659 14.224C302.395 13.828 302.263 13.3 302.263 12.64C302.263 12.0093 302.439 11.4447 302.791 10.946C303.143 10.4473 303.657 10.0587 304.331 9.78C305.021 9.48667 305.857 9.34 306.839 9.34C307.587 9.34 308.335 9.44267 309.083 9.648C309.831 9.83867 310.447 10.0953 310.931 10.418L310.249 11.672C309.736 11.32 309.186 11.0707 308.599 10.924C308.013 10.7627 307.426 10.682 306.839 10.682C305.798 10.682 305.028 10.8653 304.529 11.232C304.045 11.584 303.803 12.0387 303.803 12.596C303.803 13.036 303.935 13.3807 304.199 13.63C304.478 13.8793 304.837 14.0773 305.277 14.224C305.732 14.356 306.223 14.466 306.751 14.554C307.294 14.642 307.829 14.752 308.357 14.884C308.9 15.0013 309.391 15.17 309.831 15.39C310.286 15.5953 310.645 15.896 310.909 16.292C311.188 16.6733 311.327 17.1793 311.327 17.81C311.327 18.4847 311.137 19.0713 310.755 19.57C310.389 20.054 309.846 20.4353 309.127 20.714C308.423 20.978 307.565 21.11 306.553 21.11ZM318.968 21.11C317.985 21.11 317.127 20.9267 316.394 20.56C315.66 20.1933 315.088 19.6433 314.678 18.91C314.282 18.1767 314.084 17.26 314.084 16.16V9.45H315.646V15.984C315.646 17.216 315.946 18.1473 316.548 18.778C317.164 19.394 318.022 19.702 319.122 19.702C319.928 19.702 320.625 19.5407 321.212 19.218C321.813 18.8807 322.268 18.3967 322.576 17.766C322.898 17.1353 323.06 16.38 323.06 15.5V9.45H324.622V21H323.126V17.832L323.368 18.404C323.001 19.2547 322.429 19.922 321.652 20.406C320.889 20.8753 319.994 21.11 318.968 21.11ZM334.937 21.11C333.925 21.11 333.016 20.8827 332.209 20.428C331.402 19.9587 330.764 19.284 330.295 18.404C329.826 17.524 329.591 16.4607 329.591 15.214C329.591 13.9527 329.826 12.8893 330.295 12.024C330.779 11.144 331.424 10.4767 332.231 10.022C333.038 9.56733 333.94 9.34 334.937 9.34C336.037 9.34 337.02 9.58933 337.885 10.088C338.765 10.572 339.454 11.254 339.953 12.134C340.452 13.014 340.701 14.0407 340.701 15.214C340.701 16.3727 340.452 17.3993 339.953 18.294C339.454 19.174 338.765 19.8633 337.885 20.362C337.02 20.8607 336.037 21.11 334.937 21.11ZM328.975 21V4.676H330.537V12.86L330.317 15.192L330.471 17.524V21H328.975ZM334.827 19.724C335.648 19.724 336.382 19.5407 337.027 19.174C337.672 18.7927 338.186 18.2647 338.567 17.59C338.948 16.9007 339.139 16.1087 339.139 15.214C339.139 14.3047 338.948 13.5127 338.567 12.838C338.186 12.1633 337.672 11.6427 337.027 11.276C336.382 10.8947 335.648 10.704 334.827 10.704C334.006 10.704 333.265 10.8947 332.605 11.276C331.96 11.6427 331.446 12.1633 331.065 12.838C330.698 13.5127 330.515 14.3047 330.515 15.214C330.515 16.1087 330.698 16.9007 331.065 17.59C331.446 18.2647 331.96 18.7927 332.605 19.174C333.265 19.5407 334.006 19.724 334.827 19.724ZM346.987 21.11C346.034 21.11 345.132 20.978 344.281 20.714C343.43 20.4353 342.763 20.0907 342.279 19.68L342.983 18.448C343.452 18.8 344.054 19.108 344.787 19.372C345.52 19.6213 346.29 19.746 347.097 19.746C348.197 19.746 348.989 19.5773 349.473 19.24C349.957 18.888 350.199 18.426 350.199 17.854C350.199 17.4287 350.06 17.0987 349.781 16.864C349.517 16.6147 349.165 16.4313 348.725 16.314C348.285 16.182 347.794 16.072 347.251 15.984C346.708 15.896 346.166 15.7933 345.623 15.676C345.095 15.5587 344.611 15.39 344.171 15.17C343.731 14.9353 343.372 14.62 343.093 14.224C342.829 13.828 342.697 13.3 342.697 12.64C342.697 12.0093 342.873 11.4447 343.225 10.946C343.577 10.4473 344.09 10.0587 344.765 9.78C345.454 9.48667 346.29 9.34 347.273 9.34C348.021 9.34 348.769 9.44267 349.517 9.648C350.265 9.83867 350.881 10.0953 351.365 10.418L350.683 11.672C350.17 11.32 349.62 11.0707 349.033 10.924C348.446 10.7627 347.86 10.682 347.273 10.682C346.232 10.682 345.462 10.8653 344.963 11.232C344.479 11.584 344.237 12.0387 344.237 12.596C344.237 13.036 344.369 13.3807 344.633 13.63C344.912 13.8793 345.271 14.0773 345.711 14.224C346.166 14.356 346.657 14.466 347.185 14.554C347.728 14.642 348.263 14.752 348.791 14.884C349.334 15.0013 349.825 15.17 350.265 15.39C350.72 15.5953 351.079 15.896 351.343 16.292C351.622 16.6733 351.761 17.1793 351.761 17.81C351.761 18.4847 351.57 19.0713 351.189 19.57C350.822 20.054 350.28 20.4353 349.561 20.714C348.857 20.978 347.999 21.11 346.987 21.11ZM359.423 21.11C358.279 21.11 357.253 20.8607 356.343 20.362C355.449 19.8487 354.745 19.152 354.231 18.272C353.718 17.3773 353.461 16.358 353.461 15.214C353.461 14.0553 353.718 13.036 354.231 12.156C354.745 11.276 355.449 10.5867 356.343 10.088C357.253 9.58933 358.279 9.34 359.423 9.34C360.406 9.34 361.293 9.53067 362.085 9.912C362.877 10.2933 363.501 10.8653 363.955 11.628L362.789 12.42C362.393 11.8333 361.902 11.4007 361.315 11.122C360.729 10.8433 360.091 10.704 359.401 10.704C358.58 10.704 357.839 10.8947 357.179 11.276C356.519 11.6427 355.999 12.1633 355.617 12.838C355.236 13.5127 355.045 14.3047 355.045 15.214C355.045 16.1233 355.236 16.9153 355.617 17.59C355.999 18.2647 356.519 18.7927 357.179 19.174C357.839 19.5407 358.58 19.724 359.401 19.724C360.091 19.724 360.729 19.5847 361.315 19.306C361.902 19.0273 362.393 18.602 362.789 18.03L363.955 18.822C363.501 19.57 362.877 20.142 362.085 20.538C361.293 20.9193 360.406 21.11 359.423 21.11ZM367.024 21V9.45H368.52V12.596L368.366 12.046C368.688 11.166 369.231 10.4987 369.994 10.044C370.756 9.57467 371.702 9.34 372.832 9.34V10.858C372.773 10.858 372.714 10.858 372.656 10.858C372.597 10.8433 372.538 10.836 372.48 10.836C371.262 10.836 370.309 11.21 369.62 11.958C368.93 12.6913 368.586 13.74 368.586 15.104V21H367.024ZM375.682 21V9.45H377.244V21H375.682ZM376.474 6.898C376.151 6.898 375.88 6.788 375.66 6.568C375.44 6.348 375.33 6.084 375.33 5.776C375.33 5.468 375.44 5.21133 375.66 5.006C375.88 4.786 376.151 4.676 376.474 4.676C376.797 4.676 377.068 4.77867 377.288 4.984C377.508 5.18933 377.618 5.446 377.618 5.754C377.618 6.07667 377.508 6.348 377.288 6.568C377.083 6.788 376.811 6.898 376.474 6.898ZM387.552 21.11C386.555 21.11 385.653 20.8827 384.846 20.428C384.039 19.9587 383.394 19.2913 382.91 18.426C382.441 17.546 382.206 16.4753 382.206 15.214C382.206 13.9527 382.441 12.8893 382.91 12.024C383.379 11.144 384.017 10.4767 384.824 10.022C385.631 9.56733 386.54 9.34 387.552 9.34C388.652 9.34 389.635 9.58933 390.5 10.088C391.38 10.572 392.069 11.2613 392.568 12.156C393.067 13.036 393.316 14.0553 393.316 15.214C393.316 16.3873 393.067 17.414 392.568 18.294C392.069 19.174 391.38 19.8633 390.5 20.362C389.635 20.8607 388.652 21.11 387.552 21.11ZM381.59 25.268V9.45H383.086V12.926L382.932 15.236L383.152 17.568V25.268H381.59ZM387.442 19.724C388.263 19.724 388.997 19.5407 389.642 19.174C390.287 18.7927 390.801 18.2647 391.182 17.59C391.563 16.9007 391.754 16.1087 391.754 15.214C391.754 14.3193 391.563 13.5347 391.182 12.86C390.801 12.1853 390.287 11.6573 389.642 11.276C388.997 10.8947 388.263 10.704 387.442 10.704C386.621 10.704 385.88 10.8947 385.22 11.276C384.575 11.6573 384.061 12.1853 383.68 12.86C383.313 13.5347 383.13 14.3193 383.13 15.214C383.13 16.1087 383.313 16.9007 383.68 17.59C384.061 18.2647 384.575 18.7927 385.22 19.174C385.88 19.5407 386.621 19.724 387.442 19.724ZM400.152 21.11C399.067 21.11 398.231 20.8167 397.644 20.23C397.058 19.6433 396.764 18.8147 396.764 17.744V6.898H398.326V17.656C398.326 18.3307 398.495 18.8513 398.832 19.218C399.184 19.5847 399.683 19.768 400.328 19.768C401.018 19.768 401.59 19.57 402.044 19.174L402.594 20.296C402.286 20.5747 401.912 20.78 401.472 20.912C401.047 21.044 400.607 21.11 400.152 21.11ZM394.696 10.748V9.45H401.846V10.748H394.696ZM405.438 21V9.45H407V21H405.438ZM406.23 6.898C405.907 6.898 405.636 6.788 405.416 6.568C405.196 6.348 405.086 6.084 405.086 5.776C405.086 5.468 405.196 5.21133 405.416 5.006C405.636 4.786 405.907 4.676 406.23 4.676C406.552 4.676 406.824 4.77867 407.044 4.984C407.264 5.18933 407.374 5.446 407.374 5.754C407.374 6.07667 407.264 6.348 407.044 6.568C406.838 6.788 406.567 6.898 406.23 6.898ZM416.054 21.11C414.939 21.11 413.935 20.8607 413.04 20.362C412.16 19.8487 411.463 19.152 410.95 18.272C410.437 17.3773 410.18 16.358 410.18 15.214C410.18 14.0553 410.437 13.036 410.95 12.156C411.463 11.276 412.16 10.5867 413.04 10.088C413.92 9.58933 414.925 9.34 416.054 9.34C417.198 9.34 418.21 9.58933 419.09 10.088C419.985 10.5867 420.681 11.276 421.18 12.156C421.693 13.036 421.95 14.0553 421.95 15.214C421.95 16.358 421.693 17.3773 421.18 18.272C420.681 19.152 419.985 19.8487 419.09 20.362C418.195 20.8607 417.183 21.11 416.054 21.11ZM416.054 19.724C416.89 19.724 417.631 19.5407 418.276 19.174C418.921 18.7927 419.427 18.2647 419.794 17.59C420.175 16.9007 420.366 16.1087 420.366 15.214C420.366 14.3047 420.175 13.5127 419.794 12.838C419.427 12.1633 418.921 11.6427 418.276 11.276C417.631 10.8947 416.897 10.704 416.076 10.704C415.255 10.704 414.521 10.8947 413.876 11.276C413.231 11.6427 412.717 12.1633 412.336 12.838C411.955 13.5127 411.764 14.3047 411.764 15.214C411.764 16.1087 411.955 16.9007 412.336 17.59C412.717 18.2647 413.231 18.7927 413.876 19.174C414.521 19.5407 415.247 19.724 416.054 19.724ZM431.035 9.34C431.974 9.34 432.795 9.52333 433.499 9.89C434.218 10.242 434.775 10.7847 435.171 11.518C435.582 12.2513 435.787 13.1753 435.787 14.29V21H434.225V14.444C434.225 13.2267 433.917 12.31 433.301 11.694C432.7 11.0633 431.849 10.748 430.749 10.748C429.928 10.748 429.209 10.9167 428.593 11.254C427.992 11.5767 427.522 12.0533 427.185 12.684C426.862 13.3 426.701 14.048 426.701 14.928V21H425.139V9.45H426.635V12.618L426.393 12.024C426.76 11.188 427.346 10.5353 428.153 10.066C428.96 9.582 429.92 9.34 431.035 9.34ZM92.776 48.11C91.676 48.11 90.686 47.8607 89.806 47.362C88.9407 46.8633 88.2587 46.174 87.76 45.294C87.2613 44.3993 87.012 43.3727 87.012 42.214C87.012 41.0407 87.2613 40.014 87.76 39.134C88.2587 38.254 88.9407 37.572 89.806 37.088C90.686 36.5893 91.676 36.34 92.776 36.34C93.788 36.34 94.69 36.5673 95.482 37.022C96.2887 37.4767 96.9267 38.144 97.396 39.024C97.88 39.8893 98.122 40.9527 98.122 42.214C98.122 43.4607 97.8873 44.524 97.418 45.404C96.9487 46.284 96.3107 46.9587 95.504 47.428C94.712 47.8827 93.8027 48.11 92.776 48.11ZM92.886 46.724C93.7073 46.724 94.4407 46.5407 95.086 46.174C95.746 45.7927 96.2593 45.2647 96.626 44.59C97.0073 43.9007 97.198 43.1087 97.198 42.214C97.198 41.3047 97.0073 40.5127 96.626 39.838C96.2593 39.1633 95.746 38.6427 95.086 38.276C94.4407 37.8947 93.7073 37.704 92.886 37.704C92.0793 37.704 91.3533 37.8947 90.708 38.276C90.0627 38.6427 89.5493 39.1633 89.168 39.838C88.7867 40.5127 88.596 41.3047 88.596 42.214C88.596 43.1087 88.7867 43.9007 89.168 44.59C89.5493 45.2647 90.0627 45.7927 90.708 46.174C91.3533 46.5407 92.0793 46.724 92.886 46.724ZM97.242 48V44.524L97.396 42.192L97.176 39.86V31.676H98.738V48H97.242ZM107.796 48.11C106.681 48.11 105.677 47.8607 104.782 47.362C103.902 46.8487 103.205 46.152 102.692 45.272C102.179 44.3773 101.922 43.358 101.922 42.214C101.922 41.0553 102.179 40.036 102.692 39.156C103.205 38.276 103.902 37.5867 104.782 37.088C105.662 36.5893 106.667 36.34 107.796 36.34C108.94 36.34 109.952 36.5893 110.832 37.088C111.727 37.5867 112.423 38.276 112.922 39.156C113.435 40.036 113.692 41.0553 113.692 42.214C113.692 43.358 113.435 44.3773 112.922 45.272C112.423 46.152 111.727 46.8487 110.832 47.362C109.937 47.8607 108.925 48.11 107.796 48.11ZM107.796 46.724C108.632 46.724 109.373 46.5407 110.018 46.174C110.663 45.7927 111.169 45.2647 111.536 44.59C111.917 43.9007 112.108 43.1087 112.108 42.214C112.108 41.3047 111.917 40.5127 111.536 39.838C111.169 39.1633 110.663 38.6427 110.018 38.276C109.373 37.8947 108.639 37.704 107.818 37.704C106.997 37.704 106.263 37.8947 105.618 38.276C104.973 38.6427 104.459 39.1633 104.078 39.838C103.697 40.5127 103.506 41.3047 103.506 42.214C103.506 43.1087 103.697 43.9007 104.078 44.59C104.459 45.2647 104.973 45.7927 105.618 46.174C106.263 46.5407 106.989 46.724 107.796 46.724ZM122.727 52.378C122.184 52.378 121.664 52.29 121.165 52.114C120.681 51.938 120.263 51.674 119.911 51.322L120.637 50.156C120.93 50.4347 121.246 50.6473 121.583 50.794C121.935 50.9553 122.324 51.036 122.749 51.036C123.262 51.036 123.702 50.8893 124.069 50.596C124.45 50.3173 124.81 49.8187 125.147 49.1L125.895 47.406L126.071 47.164L130.823 36.45H132.363L126.577 49.386C126.254 50.134 125.895 50.728 125.499 51.168C125.118 51.608 124.7 51.916 124.245 52.092C123.79 52.2827 123.284 52.378 122.727 52.378ZM125.807 48.33L120.483 36.45H122.111L126.819 47.054L125.807 48.33ZM138.949 48.11C137.834 48.11 136.829 47.8607 135.935 47.362C135.055 46.8487 134.358 46.152 133.845 45.272C133.331 44.3773 133.075 43.358 133.075 42.214C133.075 41.0553 133.331 40.036 133.845 39.156C134.358 38.276 135.055 37.5867 135.935 37.088C136.815 36.5893 137.819 36.34 138.949 36.34C140.093 36.34 141.105 36.5893 141.985 37.088C142.879 37.5867 143.576 38.276 144.075 39.156C144.588 40.036 144.845 41.0553 144.845 42.214C144.845 43.358 144.588 44.3773 144.075 45.272C143.576 46.152 142.879 46.8487 141.985 47.362C141.09 47.8607 140.078 48.11 138.949 48.11ZM138.949 46.724C139.785 46.724 140.525 46.5407 141.171 46.174C141.816 45.7927 142.322 45.2647 142.689 44.59C143.07 43.9007 143.261 43.1087 143.261 42.214C143.261 41.3047 143.07 40.5127 142.689 39.838C142.322 39.1633 141.816 38.6427 141.171 38.276C140.525 37.8947 139.792 37.704 138.971 37.704C138.149 37.704 137.416 37.8947 136.771 38.276C136.125 38.6427 135.612 39.1633 135.231 39.838C134.849 40.5127 134.659 41.3047 134.659 42.214C134.659 43.1087 134.849 43.9007 135.231 44.59C135.612 45.2647 136.125 45.7927 136.771 46.174C137.416 46.5407 138.142 46.724 138.949 46.724ZM152.807 48.11C151.825 48.11 150.967 47.9267 150.233 47.56C149.5 47.1933 148.928 46.6433 148.517 45.91C148.121 45.1767 147.923 44.26 147.923 43.16V36.45H149.485V42.984C149.485 44.216 149.786 45.1473 150.387 45.778C151.003 46.394 151.861 46.702 152.961 46.702C153.768 46.702 154.465 46.5407 155.051 46.218C155.653 45.8807 156.107 45.3967 156.415 44.766C156.738 44.1353 156.899 43.38 156.899 42.5V36.45H158.461V48H156.965V44.832L157.207 45.404C156.841 46.2547 156.269 46.922 155.491 47.406C154.729 47.8753 153.834 48.11 152.807 48.11ZM173.479 48.11C172.276 48.11 171.22 47.8607 170.311 47.362C169.401 46.8487 168.69 46.152 168.177 45.272C167.663 44.3773 167.407 43.358 167.407 42.214C167.407 41.07 167.649 40.058 168.133 39.178C168.631 38.298 169.306 37.6087 170.157 37.11C171.022 36.5967 171.99 36.34 173.061 36.34C174.146 36.34 175.107 36.5893 175.943 37.088C176.793 37.572 177.461 38.2613 177.945 39.156C178.429 40.036 178.671 41.0553 178.671 42.214C178.671 42.2873 178.663 42.368 178.649 42.456C178.649 42.5293 178.649 42.61 178.649 42.698H168.595V41.532H177.813L177.197 41.994C177.197 41.158 177.013 40.4173 176.647 39.772C176.295 39.112 175.811 38.5987 175.195 38.232C174.579 37.8653 173.867 37.682 173.061 37.682C172.269 37.682 171.557 37.8653 170.927 38.232C170.296 38.5987 169.805 39.112 169.453 39.772C169.101 40.432 168.925 41.1873 168.925 42.038V42.28C168.925 43.16 169.115 43.9373 169.497 44.612C169.893 45.272 170.435 45.7927 171.125 46.174C171.829 46.5407 172.628 46.724 173.523 46.724C174.227 46.724 174.879 46.5993 175.481 46.35C176.097 46.1007 176.625 45.7193 177.065 45.206L177.945 46.218C177.431 46.834 176.786 47.3033 176.009 47.626C175.246 47.9487 174.403 48.11 173.479 48.11ZM184.605 48L179.479 36.45H181.107L185.815 47.164H185.045L189.819 36.45H191.359L186.211 48H184.605ZM198.143 48.11C196.94 48.11 195.884 47.8607 194.975 47.362C194.065 46.8487 193.354 46.152 192.841 45.272C192.327 44.3773 192.071 43.358 192.071 42.214C192.071 41.07 192.313 40.058 192.797 39.178C193.295 38.298 193.97 37.6087 194.821 37.11C195.686 36.5967 196.654 36.34 197.725 36.34C198.81 36.34 199.771 36.5893 200.607 37.088C201.457 37.572 202.125 38.2613 202.609 39.156C203.093 40.036 203.335 41.0553 203.335 42.214C203.335 42.2873 203.327 42.368 203.313 42.456C203.313 42.5293 203.313 42.61 203.313 42.698H193.259V41.532H202.477L201.861 41.994C201.861 41.158 201.677 40.4173 201.311 39.772C200.959 39.112 200.475 38.5987 199.859 38.232C199.243 37.8653 198.531 37.682 197.725 37.682C196.933 37.682 196.221 37.8653 195.591 38.232C194.96 38.5987 194.469 39.112 194.117 39.772C193.765 40.432 193.589 41.1873 193.589 42.038V42.28C193.589 43.16 193.779 43.9373 194.161 44.612C194.557 45.272 195.099 45.7927 195.789 46.174C196.493 46.5407 197.292 46.724 198.187 46.724C198.891 46.724 199.543 46.5993 200.145 46.35C200.761 46.1007 201.289 45.7193 201.729 45.206L202.609 46.218C202.095 46.834 201.45 47.3033 200.673 47.626C199.91 47.9487 199.067 48.11 198.143 48.11ZM206.514 48V36.45H208.01V39.596L207.856 39.046C208.179 38.166 208.721 37.4987 209.484 37.044C210.247 36.5747 211.193 36.34 212.322 36.34V37.858C212.263 37.858 212.205 37.858 212.146 37.858C212.087 37.8433 212.029 37.836 211.97 37.836C210.753 37.836 209.799 38.21 209.11 38.958C208.421 39.6913 208.076 40.74 208.076 42.104V48H206.514ZM228.34 48V45.448L228.274 45.03V40.762C228.274 39.7793 227.995 39.024 227.438 38.496C226.895 37.968 226.081 37.704 224.996 37.704C224.248 37.704 223.536 37.8287 222.862 38.078C222.187 38.3273 221.615 38.6573 221.146 39.068L220.442 37.902C221.028 37.4033 221.732 37.022 222.554 36.758C223.375 36.4793 224.24 36.34 225.15 36.34C226.646 36.34 227.797 36.714 228.604 37.462C229.425 38.1953 229.836 39.3173 229.836 40.828V48H228.34ZM224.358 48.11C223.492 48.11 222.737 47.9707 222.092 47.692C221.461 47.3987 220.977 47.0027 220.64 46.504C220.302 45.9907 220.134 45.404 220.134 44.744C220.134 44.1427 220.273 43.6 220.552 43.116C220.845 42.6173 221.314 42.2213 221.96 41.928C222.62 41.62 223.5 41.466 224.6 41.466H228.582V42.632H224.644C223.529 42.632 222.752 42.83 222.312 43.226C221.886 43.622 221.674 44.1133 221.674 44.7C221.674 45.36 221.93 45.888 222.444 46.284C222.957 46.68 223.676 46.878 224.6 46.878C225.48 46.878 226.235 46.68 226.866 46.284C227.511 45.8733 227.98 45.2867 228.274 44.524L228.626 45.602C228.332 46.3647 227.819 46.9733 227.086 47.428C226.367 47.8827 225.458 48.11 224.358 48.11ZM238.676 48.11C237.576 48.11 236.586 47.8607 235.706 47.362C234.841 46.8633 234.159 46.174 233.66 45.294C233.162 44.3993 232.912 43.3727 232.912 42.214C232.912 41.0407 233.162 40.014 233.66 39.134C234.159 38.254 234.841 37.572 235.706 37.088C236.586 36.5893 237.576 36.34 238.676 36.34C239.688 36.34 240.59 36.5673 241.382 37.022C242.189 37.4767 242.827 38.144 243.296 39.024C243.78 39.8893 244.022 40.9527 244.022 42.214C244.022 43.4607 243.788 44.524 243.318 45.404C242.849 46.284 242.211 46.9587 241.404 47.428C240.612 47.8827 239.703 48.11 238.676 48.11ZM238.786 46.724C239.608 46.724 240.341 46.5407 240.986 46.174C241.646 45.7927 242.16 45.2647 242.526 44.59C242.908 43.9007 243.098 43.1087 243.098 42.214C243.098 41.3047 242.908 40.5127 242.526 39.838C242.16 39.1633 241.646 38.6427 240.986 38.276C240.341 37.8947 239.608 37.704 238.786 37.704C237.98 37.704 237.254 37.8947 236.608 38.276C235.963 38.6427 235.45 39.1633 235.068 39.838C234.687 40.5127 234.496 41.3047 234.496 42.214C234.496 43.1087 234.687 43.9007 235.068 44.59C235.45 45.2647 235.963 45.7927 236.608 46.174C237.254 46.5407 237.98 46.724 238.786 46.724ZM243.142 48V44.524L243.296 42.192L243.076 39.86V31.676H244.638V48H243.142ZM253.587 48.11C252.487 48.11 251.497 47.8607 250.617 47.362C249.751 46.8633 249.069 46.174 248.571 45.294C248.072 44.3993 247.823 43.3727 247.823 42.214C247.823 41.0407 248.072 40.014 248.571 39.134C249.069 38.254 249.751 37.572 250.617 37.088C251.497 36.5893 252.487 36.34 253.587 36.34C254.599 36.34 255.501 36.5673 256.293 37.022C257.099 37.4767 257.737 38.144 258.207 39.024C258.691 39.8893 258.933 40.9527 258.933 42.214C258.933 43.4607 258.698 44.524 258.229 45.404C257.759 46.284 257.121 46.9587 256.315 47.428C255.523 47.8827 254.613 48.11 253.587 48.11ZM253.697 46.724C254.518 46.724 255.251 46.5407 255.897 46.174C256.557 45.7927 257.07 45.2647 257.437 44.59C257.818 43.9007 258.009 43.1087 258.009 42.214C258.009 41.3047 257.818 40.5127 257.437 39.838C257.07 39.1633 256.557 38.6427 255.897 38.276C255.251 37.8947 254.518 37.704 253.697 37.704C252.89 37.704 252.164 37.8947 251.519 38.276C250.873 38.6427 250.36 39.1633 249.979 39.838C249.597 40.5127 249.407 41.3047 249.407 42.214C249.407 43.1087 249.597 43.9007 249.979 44.59C250.36 45.2647 250.873 45.7927 251.519 46.174C252.164 46.5407 252.89 46.724 253.697 46.724ZM258.053 48V44.524L258.207 42.192L257.987 39.86V31.676H259.549V48H258.053ZM269.657 48V36.45H271.219V48H269.657ZM270.449 33.898C270.126 33.898 269.855 33.788 269.635 33.568C269.415 33.348 269.305 33.084 269.305 32.776C269.305 32.468 269.415 32.2113 269.635 32.006C269.855 31.786 270.126 31.676 270.449 31.676C270.771 31.676 271.043 31.7787 271.263 31.984C271.483 32.1893 271.593 32.446 271.593 32.754C271.593 33.0767 271.483 33.348 271.263 33.568C271.057 33.788 270.786 33.898 270.449 33.898ZM279.217 48.11C278.131 48.11 277.295 47.8167 276.709 47.23C276.122 46.6433 275.829 45.8147 275.829 44.744V33.898H277.391V44.656C277.391 45.3307 277.559 45.8513 277.897 46.218C278.249 46.5847 278.747 46.768 279.393 46.768C280.082 46.768 280.654 46.57 281.109 46.174L281.659 47.296C281.351 47.5747 280.977 47.78 280.537 47.912C280.111 48.044 279.671 48.11 279.217 48.11ZM273.761 37.748V36.45H280.911V37.748H273.761ZM296.222 48.11C295.21 48.11 294.301 47.8827 293.494 47.428C292.687 46.9587 292.049 46.284 291.58 45.404C291.111 44.524 290.876 43.4607 290.876 42.214C290.876 40.9527 291.111 39.8893 291.58 39.024C292.064 38.144 292.709 37.4767 293.516 37.022C294.323 36.5673 295.225 36.34 296.222 36.34C297.322 36.34 298.305 36.5893 299.17 37.088C300.05 37.572 300.739 38.254 301.238 39.134C301.737 40.014 301.986 41.0407 301.986 42.214C301.986 43.3727 301.737 44.3993 301.238 45.294C300.739 46.174 300.05 46.8633 299.17 47.362C298.305 47.8607 297.322 48.11 296.222 48.11ZM290.26 48V31.676H291.822V39.86L291.602 42.192L291.756 44.524V48H290.26ZM296.112 46.724C296.933 46.724 297.667 46.5407 298.312 46.174C298.957 45.7927 299.471 45.2647 299.852 44.59C300.233 43.9007 300.424 43.1087 300.424 42.214C300.424 41.3047 300.233 40.5127 299.852 39.838C299.471 39.1633 298.957 38.6427 298.312 38.276C297.667 37.8947 296.933 37.704 296.112 37.704C295.291 37.704 294.55 37.8947 293.89 38.276C293.245 38.6427 292.731 39.1633 292.35 39.838C291.983 40.5127 291.8 41.3047 291.8 42.214C291.8 43.1087 291.983 43.9007 292.35 44.59C292.731 45.2647 293.245 45.7927 293.89 46.174C294.55 46.5407 295.291 46.724 296.112 46.724ZM312.344 48V45.448L312.278 45.03V40.762C312.278 39.7793 311.999 39.024 311.442 38.496C310.899 37.968 310.085 37.704 309 37.704C308.252 37.704 307.54 37.8287 306.866 38.078C306.191 38.3273 305.619 38.6573 305.15 39.068L304.446 37.902C305.032 37.4033 305.736 37.022 306.558 36.758C307.379 36.4793 308.244 36.34 309.154 36.34C310.65 36.34 311.801 36.714 312.608 37.462C313.429 38.1953 313.84 39.3173 313.84 40.828V48H312.344ZM308.362 48.11C307.496 48.11 306.741 47.9707 306.096 47.692C305.465 47.3987 304.981 47.0027 304.644 46.504C304.306 45.9907 304.138 45.404 304.138 44.744C304.138 44.1427 304.277 43.6 304.556 43.116C304.849 42.6173 305.318 42.2213 305.964 41.928C306.624 41.62 307.504 41.466 308.604 41.466H312.586V42.632H308.648C307.533 42.632 306.756 42.83 306.316 43.226C305.89 43.622 305.678 44.1133 305.678 44.7C305.678 45.36 305.934 45.888 306.448 46.284C306.961 46.68 307.68 46.878 308.604 46.878C309.484 46.878 310.239 46.68 310.87 46.284C311.515 45.8733 311.984 45.2867 312.278 44.524L312.63 45.602C312.336 46.3647 311.823 46.9733 311.09 47.428C310.371 47.8827 309.462 48.11 308.362 48.11ZM322.878 48.11C321.734 48.11 320.708 47.8607 319.798 47.362C318.904 46.8487 318.2 46.152 317.686 45.272C317.173 44.3773 316.916 43.358 316.916 42.214C316.916 41.0553 317.173 40.036 317.686 39.156C318.2 38.276 318.904 37.5867 319.798 37.088C320.708 36.5893 321.734 36.34 322.878 36.34C323.861 36.34 324.748 36.5307 325.54 36.912C326.332 37.2933 326.956 37.8653 327.41 38.628L326.244 39.42C325.848 38.8333 325.357 38.4007 324.77 38.122C324.184 37.8433 323.546 37.704 322.856 37.704C322.035 37.704 321.294 37.8947 320.634 38.276C319.974 38.6427 319.454 39.1633 319.072 39.838C318.691 40.5127 318.5 41.3047 318.5 42.214C318.5 43.1233 318.691 43.9153 319.072 44.59C319.454 45.2647 319.974 45.7927 320.634 46.174C321.294 46.5407 322.035 46.724 322.856 46.724C323.546 46.724 324.184 46.5847 324.77 46.306C325.357 46.0273 325.848 45.602 326.244 45.03L327.41 45.822C326.956 46.57 326.332 47.142 325.54 47.538C324.748 47.9193 323.861 48.11 322.878 48.11ZM331.539 45.008L331.583 43.006L338.777 36.45H340.691L335.609 41.312L334.729 42.06L331.539 45.008ZM330.307 48V31.676H331.869V48H330.307ZM339.261 48L334.443 41.994L335.455 40.784L341.175 48H339.261ZM346.619 43.38C346.619 42.764 346.715 42.236 346.905 41.796C347.111 41.356 347.36 40.9673 347.653 40.63C347.961 40.2927 348.284 39.9773 348.621 39.684C348.973 39.3907 349.303 39.0973 349.611 38.804C349.919 38.496 350.169 38.166 350.359 37.814C350.55 37.4473 350.645 37.022 350.645 36.538C350.645 35.746 350.337 35.1007 349.721 34.602C349.105 34.1033 348.233 33.854 347.103 33.854C346.165 33.854 345.351 34.008 344.661 34.316C343.972 34.6093 343.385 35.0493 342.901 35.636L341.735 34.756C342.322 34.0227 343.077 33.458 344.001 33.062C344.925 32.666 345.996 32.468 347.213 32.468C348.24 32.468 349.127 32.622 349.875 32.93C350.638 33.238 351.225 33.678 351.635 34.25C352.061 34.822 352.273 35.504 352.273 36.296C352.273 36.9267 352.171 37.4693 351.965 37.924C351.775 38.364 351.525 38.76 351.217 39.112C350.924 39.4493 350.601 39.772 350.249 40.08C349.912 40.3733 349.589 40.674 349.281 40.982C348.973 41.29 348.724 41.6347 348.533 42.016C348.343 42.3973 348.247 42.852 348.247 43.38H346.619ZM347.433 48.11C347.125 48.11 346.854 48 346.619 47.78C346.399 47.5453 346.289 47.274 346.289 46.966C346.289 46.6433 346.399 46.3793 346.619 46.174C346.854 45.954 347.125 45.844 347.433 45.844C347.771 45.844 348.049 45.954 348.269 46.174C348.489 46.3793 348.599 46.6433 348.599 46.966C348.599 47.274 348.489 47.5453 348.269 47.78C348.049 48 347.771 48.11 347.433 48.11Z" fill="black"/>
<path d="M284.348 135C306.56 134.995 328.512 139.765 348.72 148.984C368.927 158.204 386.917 171.659 401.47 188.438C416.024 205.217 426.801 224.927 433.073 246.235C439.344 267.542 440.963 289.948 437.82 311.936C434.677 333.924 426.844 354.979 414.854 373.676C402.863 392.372 386.994 408.273 368.322 420.302C349.65 432.331 328.611 440.206 306.63 443.395C284.649 446.583 262.239 445.01 240.919 438.782L284.38 290L284.348 135Z" fill="#1F78B4"/>
<path d="M240.77 438.739C205.003 428.252 174.212 405.227 154.04 373.883C133.868 342.54 125.667 304.977 130.938 268.078C136.21 231.179 154.602 197.416 182.743 172.975C210.885 148.534 246.891 135.052 284.165 135L284.38 290L240.77 438.739Z" fill="#FF7F00"/>
<path d="M188.477 498.305L191.516 492.578H192.945L189.141 499.57V504H187.812V499.633L184 492.578H185.453L188.477 498.305ZM197.265 495.281C197.994 495.281 198.619 495.443 199.14 495.766C199.661 496.089 200.059 496.542 200.335 497.125C200.612 497.703 200.75 498.38 200.75 499.156V499.961H194.835C194.851 500.966 195.101 501.732 195.585 502.258C196.07 502.784 196.752 503.047 197.632 503.047C198.174 503.047 198.653 502.997 199.07 502.898C199.487 502.799 199.919 502.654 200.367 502.461V503.602C199.934 503.794 199.505 503.935 199.078 504.023C198.656 504.112 198.156 504.156 197.578 504.156C196.755 504.156 196.036 503.99 195.421 503.656C194.812 503.318 194.338 502.823 194 502.172C193.661 501.521 193.492 500.724 193.492 499.781C193.492 498.859 193.645 498.062 193.953 497.391C194.265 496.714 194.703 496.193 195.265 495.828C195.833 495.464 196.5 495.281 197.265 495.281ZM197.25 496.344C196.557 496.344 196.005 496.57 195.593 497.023C195.182 497.477 194.937 498.109 194.859 498.922H199.39C199.385 498.411 199.304 497.964 199.148 497.578C198.997 497.188 198.765 496.885 198.453 496.672C198.14 496.453 197.739 496.344 197.25 496.344ZM208.14 501.656C208.14 502.203 208.002 502.664 207.726 503.039C207.455 503.409 207.064 503.688 206.554 503.875C206.049 504.062 205.444 504.156 204.741 504.156C204.142 504.156 203.624 504.109 203.187 504.016C202.749 503.922 202.366 503.789 202.038 503.617V502.422C202.387 502.594 202.804 502.75 203.288 502.891C203.773 503.031 204.267 503.102 204.773 503.102C205.512 503.102 206.049 502.982 206.382 502.742C206.715 502.503 206.882 502.177 206.882 501.766C206.882 501.531 206.814 501.326 206.679 501.148C206.549 500.966 206.327 500.792 206.015 500.625C205.702 500.453 205.27 500.266 204.718 500.062C204.171 499.854 203.697 499.648 203.296 499.445C202.9 499.237 202.593 498.984 202.374 498.688C202.161 498.391 202.054 498.005 202.054 497.531C202.054 496.807 202.345 496.253 202.929 495.867C203.517 495.477 204.288 495.281 205.241 495.281C205.757 495.281 206.239 495.333 206.687 495.438C207.14 495.536 207.562 495.672 207.952 495.844L207.515 496.883C207.161 496.732 206.783 496.604 206.382 496.5C205.981 496.396 205.572 496.344 205.155 496.344C204.556 496.344 204.095 496.443 203.773 496.641C203.455 496.839 203.296 497.109 203.296 497.453C203.296 497.719 203.369 497.938 203.515 498.109C203.666 498.281 203.905 498.443 204.233 498.594C204.562 498.745 204.994 498.922 205.53 499.125C206.067 499.323 206.53 499.529 206.921 499.742C207.312 499.951 207.611 500.206 207.819 500.508C208.033 500.805 208.14 501.188 208.14 501.656Z" fill="#1E1E1E"/>
<path d="M194.492 546H192.961L186.734 536.406H186.672C186.688 536.661 186.706 536.953 186.727 537.281C186.747 537.604 186.763 537.951 186.773 538.32C186.789 538.685 186.797 539.057 186.797 539.438V546H185.562V534.578H187.086L193.289 544.141H193.344C193.333 543.958 193.32 543.701 193.305 543.367C193.289 543.029 193.273 542.667 193.258 542.281C193.247 541.891 193.242 541.529 193.242 541.195V534.578H194.492V546ZM204.445 541.703C204.445 542.406 204.354 543.034 204.171 543.586C203.989 544.138 203.726 544.604 203.382 544.984C203.039 545.365 202.622 545.656 202.132 545.859C201.648 546.057 201.099 546.156 200.484 546.156C199.911 546.156 199.385 546.057 198.906 545.859C198.432 545.656 198.02 545.365 197.671 544.984C197.328 544.604 197.059 544.138 196.867 543.586C196.679 543.034 196.585 542.406 196.585 541.703C196.585 540.766 196.744 539.969 197.062 539.312C197.38 538.651 197.833 538.148 198.421 537.805C199.015 537.456 199.721 537.281 200.539 537.281C201.32 537.281 202.002 537.456 202.585 537.805C203.174 538.154 203.63 538.659 203.953 539.32C204.281 539.977 204.445 540.771 204.445 541.703ZM197.929 541.703C197.929 542.391 198.02 542.987 198.203 543.492C198.385 543.997 198.666 544.388 199.046 544.664C199.427 544.94 199.916 545.078 200.515 545.078C201.109 545.078 201.596 544.94 201.976 544.664C202.362 544.388 202.645 543.997 202.828 543.492C203.01 542.987 203.101 542.391 203.101 541.703C203.101 541.021 203.01 540.432 202.828 539.938C202.645 539.438 202.364 539.052 201.984 538.781C201.604 538.51 201.112 538.375 200.507 538.375C199.617 538.375 198.963 538.669 198.546 539.258C198.135 539.846 197.929 540.661 197.929 541.703Z" fill="#1E1E1E"/>
<rect x="149" y="486" width="24" height="24" fill="#1F78B4"/>
<rect x="149" y="528" width="24" height="24" fill="#FF7F00"/>
<path d="M201.176 252H198.41V240.973C198.41 240.605 198.414 240.238 198.422 239.871C198.43 239.504 198.438 239.145 198.445 238.793C198.461 238.441 198.48 238.105 198.504 237.785C198.34 237.965 198.137 238.16 197.895 238.371C197.66 238.582 197.41 238.801 197.145 239.027L195.176 240.598L193.793 238.852L198.879 234.867H201.176V252ZM217.886 243.422C217.886 244.805 217.777 246.043 217.558 247.137C217.347 248.223 217.011 249.145 216.55 249.902C216.089 250.66 215.488 251.238 214.745 251.637C214.003 252.035 213.105 252.234 212.05 252.234C210.73 252.234 209.64 251.887 208.781 251.191C207.921 250.488 207.285 249.48 206.87 248.168C206.456 246.848 206.249 245.266 206.249 243.422C206.249 241.578 206.437 240 206.812 238.688C207.195 237.367 207.812 236.355 208.663 235.652C209.515 234.949 210.644 234.598 212.05 234.598C213.378 234.598 214.472 234.949 215.331 235.652C216.199 236.348 216.839 237.355 217.253 238.676C217.675 239.988 217.886 241.57 217.886 243.422ZM209.027 243.422C209.027 244.867 209.12 246.074 209.308 247.043C209.503 248.012 209.824 248.738 210.269 249.223C210.714 249.699 211.308 249.938 212.05 249.938C212.792 249.938 213.386 249.699 213.831 249.223C214.277 248.746 214.597 248.023 214.792 247.055C214.995 246.086 215.097 244.875 215.097 243.422C215.097 241.984 214.999 240.781 214.804 239.812C214.609 238.844 214.288 238.117 213.843 237.633C213.398 237.141 212.8 236.895 212.05 236.895C211.3 236.895 210.702 237.141 210.257 237.633C209.82 238.117 209.503 238.844 209.308 239.812C209.12 240.781 209.027 241.984 209.027 243.422Z" fill="white"/>
<path d="M349.176 346H346.41V334.973C346.41 334.605 346.414 334.238 346.422 333.871C346.43 333.504 346.438 333.145 346.445 332.793C346.461 332.441 346.48 332.105 346.504 331.785C346.34 331.965 346.137 332.16 345.895 332.371C345.66 332.582 345.41 332.801 345.145 333.027L343.176 334.598L341.793 332.852L346.879 328.867H349.176V346ZM365.886 346H354.285V343.926L358.726 339.426C359.585 338.551 360.292 337.797 360.847 337.164C361.402 336.523 361.812 335.918 362.077 335.348C362.351 334.777 362.488 334.156 362.488 333.484C362.488 332.656 362.249 332.031 361.773 331.609C361.296 331.18 360.667 330.965 359.886 330.965C359.144 330.965 358.456 331.113 357.824 331.41C357.199 331.699 356.55 332.113 355.878 332.652L354.367 330.836C354.843 330.43 355.351 330.059 355.89 329.723C356.437 329.387 357.046 329.121 357.718 328.926C358.39 328.723 359.156 328.621 360.015 328.621C361.101 328.621 362.038 328.816 362.827 329.207C363.617 329.59 364.222 330.125 364.644 330.812C365.074 331.5 365.288 332.301 365.288 333.215C365.288 334.137 365.105 334.988 364.738 335.77C364.37 336.551 363.847 337.324 363.167 338.09C362.488 338.848 361.679 339.672 360.742 340.562L357.777 343.457V343.586H365.886V346Z" fill="white"/>
</svg>
