<svg width="511" height="497" viewBox="0 0 511 497" fill="none" xmlns="http://www.w3.org/2000/svg">
<path d="M50.6023 22V20.878L57.2463 14.608C57.8477 14.036 58.3023 13.53 58.6103 13.09C58.933 12.65 59.153 12.2467 59.2703 11.88C59.3877 11.4987 59.4463 11.1247 59.4463 10.758C59.4463 10.2007 59.2997 9.70933 59.0063 9.284C58.7277 8.85867 58.295 8.52867 57.7083 8.294C57.1363 8.04467 56.4103 7.92 55.5303 7.92C54.621 7.92 53.7997 8.05933 53.0663 8.338C52.333 8.602 51.695 9.03467 51.1523 9.636L50.0523 8.646C50.683 7.92733 51.475 7.38467 52.4283 7.018C53.3963 6.65133 54.467 6.468 55.6403 6.468C56.8137 6.468 57.8037 6.644 58.6103 6.996C59.417 7.348 60.0257 7.83933 60.4363 8.47C60.8617 9.086 61.0743 9.79733 61.0743 10.604C61.0743 11.1027 61.001 11.594 60.8543 12.078C60.7077 12.5473 60.4363 13.0533 60.0403 13.596C59.659 14.1387 59.109 14.7547 58.3903 15.444L52.3183 21.208L52.0323 20.592H61.7563V22H50.6023ZM66.3366 22.11C66.014 22.11 65.7353 21.9927 65.5006 21.758C65.2806 21.5233 65.1706 21.2373 65.1706 20.9C65.1706 20.548 65.2806 20.262 65.5006 20.042C65.7353 19.822 66.014 19.712 66.3366 19.712C66.6593 19.712 66.9306 19.822 67.1506 20.042C67.3853 20.262 67.5026 20.548 67.5026 20.9C67.5026 21.2373 67.3853 21.5233 67.1506 21.758C66.9306 21.9927 66.6593 22.11 66.3366 22.11ZM78.508 22V6.6H84.778C86.4207 6.6 87.858 6.93 89.09 7.59C90.3367 8.23533 91.3047 9.13733 91.994 10.296C92.6833 11.4547 93.028 12.7893 93.028 14.3C93.028 15.8107 92.6833 17.1453 91.994 18.304C91.3047 19.4627 90.3367 20.372 89.09 21.032C87.858 21.6773 86.4207 22 84.778 22H78.508ZM80.136 20.592H84.69C86.054 20.592 87.2347 20.328 88.232 19.8C89.244 19.2573 90.0287 18.5167 90.586 17.578C91.1433 16.6247 91.422 15.532 91.422 14.3C91.422 13.0533 91.1433 11.9607 90.586 11.022C90.0287 10.0833 89.244 9.35 88.232 8.822C87.2347 8.27933 86.054 8.008 84.69 8.008H80.136V20.592ZM101.062 22.11C99.9471 22.11 98.9424 21.8607 98.0478 21.362C97.1678 20.8487 96.4711 20.152 95.9578 19.272C95.4444 18.3773 95.1878 17.358 95.1878 16.214C95.1878 15.0553 95.4444 14.036 95.9578 13.156C96.4711 12.276 97.1678 11.5867 98.0478 11.088C98.9278 10.5893 99.9324 10.34 101.062 10.34C102.206 10.34 103.218 10.5893 104.098 11.088C104.992 11.5867 105.689 12.276 106.188 13.156C106.701 14.036 106.958 15.0553 106.958 16.214C106.958 17.358 106.701 18.3773 106.188 19.272C105.689 20.152 104.992 20.8487 104.098 21.362C103.203 21.8607 102.191 22.11 101.062 22.11ZM101.062 20.724C101.898 20.724 102.638 20.5407 103.284 20.174C103.929 19.7927 104.435 19.2647 104.802 18.59C105.183 17.9007 105.374 17.1087 105.374 16.214C105.374 15.3047 105.183 14.5127 104.802 13.838C104.435 13.1633 103.929 12.6427 103.284 12.276C102.638 11.8947 101.905 11.704 101.084 11.704C100.262 11.704 99.5291 11.8947 98.8838 12.276C98.2384 12.6427 97.7251 13.1633 97.3438 13.838C96.9624 14.5127 96.7718 15.3047 96.7718 16.214C96.7718 17.1087 96.9624 17.9007 97.3438 18.59C97.7251 19.2647 98.2384 19.7927 98.8838 20.174C99.5291 20.5407 100.255 20.724 101.062 20.724ZM115.993 26.378C115.45 26.378 114.929 26.29 114.431 26.114C113.947 25.938 113.529 25.674 113.177 25.322L113.903 24.156C114.196 24.4347 114.511 24.6473 114.849 24.794C115.201 24.9553 115.589 25.036 116.015 25.036C116.528 25.036 116.968 24.8893 117.335 24.596C117.716 24.3173 118.075 23.8187 118.413 23.1L119.161 21.406L119.337 21.164L124.089 10.45H125.629L119.843 23.386C119.52 24.134 119.161 24.728 118.765 25.168C118.383 25.608 117.965 25.916 117.511 26.092C117.056 26.2827 116.55 26.378 115.993 26.378ZM119.073 22.33L113.749 10.45H115.377L120.085 21.054L119.073 22.33ZM132.214 22.11C131.099 22.11 130.095 21.8607 129.2 21.362C128.32 20.8487 127.623 20.152 127.11 19.272C126.597 18.3773 126.34 17.358 126.34 16.214C126.34 15.0553 126.597 14.036 127.11 13.156C127.623 12.276 128.32 11.5867 129.2 11.088C130.08 10.5893 131.085 10.34 132.214 10.34C133.358 10.34 134.37 10.5893 135.25 11.088C136.145 11.5867 136.841 12.276 137.34 13.156C137.853 14.036 138.11 15.0553 138.11 16.214C138.11 17.358 137.853 18.3773 137.34 19.272C136.841 20.152 136.145 20.8487 135.25 21.362C134.355 21.8607 133.343 22.11 132.214 22.11ZM132.214 20.724C133.05 20.724 133.791 20.5407 134.436 20.174C135.081 19.7927 135.587 19.2647 135.954 18.59C136.335 17.9007 136.526 17.1087 136.526 16.214C136.526 15.3047 136.335 14.5127 135.954 13.838C135.587 13.1633 135.081 12.6427 134.436 12.276C133.791 11.8947 133.057 11.704 132.236 11.704C131.415 11.704 130.681 11.8947 130.036 12.276C129.391 12.6427 128.877 13.1633 128.496 13.838C128.115 14.5127 127.924 15.3047 127.924 16.214C127.924 17.1087 128.115 17.9007 128.496 18.59C128.877 19.2647 129.391 19.7927 130.036 20.174C130.681 20.5407 131.407 20.724 132.214 20.724ZM146.073 22.11C145.09 22.11 144.232 21.9267 143.499 21.56C142.766 21.1933 142.194 20.6433 141.783 19.91C141.387 19.1767 141.189 18.26 141.189 17.16V10.45H142.751V16.984C142.751 18.216 143.052 19.1473 143.653 19.778C144.269 20.394 145.127 20.702 146.227 20.702C147.034 20.702 147.73 20.5407 148.317 20.218C148.918 19.8807 149.373 19.3967 149.681 18.766C150.004 18.1353 150.165 17.38 150.165 16.5V10.45H151.727V22H150.231V18.832L150.473 19.404C150.106 20.2547 149.534 20.922 148.757 21.406C147.994 21.8753 147.1 22.11 146.073 22.11ZM163.07 19.008L163.114 17.006L170.308 10.45H172.222L167.14 15.312L166.26 16.06L163.07 19.008ZM161.838 22V5.676H163.4V22H161.838ZM170.792 22L165.974 15.994L166.986 14.784L172.706 22H170.792ZM180.775 10.34C181.714 10.34 182.535 10.5233 183.239 10.89C183.958 11.242 184.515 11.7847 184.911 12.518C185.322 13.2513 185.527 14.1753 185.527 15.29V22H183.965V15.444C183.965 14.2267 183.657 13.31 183.041 12.694C182.44 12.0633 181.589 11.748 180.489 11.748C179.668 11.748 178.949 11.9167 178.333 12.254C177.732 12.5767 177.263 13.0533 176.925 13.684C176.603 14.3 176.441 15.048 176.441 15.928V22H174.879V10.45H176.375V13.618L176.133 13.024C176.5 12.188 177.087 11.5353 177.893 11.066C178.7 10.582 179.661 10.34 180.775 10.34ZM194.454 22.11C193.34 22.11 192.335 21.8607 191.44 21.362C190.56 20.8487 189.864 20.152 189.35 19.272C188.837 18.3773 188.58 17.358 188.58 16.214C188.58 15.0553 188.837 14.036 189.35 13.156C189.864 12.276 190.56 11.5867 191.44 11.088C192.32 10.5893 193.325 10.34 194.454 10.34C195.598 10.34 196.61 10.5893 197.49 11.088C198.385 11.5867 199.082 12.276 199.58 13.156C200.094 14.036 200.35 15.0553 200.35 16.214C200.35 17.358 200.094 18.3773 199.58 19.272C199.082 20.152 198.385 20.8487 197.49 21.362C196.596 21.8607 195.584 22.11 194.454 22.11ZM194.454 20.724C195.29 20.724 196.031 20.5407 196.676 20.174C197.322 19.7927 197.828 19.2647 198.194 18.59C198.576 17.9007 198.766 17.1087 198.766 16.214C198.766 15.3047 198.576 14.5127 198.194 13.838C197.828 13.1633 197.322 12.6427 196.676 12.276C196.031 11.8947 195.298 11.704 194.476 11.704C193.655 11.704 192.922 11.8947 192.276 12.276C191.631 12.6427 191.118 13.1633 190.736 13.838C190.355 14.5127 190.164 15.3047 190.164 16.214C190.164 17.1087 190.355 17.9007 190.736 18.59C191.118 19.2647 191.631 19.7927 192.276 20.174C192.922 20.5407 193.648 20.724 194.454 20.724ZM205.571 22L201.215 10.45H202.711L206.671 21.164H205.989L210.059 10.45H211.401L215.427 21.164H214.745L218.771 10.45H220.201L215.823 22H214.349L210.477 11.924H210.939L207.045 22H205.571ZM234.207 10.34C235.145 10.34 235.967 10.5233 236.671 10.89C237.389 11.242 237.947 11.7847 238.343 12.518C238.753 13.2513 238.959 14.1753 238.959 15.29V22H237.397V15.444C237.397 14.2267 237.089 13.31 236.473 12.694C235.871 12.0633 235.021 11.748 233.921 11.748C233.099 11.748 232.381 11.9167 231.765 12.254C231.163 12.5767 230.694 13.0533 230.357 13.684C230.034 14.3 229.873 15.048 229.873 15.928V22H228.311V5.676H229.873V13.618L229.565 13.024C229.931 12.188 230.518 11.5353 231.325 11.066C232.131 10.582 233.092 10.34 234.207 10.34ZM247.886 22.11C246.771 22.11 245.767 21.8607 244.872 21.362C243.992 20.8487 243.295 20.152 242.782 19.272C242.269 18.3773 242.012 17.358 242.012 16.214C242.012 15.0553 242.269 14.036 242.782 13.156C243.295 12.276 243.992 11.5867 244.872 11.088C245.752 10.5893 246.757 10.34 247.886 10.34C249.03 10.34 250.042 10.5893 250.922 11.088C251.817 11.5867 252.513 12.276 253.012 13.156C253.525 14.036 253.782 15.0553 253.782 16.214C253.782 17.358 253.525 18.3773 253.012 19.272C252.513 20.152 251.817 20.8487 250.922 21.362C250.027 21.8607 249.015 22.11 247.886 22.11ZM247.886 20.724C248.722 20.724 249.463 20.5407 250.108 20.174C250.753 19.7927 251.259 19.2647 251.626 18.59C252.007 17.9007 252.198 17.1087 252.198 16.214C252.198 15.3047 252.007 14.5127 251.626 13.838C251.259 13.1633 250.753 12.6427 250.108 12.276C249.463 11.8947 248.729 11.704 247.908 11.704C247.087 11.704 246.353 11.8947 245.708 12.276C245.063 12.6427 244.549 13.1633 244.168 13.838C243.787 14.5127 243.596 15.3047 243.596 16.214C243.596 17.1087 243.787 17.9007 244.168 18.59C244.549 19.2647 245.063 19.7927 245.708 20.174C246.353 20.5407 247.079 20.724 247.886 20.724ZM259.003 22L254.647 10.45H256.143L260.103 21.164H259.421L263.491 10.45H264.833L268.859 21.164H268.177L272.203 10.45H273.633L269.255 22H267.781L263.909 11.924H264.371L260.477 22H259.003ZM296.174 10.34C297.113 10.34 297.927 10.5233 298.616 10.89C299.32 11.242 299.863 11.7847 300.244 12.518C300.64 13.2513 300.838 14.1753 300.838 15.29V22H299.276V15.444C299.276 14.2267 298.983 13.31 298.396 12.694C297.824 12.0633 297.01 11.748 295.954 11.748C295.162 11.748 294.473 11.9167 293.886 12.254C293.314 12.5767 292.867 13.0533 292.544 13.684C292.236 14.3 292.082 15.048 292.082 15.928V22H290.52V15.444C290.52 14.2267 290.227 13.31 289.64 12.694C289.054 12.0633 288.232 11.748 287.176 11.748C286.399 11.748 285.717 11.9167 285.13 12.254C284.544 12.5767 284.089 13.0533 283.766 13.684C283.458 14.3 283.304 15.048 283.304 15.928V22H281.742V10.45H283.238V13.574L282.996 13.024C283.348 12.188 283.913 11.5353 284.69 11.066C285.482 10.582 286.414 10.34 287.484 10.34C288.614 10.34 289.574 10.626 290.366 11.198C291.158 11.7553 291.672 12.5987 291.906 13.728L291.29 13.486C291.628 12.5473 292.222 11.792 293.072 11.22C293.938 10.6333 294.972 10.34 296.174 10.34ZM309.848 22.11C308.866 22.11 308.008 21.9267 307.274 21.56C306.541 21.1933 305.969 20.6433 305.558 19.91C305.162 19.1767 304.964 18.26 304.964 17.16V10.45H306.526V16.984C306.526 18.216 306.827 19.1473 307.428 19.778C308.044 20.394 308.902 20.702 310.002 20.702C310.809 20.702 311.506 20.5407 312.092 20.218C312.694 19.8807 313.148 19.3967 313.456 18.766C313.779 18.1353 313.94 17.38 313.94 16.5V10.45H315.502V22H314.006V18.832L314.248 19.404C313.882 20.2547 313.31 20.922 312.532 21.406C311.77 21.8753 310.875 22.11 309.848 22.11ZM324.652 22.11C323.508 22.11 322.481 21.8607 321.572 21.362C320.677 20.8487 319.973 20.152 319.46 19.272C318.946 18.3773 318.69 17.358 318.69 16.214C318.69 15.0553 318.946 14.036 319.46 13.156C319.973 12.276 320.677 11.5867 321.572 11.088C322.481 10.5893 323.508 10.34 324.652 10.34C325.634 10.34 326.522 10.5307 327.314 10.912C328.106 11.2933 328.729 11.8653 329.184 12.628L328.018 13.42C327.622 12.8333 327.13 12.4007 326.544 12.122C325.957 11.8433 325.319 11.704 324.63 11.704C323.808 11.704 323.068 11.8947 322.408 12.276C321.748 12.6427 321.227 13.1633 320.846 13.838C320.464 14.5127 320.274 15.3047 320.274 16.214C320.274 17.1233 320.464 17.9153 320.846 18.59C321.227 19.2647 321.748 19.7927 322.408 20.174C323.068 20.5407 323.808 20.724 324.63 20.724C325.319 20.724 325.957 20.5847 326.544 20.306C327.13 20.0273 327.622 19.602 328.018 19.03L329.184 19.822C328.729 20.57 328.106 21.142 327.314 21.538C326.522 21.9193 325.634 22.11 324.652 22.11ZM337.976 10.34C338.915 10.34 339.736 10.5233 340.44 10.89C341.159 11.242 341.716 11.7847 342.112 12.518C342.523 13.2513 342.728 14.1753 342.728 15.29V22H341.166V15.444C341.166 14.2267 340.858 13.31 340.242 12.694C339.641 12.0633 338.79 11.748 337.69 11.748C336.869 11.748 336.15 11.9167 335.534 12.254C334.933 12.5767 334.464 13.0533 334.126 13.684C333.804 14.3 333.642 15.048 333.642 15.928V22H332.08V5.676H333.642V13.618L333.334 13.024C333.701 12.188 334.288 11.5353 335.094 11.066C335.901 10.582 336.862 10.34 337.976 10.34ZM357.611 22.11C356.409 22.11 355.353 21.8607 354.443 21.362C353.534 20.8487 352.823 20.152 352.309 19.272C351.796 18.3773 351.539 17.358 351.539 16.214C351.539 15.07 351.781 14.058 352.265 13.178C352.764 12.298 353.439 11.6087 354.289 11.11C355.155 10.5967 356.123 10.34 357.193 10.34C358.279 10.34 359.239 10.5893 360.075 11.088C360.926 11.572 361.593 12.2613 362.077 13.156C362.561 14.036 362.803 15.0553 362.803 16.214C362.803 16.2873 362.796 16.368 362.781 16.456C362.781 16.5293 362.781 16.61 362.781 16.698H352.727V15.532H361.945L361.329 15.994C361.329 15.158 361.146 14.4173 360.779 13.772C360.427 13.112 359.943 12.5987 359.327 12.232C358.711 11.8653 358 11.682 357.193 11.682C356.401 11.682 355.69 11.8653 355.059 12.232C354.429 12.5987 353.937 13.112 353.585 13.772C353.233 14.432 353.057 15.1873 353.057 16.038V16.28C353.057 17.16 353.248 17.9373 353.629 18.612C354.025 19.272 354.568 19.7927 355.257 20.174C355.961 20.5407 356.761 20.724 357.655 20.724C358.359 20.724 359.012 20.5993 359.613 20.35C360.229 20.1007 360.757 19.7193 361.197 19.206L362.077 20.218C361.564 20.834 360.919 21.3033 360.141 21.626C359.379 21.9487 358.535 22.11 357.611 22.11ZM372.898 22V19.448L372.832 19.03V14.762C372.832 13.7793 372.554 13.024 371.996 12.496C371.454 11.968 370.64 11.704 369.554 11.704C368.806 11.704 368.095 11.8287 367.42 12.078C366.746 12.3273 366.174 12.6573 365.704 13.068L365 11.902C365.587 11.4033 366.291 11.022 367.112 10.758C367.934 10.4793 368.799 10.34 369.708 10.34C371.204 10.34 372.356 10.714 373.162 11.462C373.984 12.1953 374.394 13.3173 374.394 14.828V22H372.898ZM368.916 22.11C368.051 22.11 367.296 21.9707 366.65 21.692C366.02 21.3987 365.536 21.0027 365.198 20.504C364.861 19.9907 364.692 19.404 364.692 18.744C364.692 18.1427 364.832 17.6 365.11 17.116C365.404 16.6173 365.873 16.2213 366.518 15.928C367.178 15.62 368.058 15.466 369.158 15.466H373.14V16.632H369.202C368.088 16.632 367.31 16.83 366.87 17.226C366.445 17.622 366.232 18.1133 366.232 18.7C366.232 19.36 366.489 19.888 367.002 20.284C367.516 20.68 368.234 20.878 369.158 20.878C370.038 20.878 370.794 20.68 371.424 20.284C372.07 19.8733 372.539 19.2867 372.832 18.524L373.184 19.602C372.891 20.3647 372.378 20.9733 371.644 21.428C370.926 21.8827 370.016 22.11 368.916 22.11ZM383.433 22.11C382.289 22.11 381.262 21.8607 380.353 21.362C379.458 20.8487 378.754 20.152 378.241 19.272C377.728 18.3773 377.471 17.358 377.471 16.214C377.471 15.0553 377.728 14.036 378.241 13.156C378.754 12.276 379.458 11.5867 380.353 11.088C381.262 10.5893 382.289 10.34 383.433 10.34C384.416 10.34 385.303 10.5307 386.095 10.912C386.887 11.2933 387.51 11.8653 387.965 12.628L386.799 13.42C386.403 12.8333 385.912 12.4007 385.325 12.122C384.738 11.8433 384.1 11.704 383.411 11.704C382.59 11.704 381.849 11.8947 381.189 12.276C380.529 12.6427 380.008 13.1633 379.627 13.838C379.246 14.5127 379.055 15.3047 379.055 16.214C379.055 17.1233 379.246 17.9153 379.627 18.59C380.008 19.2647 380.529 19.7927 381.189 20.174C381.849 20.5407 382.59 20.724 383.411 20.724C384.1 20.724 384.738 20.5847 385.325 20.306C385.912 20.0273 386.403 19.602 386.799 19.03L387.965 19.822C387.51 20.57 386.887 21.142 386.095 21.538C385.303 21.9193 384.416 22.11 383.433 22.11ZM396.758 10.34C397.696 10.34 398.518 10.5233 399.222 10.89C399.94 11.242 400.498 11.7847 400.894 12.518C401.304 13.2513 401.51 14.1753 401.51 15.29V22H399.948V15.444C399.948 14.2267 399.64 13.31 399.024 12.694C398.422 12.0633 397.572 11.748 396.472 11.748C395.65 11.748 394.932 11.9167 394.316 12.254C393.714 12.5767 393.245 13.0533 392.908 13.684C392.585 14.3 392.424 15.048 392.424 15.928V22H390.862V5.676H392.424V13.618L392.116 13.024C392.482 12.188 393.069 11.5353 393.876 11.066C394.682 10.582 395.643 10.34 396.758 10.34ZM416.195 22.11C415.08 22.11 414.075 21.8607 413.181 21.362C412.301 20.8487 411.604 20.152 411.091 19.272C410.577 18.3773 410.321 17.358 410.321 16.214C410.321 15.0553 410.577 14.036 411.091 13.156C411.604 12.276 412.301 11.5867 413.181 11.088C414.061 10.5893 415.065 10.34 416.195 10.34C417.339 10.34 418.351 10.5893 419.231 11.088C420.125 11.5867 420.822 12.276 421.321 13.156C421.834 14.036 422.091 15.0553 422.091 16.214C422.091 17.358 421.834 18.3773 421.321 19.272C420.822 20.152 420.125 20.8487 419.231 21.362C418.336 21.8607 417.324 22.11 416.195 22.11ZM416.195 20.724C417.031 20.724 417.771 20.5407 418.417 20.174C419.062 19.7927 419.568 19.2647 419.935 18.59C420.316 17.9007 420.507 17.1087 420.507 16.214C420.507 15.3047 420.316 14.5127 419.935 13.838C419.568 13.1633 419.062 12.6427 418.417 12.276C417.771 11.8947 417.038 11.704 416.217 11.704C415.395 11.704 414.662 11.8947 414.017 12.276C413.371 12.6427 412.858 13.1633 412.477 13.838C412.095 14.5127 411.905 15.3047 411.905 16.214C411.905 17.1087 412.095 17.9007 412.477 18.59C412.858 19.2647 413.371 19.7927 414.017 20.174C414.662 20.5407 415.388 20.724 416.195 20.724ZM425.544 22V8.998C425.544 7.97133 425.844 7.14267 426.446 6.512C427.047 5.88133 427.912 5.566 429.042 5.566C429.482 5.566 429.907 5.62467 430.318 5.742C430.728 5.85933 431.073 6.04267 431.352 6.292L430.824 7.458C430.604 7.26733 430.347 7.128 430.054 7.04C429.76 6.93733 429.445 6.886 429.108 6.886C428.448 6.886 427.942 7.06933 427.59 7.436C427.238 7.80267 427.062 8.34533 427.062 9.064V10.824L427.106 11.55V22H425.544ZM423.476 11.748V10.45H430.626V11.748H423.476ZM81.83 51.11C80.7447 51.11 79.9087 50.8167 79.322 50.23C78.7353 49.6433 78.442 48.8147 78.442 47.744V36.898H80.004V47.656C80.004 48.3307 80.1727 48.8513 80.51 49.218C80.862 49.5847 81.3607 49.768 82.006 49.768C82.6953 49.768 83.2673 49.57 83.722 49.174L84.272 50.296C83.964 50.5747 83.59 50.78 83.15 50.912C82.7247 51.044 82.2847 51.11 81.83 51.11ZM76.374 40.748V39.45H83.524V40.748H76.374ZM93.0115 39.34C93.9502 39.34 94.7715 39.5233 95.4755 39.89C96.1942 40.242 96.7515 40.7847 97.1475 41.518C97.5582 42.2513 97.7635 43.1753 97.7635 44.29V51H96.2015V44.444C96.2015 43.2267 95.8935 42.31 95.2775 41.694C94.6762 41.0633 93.8255 40.748 92.7255 40.748C91.9042 40.748 91.1855 40.9167 90.5695 41.254C89.9682 41.5767 89.4988 42.0533 89.1615 42.684C88.8388 43.3 88.6775 44.048 88.6775 44.928V51H87.1155V34.676H88.6775V42.618L88.3695 42.024C88.7362 41.188 89.3228 40.5353 90.1295 40.066C90.9362 39.582 91.8968 39.34 93.0115 39.34ZM106.889 51.11C105.686 51.11 104.63 50.8607 103.721 50.362C102.811 49.8487 102.1 49.152 101.587 48.272C101.073 47.3773 100.817 46.358 100.817 45.214C100.817 44.07 101.059 43.058 101.543 42.178C102.041 41.298 102.716 40.6087 103.567 40.11C104.432 39.5967 105.4 39.34 106.471 39.34C107.556 39.34 108.517 39.5893 109.353 40.088C110.203 40.572 110.871 41.2613 111.355 42.156C111.839 43.036 112.081 44.0553 112.081 45.214C112.081 45.2873 112.073 45.368 112.059 45.456C112.059 45.5293 112.059 45.61 112.059 45.698H102.005V44.532H111.223L110.607 44.994C110.607 44.158 110.423 43.4173 110.057 42.772C109.705 42.112 109.221 41.5987 108.605 41.232C107.989 40.8653 107.277 40.682 106.471 40.682C105.679 40.682 104.967 40.8653 104.337 41.232C103.706 41.5987 103.215 42.112 102.863 42.772C102.511 43.432 102.335 44.1873 102.335 45.038V45.28C102.335 46.16 102.525 46.9373 102.907 47.612C103.303 48.272 103.845 48.7927 104.535 49.174C105.239 49.5407 106.038 49.724 106.933 49.724C107.637 49.724 108.289 49.5993 108.891 49.35C109.507 49.1007 110.035 48.7193 110.475 48.206L111.355 49.218C110.841 49.834 110.196 50.3033 109.419 50.626C108.656 50.9487 107.813 51.11 106.889 51.11ZM129.692 39.34C130.631 39.34 131.445 39.5233 132.134 39.89C132.838 40.242 133.381 40.7847 133.762 41.518C134.158 42.2513 134.356 43.1753 134.356 44.29V51H132.794V44.444C132.794 43.2267 132.501 42.31 131.914 41.694C131.342 41.0633 130.528 40.748 129.472 40.748C128.68 40.748 127.991 40.9167 127.404 41.254C126.832 41.5767 126.385 42.0533 126.062 42.684C125.754 43.3 125.6 44.048 125.6 44.928V51H124.038V44.444C124.038 43.2267 123.745 42.31 123.158 41.694C122.571 41.0633 121.75 40.748 120.694 40.748C119.917 40.748 119.235 40.9167 118.648 41.254C118.061 41.5767 117.607 42.0533 117.284 42.684C116.976 43.3 116.822 44.048 116.822 44.928V51H115.26V39.45H116.756V42.574L116.514 42.024C116.866 41.188 117.431 40.5353 118.208 40.066C119 39.582 119.931 39.34 121.002 39.34C122.131 39.34 123.092 39.626 123.884 40.198C124.676 40.7553 125.189 41.5987 125.424 42.728L124.808 42.486C125.145 41.5473 125.739 40.792 126.59 40.22C127.455 39.6333 128.489 39.34 129.692 39.34ZM149.146 51.11C148.002 51.11 146.975 50.8607 146.066 50.362C145.171 49.8487 144.467 49.152 143.954 48.272C143.441 47.3773 143.184 46.358 143.184 45.214C143.184 44.0553 143.441 43.036 143.954 42.156C144.467 41.276 145.171 40.5867 146.066 40.088C146.975 39.5893 148.002 39.34 149.146 39.34C150.129 39.34 151.016 39.5307 151.808 39.912C152.6 40.2933 153.223 40.8653 153.678 41.628L152.512 42.42C152.116 41.8333 151.625 41.4007 151.038 41.122C150.451 40.8433 149.813 40.704 149.124 40.704C148.303 40.704 147.562 40.8947 146.902 41.276C146.242 41.6427 145.721 42.1633 145.34 42.838C144.959 43.5127 144.768 44.3047 144.768 45.214C144.768 46.1233 144.959 46.9153 145.34 47.59C145.721 48.2647 146.242 48.7927 146.902 49.174C147.562 49.5407 148.303 49.724 149.124 49.724C149.813 49.724 150.451 49.5847 151.038 49.306C151.625 49.0273 152.116 48.602 152.512 48.03L153.678 48.822C153.223 49.57 152.6 50.142 151.808 50.538C151.016 50.9193 150.129 51.11 149.146 51.11ZM161.261 51.11C160.146 51.11 159.142 50.8607 158.247 50.362C157.367 49.8487 156.67 49.152 156.157 48.272C155.644 47.3773 155.387 46.358 155.387 45.214C155.387 44.0553 155.644 43.036 156.157 42.156C156.67 41.276 157.367 40.5867 158.247 40.088C159.127 39.5893 160.132 39.34 161.261 39.34C162.405 39.34 163.417 39.5893 164.297 40.088C165.192 40.5867 165.888 41.276 166.387 42.156C166.9 43.036 167.157 44.0553 167.157 45.214C167.157 46.358 166.9 47.3773 166.387 48.272C165.888 49.152 165.192 49.8487 164.297 50.362C163.402 50.8607 162.39 51.11 161.261 51.11ZM161.261 49.724C162.097 49.724 162.838 49.5407 163.483 49.174C164.128 48.7927 164.634 48.2647 165.001 47.59C165.382 46.9007 165.573 46.1087 165.573 45.214C165.573 44.3047 165.382 43.5127 165.001 42.838C164.634 42.1633 164.128 41.6427 163.483 41.276C162.838 40.8947 162.104 40.704 161.283 40.704C160.462 40.704 159.728 40.8947 159.083 41.276C158.438 41.6427 157.924 42.1633 157.543 42.838C157.162 43.5127 156.971 44.3047 156.971 45.214C156.971 46.1087 157.162 46.9007 157.543 47.59C157.924 48.2647 158.438 48.7927 159.083 49.174C159.728 49.5407 160.454 49.724 161.261 49.724ZM173.448 51.11C172.495 51.11 171.593 50.978 170.742 50.714C169.891 50.4353 169.224 50.0907 168.74 49.68L169.444 48.448C169.913 48.8 170.515 49.108 171.248 49.372C171.981 49.6213 172.751 49.746 173.558 49.746C174.658 49.746 175.45 49.5773 175.934 49.24C176.418 48.888 176.66 48.426 176.66 47.854C176.66 47.4287 176.521 47.0987 176.242 46.864C175.978 46.6147 175.626 46.4313 175.186 46.314C174.746 46.182 174.255 46.072 173.712 45.984C173.169 45.896 172.627 45.7933 172.084 45.676C171.556 45.5587 171.072 45.39 170.632 45.17C170.192 44.9353 169.833 44.62 169.554 44.224C169.29 43.828 169.158 43.3 169.158 42.64C169.158 42.0093 169.334 41.4447 169.686 40.946C170.038 40.4473 170.551 40.0587 171.226 39.78C171.915 39.4867 172.751 39.34 173.734 39.34C174.482 39.34 175.23 39.4427 175.978 39.648C176.726 39.8387 177.342 40.0953 177.826 40.418L177.144 41.672C176.631 41.32 176.081 41.0707 175.494 40.924C174.907 40.7627 174.321 40.682 173.734 40.682C172.693 40.682 171.923 40.8653 171.424 41.232C170.94 41.584 170.698 42.0387 170.698 42.596C170.698 43.036 170.83 43.3807 171.094 43.63C171.373 43.8793 171.732 44.0773 172.172 44.224C172.627 44.356 173.118 44.466 173.646 44.554C174.189 44.642 174.724 44.752 175.252 44.884C175.795 45.0013 176.286 45.17 176.726 45.39C177.181 45.5953 177.54 45.896 177.804 46.292C178.083 46.6733 178.222 47.1793 178.222 47.81C178.222 48.4847 178.031 49.0713 177.65 49.57C177.283 50.054 176.741 50.4353 176.022 50.714C175.318 50.978 174.46 51.11 173.448 51.11ZM184.74 51.11C183.655 51.11 182.819 50.8167 182.232 50.23C181.645 49.6433 181.352 48.8147 181.352 47.744V36.898H182.914V47.656C182.914 48.3307 183.083 48.8513 183.42 49.218C183.772 49.5847 184.271 49.768 184.916 49.768C185.605 49.768 186.177 49.57 186.632 49.174L187.182 50.296C186.874 50.5747 186.5 50.78 186.06 50.912C185.635 51.044 185.195 51.11 184.74 51.11ZM179.284 40.748V39.45H186.434V40.748H179.284ZM193.128 51.11C192.174 51.11 191.272 50.978 190.422 50.714C189.571 50.4353 188.904 50.0907 188.42 49.68L189.124 48.448C189.593 48.8 190.194 49.108 190.928 49.372C191.661 49.6213 192.431 49.746 193.238 49.746C194.338 49.746 195.13 49.5773 195.614 49.24C196.098 48.888 196.34 48.426 196.34 47.854C196.34 47.4287 196.2 47.0987 195.922 46.864C195.658 46.6147 195.306 46.4313 194.866 46.314C194.426 46.182 193.934 46.072 193.392 45.984C192.849 45.896 192.306 45.7933 191.764 45.676C191.236 45.5587 190.752 45.39 190.312 45.17C189.872 44.9353 189.512 44.62 189.234 44.224C188.97 43.828 188.838 43.3 188.838 42.64C188.838 42.0093 189.014 41.4447 189.366 40.946C189.718 40.4473 190.231 40.0587 190.906 39.78C191.595 39.4867 192.431 39.34 193.414 39.34C194.162 39.34 194.91 39.4427 195.658 39.648C196.406 39.8387 197.022 40.0953 197.506 40.418L196.824 41.672C196.31 41.32 195.76 41.0707 195.174 40.924C194.587 40.7627 194 40.682 193.414 40.682C192.372 40.682 191.602 40.8653 191.104 41.232C190.62 41.584 190.378 42.0387 190.378 42.596C190.378 43.036 190.51 43.3807 190.774 43.63C191.052 43.8793 191.412 44.0773 191.852 44.224C192.306 44.356 192.798 44.466 193.326 44.554C193.868 44.642 194.404 44.752 194.932 44.884C195.474 45.0013 195.966 45.17 196.406 45.39C196.86 45.5953 197.22 45.896 197.484 46.292C197.762 46.6733 197.902 47.1793 197.902 47.81C197.902 48.4847 197.711 49.0713 197.33 49.57C196.963 50.054 196.42 50.4353 195.702 50.714C194.998 50.978 194.14 51.11 193.128 51.11ZM211.234 51.11C210.119 51.11 209.114 50.8607 208.22 50.362C207.34 49.8487 206.643 49.152 206.13 48.272C205.616 47.3773 205.36 46.358 205.36 45.214C205.36 44.0553 205.616 43.036 206.13 42.156C206.643 41.276 207.34 40.5867 208.22 40.088C209.1 39.5893 210.104 39.34 211.234 39.34C212.378 39.34 213.39 39.5893 214.27 40.088C215.164 40.5867 215.861 41.276 216.36 42.156C216.873 43.036 217.13 44.0553 217.13 45.214C217.13 46.358 216.873 47.3773 216.36 48.272C215.861 49.152 215.164 49.8487 214.27 50.362C213.375 50.8607 212.363 51.11 211.234 51.11ZM211.234 49.724C212.07 49.724 212.81 49.5407 213.456 49.174C214.101 48.7927 214.607 48.2647 214.974 47.59C215.355 46.9007 215.546 46.1087 215.546 45.214C215.546 44.3047 215.355 43.5127 214.974 42.838C214.607 42.1633 214.101 41.6427 213.456 41.276C212.81 40.8947 212.077 40.704 211.256 40.704C210.434 40.704 209.701 40.8947 209.056 41.276C208.41 41.6427 207.897 42.1633 207.516 42.838C207.134 43.5127 206.944 44.3047 206.944 45.214C206.944 46.1087 207.134 46.9007 207.516 47.59C207.897 48.2647 208.41 48.7927 209.056 49.174C209.701 49.5407 210.427 49.724 211.234 49.724ZM220.319 51V39.45H221.815V42.596L221.661 42.046C221.983 41.166 222.526 40.4987 223.289 40.044C224.051 39.5747 224.997 39.34 226.127 39.34V40.858C226.068 40.858 226.009 40.858 225.951 40.858C225.892 40.8433 225.833 40.836 225.775 40.836C224.557 40.836 223.604 41.21 222.915 41.958C222.225 42.6913 221.881 43.74 221.881 45.104V51H220.319ZM240.803 39.34C241.741 39.34 242.563 39.5233 243.267 39.89C243.985 40.242 244.543 40.7847 244.939 41.518C245.349 42.2513 245.555 43.1753 245.555 44.29V51H243.993V44.444C243.993 43.2267 243.685 42.31 243.069 41.694C242.467 41.0633 241.617 40.748 240.517 40.748C239.695 40.748 238.977 40.9167 238.361 41.254C237.759 41.5767 237.29 42.0533 236.953 42.684C236.63 43.3 236.469 44.048 236.469 44.928V51H234.907V34.676H236.469V42.618L236.161 42.024C236.527 41.188 237.114 40.5353 237.921 40.066C238.727 39.582 239.688 39.34 240.803 39.34ZM254.482 51.11C253.367 51.11 252.362 50.8607 251.468 50.362C250.588 49.8487 249.891 49.152 249.378 48.272C248.864 47.3773 248.608 46.358 248.608 45.214C248.608 44.0553 248.864 43.036 249.378 42.156C249.891 41.276 250.588 40.5867 251.468 40.088C252.348 39.5893 253.352 39.34 254.482 39.34C255.626 39.34 256.638 39.5893 257.518 40.088C258.412 40.5867 259.109 41.276 259.608 42.156C260.121 43.036 260.378 44.0553 260.378 45.214C260.378 46.358 260.121 47.3773 259.608 48.272C259.109 49.152 258.412 49.8487 257.518 50.362C256.623 50.8607 255.611 51.11 254.482 51.11ZM254.482 49.724C255.318 49.724 256.058 49.5407 256.704 49.174C257.349 48.7927 257.855 48.2647 258.222 47.59C258.603 46.9007 258.794 46.1087 258.794 45.214C258.794 44.3047 258.603 43.5127 258.222 42.838C257.855 42.1633 257.349 41.6427 256.704 41.276C256.058 40.8947 255.325 40.704 254.504 40.704C253.682 40.704 252.949 40.8947 252.304 41.276C251.658 41.6427 251.145 42.1633 250.764 42.838C250.382 43.5127 250.192 44.3047 250.192 45.214C250.192 46.1087 250.382 46.9007 250.764 47.59C251.145 48.2647 251.658 48.7927 252.304 49.174C252.949 49.5407 253.675 49.724 254.482 49.724ZM265.598 51L261.242 39.45H262.738L266.698 50.164H266.016L270.086 39.45H271.428L275.454 50.164H274.772L278.798 39.45H280.228L275.85 51H274.376L270.504 40.924H270.966L267.072 51H265.598ZM302.77 39.34C303.709 39.34 304.523 39.5233 305.212 39.89C305.916 40.242 306.459 40.7847 306.84 41.518C307.236 42.2513 307.434 43.1753 307.434 44.29V51H305.872V44.444C305.872 43.2267 305.579 42.31 304.992 41.694C304.42 41.0633 303.606 40.748 302.55 40.748C301.758 40.748 301.069 40.9167 300.482 41.254C299.91 41.5767 299.463 42.0533 299.14 42.684C298.832 43.3 298.678 44.048 298.678 44.928V51H297.116V44.444C297.116 43.2267 296.823 42.31 296.236 41.694C295.649 41.0633 294.828 40.748 293.772 40.748C292.995 40.748 292.313 40.9167 291.726 41.254C291.139 41.5767 290.685 42.0533 290.362 42.684C290.054 43.3 289.9 44.048 289.9 44.928V51H288.338V39.45H289.834V42.574L289.592 42.024C289.944 41.188 290.509 40.5353 291.286 40.066C292.078 39.582 293.009 39.34 294.08 39.34C295.209 39.34 296.17 39.626 296.962 40.198C297.754 40.7553 298.267 41.5987 298.502 42.728L297.886 42.486C298.223 41.5473 298.817 40.792 299.668 40.22C300.533 39.6333 301.567 39.34 302.77 39.34ZM316.444 51.11C315.462 51.11 314.604 50.9267 313.87 50.56C313.137 50.1933 312.565 49.6433 312.154 48.91C311.758 48.1767 311.56 47.26 311.56 46.16V39.45H313.122V45.984C313.122 47.216 313.423 48.1473 314.024 48.778C314.64 49.394 315.498 49.702 316.598 49.702C317.405 49.702 318.102 49.5407 318.688 49.218C319.29 48.8807 319.744 48.3967 320.052 47.766C320.375 47.1353 320.536 46.38 320.536 45.5V39.45H322.098V51H320.602V47.832L320.844 48.404C320.478 49.2547 319.906 49.922 319.128 50.406C318.366 50.8753 317.471 51.11 316.444 51.11ZM331.247 51.11C330.103 51.11 329.077 50.8607 328.167 50.362C327.273 49.8487 326.569 49.152 326.055 48.272C325.542 47.3773 325.285 46.358 325.285 45.214C325.285 44.0553 325.542 43.036 326.055 42.156C326.569 41.276 327.273 40.5867 328.167 40.088C329.077 39.5893 330.103 39.34 331.247 39.34C332.23 39.34 333.117 39.5307 333.909 39.912C334.701 40.2933 335.325 40.8653 335.779 41.628L334.613 42.42C334.217 41.8333 333.726 41.4007 333.139 41.122C332.553 40.8433 331.915 40.704 331.225 40.704C330.404 40.704 329.663 40.8947 329.003 41.276C328.343 41.6427 327.823 42.1633 327.441 42.838C327.06 43.5127 326.869 44.3047 326.869 45.214C326.869 46.1233 327.06 46.9153 327.441 47.59C327.823 48.2647 328.343 48.7927 329.003 49.174C329.663 49.5407 330.404 49.724 331.225 49.724C331.915 49.724 332.553 49.5847 333.139 49.306C333.726 49.0273 334.217 48.602 334.613 48.03L335.779 48.822C335.325 49.57 334.701 50.142 333.909 50.538C333.117 50.9193 332.23 51.11 331.247 51.11ZM344.572 39.34C345.511 39.34 346.332 39.5233 347.036 39.89C347.755 40.242 348.312 40.7847 348.708 41.518C349.119 42.2513 349.324 43.1753 349.324 44.29V51H347.762V44.444C347.762 43.2267 347.454 42.31 346.838 41.694C346.237 41.0633 345.386 40.748 344.286 40.748C343.465 40.748 342.746 40.9167 342.13 41.254C341.529 41.5767 341.059 42.0533 340.722 42.684C340.399 43.3 340.238 44.048 340.238 44.928V51H338.676V34.676H340.238V42.618L339.93 42.024C340.297 41.188 340.883 40.5353 341.69 40.066C342.497 39.582 343.457 39.34 344.572 39.34ZM359.389 55.378C358.846 55.378 358.326 55.29 357.827 55.114C357.343 54.938 356.925 54.674 356.573 54.322L357.299 53.156C357.592 53.4347 357.908 53.6473 358.245 53.794C358.597 53.9553 358.986 54.036 359.411 54.036C359.924 54.036 360.364 53.8893 360.731 53.596C361.112 53.3173 361.472 52.8187 361.809 52.1L362.557 50.406L362.733 50.164L367.485 39.45H369.025L363.239 52.386C362.916 53.134 362.557 53.728 362.161 54.168C361.78 54.608 361.362 54.916 360.907 55.092C360.452 55.2827 359.946 55.378 359.389 55.378ZM362.469 51.33L357.145 39.45H358.773L363.481 50.054L362.469 51.33ZM375.611 51.11C374.496 51.11 373.491 50.8607 372.597 50.362C371.717 49.8487 371.02 49.152 370.507 48.272C369.993 47.3773 369.737 46.358 369.737 45.214C369.737 44.0553 369.993 43.036 370.507 42.156C371.02 41.276 371.717 40.5867 372.597 40.088C373.477 39.5893 374.481 39.34 375.611 39.34C376.755 39.34 377.767 39.5893 378.647 40.088C379.541 40.5867 380.238 41.276 380.737 42.156C381.25 43.036 381.507 44.0553 381.507 45.214C381.507 46.358 381.25 47.3773 380.737 48.272C380.238 49.152 379.541 49.8487 378.647 50.362C377.752 50.8607 376.74 51.11 375.611 51.11ZM375.611 49.724C376.447 49.724 377.187 49.5407 377.833 49.174C378.478 48.7927 378.984 48.2647 379.351 47.59C379.732 46.9007 379.923 46.1087 379.923 45.214C379.923 44.3047 379.732 43.5127 379.351 42.838C378.984 42.1633 378.478 41.6427 377.833 41.276C377.187 40.8947 376.454 40.704 375.633 40.704C374.811 40.704 374.078 40.8947 373.433 41.276C372.787 41.6427 372.274 42.1633 371.893 42.838C371.511 43.5127 371.321 44.3047 371.321 45.214C371.321 46.1087 371.511 46.9007 371.893 47.59C372.274 48.2647 372.787 48.7927 373.433 49.174C374.078 49.5407 374.804 49.724 375.611 49.724ZM389.47 51.11C388.487 51.11 387.629 50.9267 386.896 50.56C386.162 50.1933 385.59 49.6433 385.18 48.91C384.784 48.1767 384.586 47.26 384.586 46.16V39.45H386.148V45.984C386.148 47.216 386.448 48.1473 387.05 48.778C387.666 49.394 388.524 49.702 389.624 49.702C390.43 49.702 391.127 49.5407 391.714 49.218C392.315 48.8807 392.77 48.3967 393.078 47.766C393.4 47.1353 393.562 46.38 393.562 45.5V39.45H395.124V51H393.628V47.832L393.87 48.404C393.503 49.2547 392.931 49.922 392.154 50.406C391.391 50.8753 390.496 51.11 389.47 51.11ZM411.197 51.11C410.199 51.11 409.297 50.8827 408.491 50.428C407.684 49.9587 407.039 49.2913 406.555 48.426C406.085 47.546 405.851 46.4753 405.851 45.214C405.851 43.9527 406.085 42.8893 406.555 42.024C407.024 41.144 407.662 40.4767 408.469 40.022C409.275 39.5673 410.185 39.34 411.197 39.34C412.297 39.34 413.279 39.5893 414.145 40.088C415.025 40.572 415.714 41.2613 416.213 42.156C416.711 43.036 416.961 44.0553 416.961 45.214C416.961 46.3873 416.711 47.414 416.213 48.294C415.714 49.174 415.025 49.8633 414.145 50.362C413.279 50.8607 412.297 51.11 411.197 51.11ZM405.235 55.268V39.45H406.731V42.926L406.577 45.236L406.797 47.568V55.268H405.235ZM411.087 49.724C411.908 49.724 412.641 49.5407 413.287 49.174C413.932 48.7927 414.445 48.2647 414.827 47.59C415.208 46.9007 415.399 46.1087 415.399 45.214C415.399 44.3193 415.208 43.5347 414.827 42.86C414.445 42.1853 413.932 41.6573 413.287 41.276C412.641 40.8947 411.908 40.704 411.087 40.704C410.265 40.704 409.525 40.8947 408.865 41.276C408.219 41.6573 407.706 42.1853 407.325 42.86C406.958 43.5347 406.775 44.3193 406.775 45.214C406.775 46.1087 406.958 46.9007 407.325 47.59C407.706 48.2647 408.219 48.7927 408.865 49.174C409.525 49.5407 410.265 49.724 411.087 49.724ZM427.318 51V48.448L427.252 48.03V43.762C427.252 42.7793 426.974 42.024 426.416 41.496C425.874 40.968 425.06 40.704 423.974 40.704C423.226 40.704 422.515 40.8287 421.84 41.078C421.166 41.3273 420.594 41.6573 420.124 42.068L419.42 40.902C420.007 40.4033 420.711 40.022 421.532 39.758C422.354 39.4793 423.219 39.34 424.128 39.34C425.624 39.34 426.776 39.714 427.582 40.462C428.404 41.1953 428.814 42.3173 428.814 43.828V51H427.318ZM423.336 51.11C422.471 51.11 421.716 50.9707 421.07 50.692C420.44 50.3987 419.956 50.0027 419.618 49.504C419.281 48.9907 419.112 48.404 419.112 47.744C419.112 47.1427 419.252 46.6 419.53 46.116C419.824 45.6173 420.293 45.2213 420.938 44.928C421.598 44.62 422.478 44.466 423.578 44.466H427.56V45.632H423.622C422.508 45.632 421.73 45.83 421.29 46.226C420.865 46.622 420.652 47.1133 420.652 47.7C420.652 48.36 420.909 48.888 421.422 49.284C421.936 49.68 422.654 49.878 423.578 49.878C424.458 49.878 425.214 49.68 425.844 49.284C426.49 48.8733 426.959 48.2867 427.252 47.524L427.604 48.602C427.311 49.3647 426.798 49.9733 426.064 50.428C425.346 50.8827 424.436 51.11 423.336 51.11ZM432.93 55.378C432.387 55.378 431.867 55.29 431.368 55.114C430.884 54.938 430.466 54.674 430.114 54.322L430.84 53.156C431.133 53.4347 431.449 53.6473 431.786 53.794C432.138 53.9553 432.527 54.036 432.952 54.036C433.465 54.036 433.905 53.8893 434.272 53.596C434.653 53.3173 435.013 52.8187 435.35 52.1L436.098 50.406L436.274 50.164L441.026 39.45H442.566L436.78 52.386C436.457 53.134 436.098 53.728 435.702 54.168C435.321 54.608 434.903 54.916 434.448 55.092C433.993 55.2827 433.487 55.378 432.93 55.378ZM436.01 51.33L430.686 39.45H432.314L437.022 50.054L436.01 51.33ZM78.178 80V68.45H79.74V80H78.178ZM78.97 65.898C78.6473 65.898 78.376 65.788 78.156 65.568C77.936 65.348 77.826 65.084 77.826 64.776C77.826 64.468 77.936 64.2113 78.156 64.006C78.376 63.786 78.6473 63.676 78.97 63.676C79.2927 63.676 79.564 63.7787 79.784 63.984C80.004 64.1893 80.114 64.446 80.114 64.754C80.114 65.0767 80.004 65.348 79.784 65.568C79.5787 65.788 79.3073 65.898 78.97 65.898ZM89.9822 68.34C90.9209 68.34 91.7422 68.5233 92.4462 68.89C93.1649 69.242 93.7222 69.7847 94.1182 70.518C94.5289 71.2513 94.7342 72.1753 94.7342 73.29V80H93.1722V73.444C93.1722 72.2267 92.8642 71.31 92.2482 70.694C91.6469 70.0633 90.7962 69.748 89.6962 69.748C88.8749 69.748 88.1562 69.9167 87.5402 70.254C86.9389 70.5767 86.4695 71.0533 86.1322 71.684C85.8095 72.3 85.6482 73.048 85.6482 73.928V80H84.0862V68.45H85.5822V71.618L85.3402 71.024C85.7069 70.188 86.2935 69.5353 87.1002 69.066C87.9069 68.582 88.8675 68.34 89.9822 68.34ZM108.363 80.11C107.278 80.11 106.442 79.8167 105.855 79.23C105.269 78.6433 104.975 77.8147 104.975 76.744V65.898H106.537V76.656C106.537 77.3307 106.706 77.8513 107.043 78.218C107.395 78.5847 107.894 78.768 108.539 78.768C109.229 78.768 109.801 78.57 110.255 78.174L110.805 79.296C110.497 79.5747 110.123 79.78 109.683 79.912C109.258 80.044 108.818 80.11 108.363 80.11ZM102.907 69.748V68.45H110.057V69.748H102.907ZM117.949 80.11C116.834 80.11 115.829 79.8607 114.935 79.362C114.055 78.8487 113.358 78.152 112.845 77.272C112.331 76.3773 112.075 75.358 112.075 74.214C112.075 73.0553 112.331 72.036 112.845 71.156C113.358 70.276 114.055 69.5867 114.935 69.088C115.815 68.5893 116.819 68.34 117.949 68.34C119.093 68.34 120.105 68.5893 120.985 69.088C121.879 69.5867 122.576 70.276 123.075 71.156C123.588 72.036 123.845 73.0553 123.845 74.214C123.845 75.358 123.588 76.3773 123.075 77.272C122.576 78.152 121.879 78.8487 120.985 79.362C120.09 79.8607 119.078 80.11 117.949 80.11ZM117.949 78.724C118.785 78.724 119.525 78.5407 120.171 78.174C120.816 77.7927 121.322 77.2647 121.689 76.59C122.07 75.9007 122.261 75.1087 122.261 74.214C122.261 73.3047 122.07 72.5127 121.689 71.838C121.322 71.1633 120.816 70.6427 120.171 70.276C119.525 69.8947 118.792 69.704 117.971 69.704C117.149 69.704 116.416 69.8947 115.771 70.276C115.125 70.6427 114.612 71.1633 114.231 71.838C113.849 72.5127 113.659 73.3047 113.659 74.214C113.659 75.1087 113.849 75.9007 114.231 76.59C114.612 77.2647 115.125 77.7927 115.771 78.174C116.416 78.5407 117.142 78.724 117.949 78.724ZM130.685 80.11C129.6 80.11 128.764 79.8167 128.177 79.23C127.591 78.6433 127.297 77.8147 127.297 76.744V65.898H128.859V76.656C128.859 77.3307 129.028 77.8513 129.365 78.218C129.717 78.5847 130.216 78.768 130.861 78.768C131.551 78.768 132.123 78.57 132.577 78.174L133.127 79.296C132.819 79.5747 132.445 79.78 132.005 79.912C131.58 80.044 131.14 80.11 130.685 80.11ZM125.229 69.748V68.45H132.379V69.748H125.229ZM143.209 80V77.448L143.143 77.03V72.762C143.143 71.7793 142.864 71.024 142.307 70.496C141.764 69.968 140.95 69.704 139.865 69.704C139.117 69.704 138.406 69.8287 137.731 70.078C137.056 70.3273 136.484 70.6573 136.015 71.068L135.311 69.902C135.898 69.4033 136.602 69.022 137.423 68.758C138.244 68.4793 139.11 68.34 140.019 68.34C141.515 68.34 142.666 68.714 143.473 69.462C144.294 70.1953 144.705 71.3173 144.705 72.828V80H143.209ZM139.227 80.11C138.362 80.11 137.606 79.9707 136.961 79.692C136.33 79.3987 135.846 79.0027 135.509 78.504C135.172 77.9907 135.003 77.404 135.003 76.744C135.003 76.1427 135.142 75.6 135.421 75.116C135.714 74.6173 136.184 74.2213 136.829 73.928C137.489 73.62 138.369 73.466 139.469 73.466H143.451V74.632H139.513C138.398 74.632 137.621 74.83 137.181 75.226C136.756 75.622 136.543 76.1133 136.543 76.7C136.543 77.36 136.8 77.888 137.313 78.284C137.826 78.68 138.545 78.878 139.469 78.878C140.349 78.878 141.104 78.68 141.735 78.284C142.38 77.8733 142.85 77.2867 143.143 76.524L143.495 77.602C143.202 78.3647 142.688 78.9733 141.955 79.428C141.236 79.8827 140.327 80.11 139.227 80.11ZM148.948 80V63.676H150.51V80H148.948ZM157.848 75.38C157.848 74.764 157.943 74.236 158.134 73.796C158.339 73.356 158.588 72.9673 158.882 72.63C159.19 72.2927 159.512 71.9773 159.85 71.684C160.202 71.3907 160.532 71.0973 160.84 70.804C161.148 70.496 161.397 70.166 161.588 69.814C161.778 69.4473 161.874 69.022 161.874 68.538C161.874 67.746 161.566 67.1007 160.95 66.602C160.334 66.1033 159.461 65.854 158.332 65.854C157.393 65.854 156.579 66.008 155.89 66.316C155.2 66.6093 154.614 67.0493 154.13 67.636L152.964 66.756C153.55 66.0227 154.306 65.458 155.23 65.062C156.154 64.666 157.224 64.468 158.442 64.468C159.468 64.468 160.356 64.622 161.104 64.93C161.866 65.238 162.453 65.678 162.864 66.25C163.289 66.822 163.502 67.504 163.502 68.296C163.502 68.9267 163.399 69.4693 163.194 69.924C163.003 70.364 162.754 70.76 162.446 71.112C162.152 71.4493 161.83 71.772 161.478 72.08C161.14 72.3733 160.818 72.674 160.51 72.982C160.202 73.29 159.952 73.6347 159.762 74.016C159.571 74.3973 159.476 74.852 159.476 75.38H157.848ZM158.662 80.11C158.354 80.11 158.082 80 157.848 79.78C157.628 79.5453 157.518 79.274 157.518 78.966C157.518 78.6433 157.628 78.3793 157.848 78.174C158.082 77.954 158.354 77.844 158.662 77.844C158.999 77.844 159.278 77.954 159.498 78.174C159.718 78.3793 159.828 78.6433 159.828 78.966C159.828 79.274 159.718 79.5453 159.498 79.78C159.278 80 158.999 80.11 158.662 80.11Z" fill="black"/>
<path d="M255.426 129C289.099 128.993 321.645 141.123 347.101 163.165C372.556 185.208 389.214 215.686 394.021 249.014C398.828 282.341 391.462 316.285 373.274 344.622C355.085 372.96 327.293 393.792 294.991 403.301C262.689 412.811 228.042 410.359 197.401 396.396C166.76 382.433 142.178 357.895 128.161 327.278C114.144 296.662 111.632 262.019 121.084 229.701C130.536 197.382 151.319 169.553 179.625 151.315L255.455 269L255.426 129Z" fill="#FF7F00"/>
<path d="M179.743 151.239C202.27 136.755 228.479 129.037 255.26 129L255.455 269L179.743 151.239Z" fill="#1F78B4"/>
<path d="M154.477 442.305L157.516 436.578H158.945L155.141 443.57V448H153.812V443.633L150 436.578H151.453L154.477 442.305ZM163.265 439.281C163.994 439.281 164.619 439.443 165.14 439.766C165.661 440.089 166.059 440.542 166.335 441.125C166.612 441.703 166.75 442.38 166.75 443.156V443.961H160.835C160.851 444.966 161.101 445.732 161.585 446.258C162.07 446.784 162.752 447.047 163.632 447.047C164.174 447.047 164.653 446.997 165.07 446.898C165.487 446.799 165.919 446.654 166.367 446.461V447.602C165.934 447.794 165.505 447.935 165.078 448.023C164.656 448.112 164.156 448.156 163.578 448.156C162.755 448.156 162.036 447.99 161.421 447.656C160.812 447.318 160.338 446.823 160 446.172C159.661 445.521 159.492 444.724 159.492 443.781C159.492 442.859 159.645 442.062 159.953 441.391C160.265 440.714 160.703 440.193 161.265 439.828C161.833 439.464 162.5 439.281 163.265 439.281ZM163.25 440.344C162.557 440.344 162.005 440.57 161.593 441.023C161.182 441.477 160.937 442.109 160.859 442.922H165.39C165.385 442.411 165.304 441.964 165.148 441.578C164.997 441.188 164.765 440.885 164.453 440.672C164.14 440.453 163.739 440.344 163.25 440.344ZM174.14 445.656C174.14 446.203 174.002 446.664 173.726 447.039C173.455 447.409 173.064 447.688 172.554 447.875C172.049 448.062 171.444 448.156 170.741 448.156C170.142 448.156 169.624 448.109 169.187 448.016C168.749 447.922 168.366 447.789 168.038 447.617V446.422C168.387 446.594 168.804 446.75 169.288 446.891C169.773 447.031 170.267 447.102 170.773 447.102C171.512 447.102 172.049 446.982 172.382 446.742C172.715 446.503 172.882 446.177 172.882 445.766C172.882 445.531 172.814 445.326 172.679 445.148C172.549 444.966 172.327 444.792 172.015 444.625C171.702 444.453 171.27 444.266 170.718 444.062C170.171 443.854 169.697 443.648 169.296 443.445C168.9 443.237 168.593 442.984 168.374 442.688C168.161 442.391 168.054 442.005 168.054 441.531C168.054 440.807 168.345 440.253 168.929 439.867C169.517 439.477 170.288 439.281 171.241 439.281C171.757 439.281 172.239 439.333 172.687 439.438C173.14 439.536 173.562 439.672 173.952 439.844L173.515 440.883C173.161 440.732 172.783 440.604 172.382 440.5C171.981 440.396 171.572 440.344 171.155 440.344C170.556 440.344 170.095 440.443 169.773 440.641C169.455 440.839 169.296 441.109 169.296 441.453C169.296 441.719 169.369 441.938 169.515 442.109C169.666 442.281 169.905 442.443 170.233 442.594C170.562 442.745 170.994 442.922 171.53 443.125C172.067 443.323 172.53 443.529 172.921 443.742C173.312 443.951 173.611 444.206 173.819 444.508C174.033 444.805 174.14 445.188 174.14 445.656Z" fill="#1E1E1E"/>
<path d="M160.492 490H158.961L152.734 480.406H152.672C152.688 480.661 152.706 480.953 152.727 481.281C152.747 481.604 152.763 481.951 152.773 482.32C152.789 482.685 152.797 483.057 152.797 483.438V490H151.562V478.578H153.086L159.289 488.141H159.344C159.333 487.958 159.32 487.701 159.305 487.367C159.289 487.029 159.273 486.667 159.258 486.281C159.247 485.891 159.242 485.529 159.242 485.195V478.578H160.492V490ZM170.445 485.703C170.445 486.406 170.354 487.034 170.171 487.586C169.989 488.138 169.726 488.604 169.382 488.984C169.039 489.365 168.622 489.656 168.132 489.859C167.648 490.057 167.099 490.156 166.484 490.156C165.911 490.156 165.385 490.057 164.906 489.859C164.432 489.656 164.02 489.365 163.671 488.984C163.328 488.604 163.059 488.138 162.867 487.586C162.679 487.034 162.585 486.406 162.585 485.703C162.585 484.766 162.744 483.969 163.062 483.312C163.38 482.651 163.833 482.148 164.421 481.805C165.015 481.456 165.721 481.281 166.539 481.281C167.32 481.281 168.002 481.456 168.585 481.805C169.174 482.154 169.63 482.659 169.953 483.32C170.281 483.977 170.445 484.771 170.445 485.703ZM163.929 485.703C163.929 486.391 164.02 486.987 164.203 487.492C164.385 487.997 164.666 488.388 165.046 488.664C165.427 488.94 165.916 489.078 166.515 489.078C167.109 489.078 167.596 488.94 167.976 488.664C168.362 488.388 168.645 487.997 168.828 487.492C169.01 486.987 169.101 486.391 169.101 485.703C169.101 485.021 169.01 484.432 168.828 483.938C168.645 483.438 168.364 483.052 167.984 482.781C167.604 482.51 167.112 482.375 166.507 482.375C165.617 482.375 164.963 482.669 164.546 483.258C164.135 483.846 163.929 484.661 163.929 485.703Z" fill="#1E1E1E"/>
<rect x="115" y="430" width="24" height="24" fill="#1F78B4"/>
<rect x="115" y="472" width="24" height="24" fill="#FF7F00"/>
<path d="M230.68 180H219.078V177.926L223.52 173.426C224.379 172.551 225.086 171.797 225.641 171.164C226.195 170.523 226.605 169.918 226.871 169.348C227.145 168.777 227.281 168.156 227.281 167.484C227.281 166.656 227.043 166.031 226.566 165.609C226.09 165.18 225.461 164.965 224.68 164.965C223.938 164.965 223.25 165.113 222.617 165.41C221.992 165.699 221.344 166.113 220.672 166.652L219.16 164.836C219.637 164.43 220.145 164.059 220.684 163.723C221.23 163.387 221.84 163.121 222.512 162.926C223.184 162.723 223.949 162.621 224.809 162.621C225.895 162.621 226.832 162.816 227.621 163.207C228.41 163.59 229.016 164.125 229.438 164.812C229.867 165.5 230.082 166.301 230.082 167.215C230.082 168.137 229.898 168.988 229.531 169.77C229.164 170.551 228.641 171.324 227.961 172.09C227.281 172.848 226.473 173.672 225.535 174.562L222.57 177.457V177.586H230.68V180Z" fill="white"/>
<path d="M324.68 332H313.078V329.926L317.52 325.426C318.379 324.551 319.086 323.797 319.641 323.164C320.195 322.523 320.605 321.918 320.871 321.348C321.145 320.777 321.281 320.156 321.281 319.484C321.281 318.656 321.043 318.031 320.566 317.609C320.09 317.18 319.461 316.965 318.68 316.965C317.938 316.965 317.25 317.113 316.617 317.41C315.992 317.699 315.344 318.113 314.672 318.652L313.16 316.836C313.637 316.43 314.145 316.059 314.684 315.723C315.23 315.387 315.84 315.121 316.512 314.926C317.184 314.723 317.949 314.621 318.809 314.621C319.895 314.621 320.832 314.816 321.621 315.207C322.41 315.59 323.016 316.125 323.438 316.812C323.867 317.5 324.082 318.301 324.082 319.215C324.082 320.137 323.898 320.988 323.531 321.77C323.164 322.551 322.641 323.324 321.961 324.09C321.281 324.848 320.473 325.672 319.535 326.562L316.57 329.457V329.586H324.68V332ZM337.886 323.422C337.886 324.805 337.777 326.043 337.558 327.137C337.347 328.223 337.011 329.145 336.55 329.902C336.089 330.66 335.488 331.238 334.745 331.637C334.003 332.035 333.105 332.234 332.05 332.234C330.73 332.234 329.64 331.887 328.781 331.191C327.921 330.488 327.285 329.48 326.87 328.168C326.456 326.848 326.249 325.266 326.249 323.422C326.249 321.578 326.437 320 326.812 318.688C327.195 317.367 327.812 316.355 328.663 315.652C329.515 314.949 330.644 314.598 332.05 314.598C333.378 314.598 334.472 314.949 335.331 315.652C336.199 316.348 336.839 317.355 337.253 318.676C337.675 319.988 337.886 321.57 337.886 323.422ZM329.027 323.422C329.027 324.867 329.12 326.074 329.308 327.043C329.503 328.012 329.824 328.738 330.269 329.223C330.714 329.699 331.308 329.938 332.05 329.938C332.792 329.938 333.386 329.699 333.831 329.223C334.277 328.746 334.597 328.023 334.792 327.055C334.995 326.086 335.097 324.875 335.097 323.422C335.097 321.984 334.999 320.781 334.804 319.812C334.609 318.844 334.288 318.117 333.843 317.633C333.398 317.141 332.8 316.895 332.05 316.895C331.3 316.895 330.702 317.141 330.257 317.633C329.82 318.117 329.503 318.844 329.308 319.812C329.12 320.781 329.027 321.984 329.027 323.422Z" fill="white"/>
</svg>
